<mxfile host="app.diagrams.net" modified="2022-09-15T17:30:05.579Z" agent="5.0 (Windows NT 10.0; WOW64) AppleWebKit/537.36 (KHTML, like Gecko) Chrome/105.0.0.0 Safari/537.36" etag="RpMr61tk_WcyKw7aFigH" version="20.3.0" type="github">
  <diagram id="57DkckUkoghcNvdpyjVO" name="ページ1">
    <mxGraphModel dx="782" dy="394" grid="1" gridSize="10" guides="1" tooltips="1" connect="1" arrows="1" fold="1" page="1" pageScale="1" pageWidth="1169" pageHeight="1654" math="0" shadow="0">
      <root>
        <mxCell id="0" />
        <mxCell id="1" parent="0" />
        <mxCell id="efpffI7OLtBo6xo70BxB-1" value="" style="shape=image;verticalLabelPosition=bottom;labelBackgroundColor=default;verticalAlign=top;aspect=fixed;imageAspect=0;image=data:image/png,iVBORw0KGgoAAAANSUhEUgAAAnYAAAH0CAYAAACwxGC3AAA+f0lEQVR42u3dd3QUZaPH8V9IAiSEnoTQu3SQpvReLDQBARGpItJBlCZ2moUiKAgKgthf6UjvvSkgoEJCTShJSGghIRDY+4dXDyhls/tszfdzzj3nvpJMZp+d3f3uzDwzPhaLxSIAAAB4vHQMAQAAAGEHAAAAwg4AAACEHQAAAAg7AAAAwg4AAACEHQAAAAg7AAAAEHYAAACEHQAAAAg7AAAAEHYAAAAg7AAAAEDYAQAAEHYAAAAg7AAAAEDYAQAAgLADAAAg7AAAAEDYAQAAgLADAAAAYQcAAEDYAQAAgLADAAAAYQcAAADCDgAAAIQdAAAAYQcAAADCDgAAAIQdAAAACDsAAADCDgAAAIQdAAAACDsAAAAQdgAAAIQdAAAACDsAAAAQdgAAACDsAAAAQNgBAAAQdgAAACDsAAAAQNgBAACAsAMAACDsAAAAQNgBAACAsAMAAABhBwAAAMIOAACAsAMAAABhBwAAAMIOAAAAhB0AAABhBwAAAMIOAAAAhB0AAAAIOwAAAMIOAAAAhB0AAAAIOwAAABB2AAAAIOwAAAAIOwAAABB2AAAAIOwAAABA2AEAABB2AAAAIOwAAABA2AEAAICwAwAAIOwAAABA2AEAAICwAwAAAGEHAAAAwg4AAICwAwAAAGEHAAAAwg4AAACEHQAAAGEHAAAAwg4AAACEHQAAAAg7AAAAEHYAAACEHQAAAAg7AAAAEHYAAAAg7AAAAAg7AAAAEHYAAAAg7AAAAEDYAQAAEHYAAAAg7AAAAEDYAQAAgLADAAAAYQcAAEDYAQAAgLADAAAAYQcAAADCDgAAgLADAAAAYQcAAADn82MIgLQnMipKG9Zv1OHf/1BsTIxiYmMVExOrxMREBscDBQYGKjQ0RKEhIQoJDVWZ0qVUv0E95c+Xj8EB0hgfi8ViYRgA7xcff1Hffve91q1br/DwCAYkDShevJgaNmygjs91UI4c2RkQgLAD4OmSkpI0Z85X+nLOV+yRS6MCAwPVrWtnde3aWQEBAQwIQNgB8ERr163X6NFjdeFCHIMBBQfn1KhRI9WoYQMGAyDsAHiS6dNnaNr0GeIljrve9H181Kd3L/Xu3YvBAAg7AO4uOTlZI19/Q6tWrWEwcF9NmzbW2DHvKUOGDAwGQNgBcFdDXh1K1MHquJvw0QcMBOBFuI4d4EWmT59B1MFqq1at0fTpMxgIgLAD4G7WrluvaXxII5WmTZ+htevWMxCAl+BQLOAFkpKS9ORTzZn9CpsEB+fUiuVLuRQK4AXYYwd4gTlzviLqYLMLF+I0Z85XDATgBdhjB3i4+PiLeuLJZlx8GHYJDAzUyhXLuEMF4OHYYwd4uG+//Y6og90SExP17XffMxAAYQfAldat38AgwMy2xCQKgLAD4DqRUVEKD49gIGBEeHiEIqOiGAiAsAPgChvWb2QQwDYFgLADvMHh3/9gEMA2BYCwA7xBbEwMgwC2KQCEHeANYmJjGQSwTQEg7ACv+BCO4UMYbFMACDvAK3D9OrBNAbiTH0MAwNuUKVNalStXUlhYmCLCI7R12zb2RAEg7ADAkwQGBmroa0PUtm3ru/77tWvX9OFHE/XTTwsYJACEHQC4u0yZMmnmjGmqUKH8Pf/t7bfeUP58+TRp8hQGC4DX4hw7AF4ddXfq0aObBg8awIABIOwAwJOjjrgDQNgBgBdFHXEHgLADAC+KOuIOAGEHAF4UdcQdAMIOALwo6og7AIQdAHhR1BF3AAg7APCiqCPuABB2AOBFUUfcASDsAMCLoo64A0DYAYAXRR1xB4CwAwAvirq/NW3aRFmyZOaJAEDYAYAnR11U1Bl17fairly5ypMBgLADAE+NusjIKHXt9qLOnz/PkwGAsAMAT466bt17EnUACDsAIOoAgLADQNQZjzqLxaKDBw8RdQAIOwDw9Kh786131OmFrlq5cvXDo45z6gB4CT+GAIA3Rt3ChYslScOGj5SPj4+aNm18/6iLjn74m6Wfn4oVK6rChQsrKipKR44c1Y0bN3gSARB2AOCMqJOkW7duaeiwEbJYLHriiSY2Rd1jVavo3XffVr58ef/5b/Hx8Ro9ZrxWr17DkwnAbXAoFoDXRt2dcTds+Mh/DsumJurat3tWs2bNvCvqJClHjhyaOOED7lABwK2wxw6AV0fdv+MuJjZWX82dZ1XUdWjfTqNGjXjgz/To0U2SNGnyFJ5cAC7nY7FYLAwD4JnKlqtI1FkRdbZo3+5ZjRo1Qj4+Plb9/KxZX3pN3B06uI8XF+ChOBQLgKizM+qkv/bccVgWAGEHgKjz8Kgj7gAQdgCIOi+KOuIOAGEHgKjzoqgj7gAQdgCIOi+KOuIOAGEHgKjzoqgj7gAQdgCIOi+KOuIOAGEHgKjzoqgj7gAQdgCIOi+KOuIOAGEHgKhzUNR1aN9Ob7wx0qlR97fu3buqfPlybDAACDsARJ292rd7Vq+/Ptwl42SxWDR69Dj99ttBNhoAhB0Aos7eqHP24dd/R90PP/6PjQYAYQeAqCPqAICwA0DUEXUACDsA8PSoc8REicuXrxB1AAg7AESdM6POERMl9uzZq6ZPPK1Vq9YQdQAIOwBEnTOizhF76vbs2as+ffsrISFBQ4eNuG/c2RJ1uXPnVmBgIBsZALv5MQQAvCnqHLGnbu/eX9Snb38lJV2XJN26dUtDh42QxWLRE080sSnqMmTIoIED+qlVq5bKkiWzLBaLwsMj9P4HH2nXrt1sdABs4mOxWCwMA+CZyparSNTdoUP7dnr99eFG99Tt3fuLevfp90/U3cnX11fvjx+rJ55okqqoC8uVS59//pkKFy50z3+fMfMLTZ36qcu2q0MH9/HiAjwUe+wAeEXU/b2nzllRJ/21527Y8JGyyKK9e36xOuq+/PIL5c+f774/0+ulF+Xn66tJk6ewEQJIFfbYAR7MkXvsPC3q3nhjpNFlPizqbGFN1N1p1qwvXRJ37LEDPBeTJwD8R2BgoMdNlDBpz569Lo86SerRo5sGDxrABgmAsANgu6FDhzBRwsVRR9wBIOwA2K1MmdJq26a1R0Sd6TtKuMueOuIOAGEHwIjKlSulyahztz11xB0Awg6A/TESFmZsWYcOHdaSJcuMrl+H9u3SzJ464g4AYQfALhHhEcaWVa5cWX3w/jj5+voaWZ6jLmniznvqiDsAhB0Am23dtk3Xrl0ztrymTRsbiTtH3CbMHS5pQtwBIOwAOExMTKw+/Gii0WXaG3eOmv3qiVFH3AEg7ACkyk8/LdCsWV+6Rdw5aqKEJ0cdcQeAsAOQKpMmT3FI3A15ZZDVP++IiRLeEnV3xl37ds+ywQIg7AA4N+4iI6P01VdfW/Wzrrj3q6dFnSQdOPCblv28nI0VAGEHwHlxFxkZpW7dXtT56Giroo49ddZF3Uu9+hid7AKAsANA3BF1RB0Awg6At8cdUUfUASDsAHhB3BF1RB0Awg6AF8QdUWed69evq9fLfbVy5WqiDoDd/BgCALbEnfTXpTaIOvuirl//Qdq5c5d27twlSXriiSZEHQCbsccOgM1xd689d0Rd6qNOkm7duqVhw0fec88dUQeAsAPg9Lgj6myLur/dK+6IOgCpwaFYAHbHnSQ1adKYqLMj6v4dd5KUO3cYUQcgVXwsFouFYQA8U9lyFd1mXTJnDtLVqwkP/bkO7dul2TtKPCzq7uTr66v06dMrKSnJ6c/loYP7eHEBHopDsQCMsCbq0vJtwlITddJfe+5cEXUACDsAsCrqOPy6iw0BAGEHgKgj6gCAsANA1BF1AAg7ALBX+fLliDqiDgBhB8Ab/PbbQc2ePYeoAwDCDoA3sPbeskQdABB2ANJA3BF1AEDYAfCCuCPqAICwA+AFcZeaqEuXzrq3M6IOAGEHAE6Ou9RE3ahRI/ThB+Pl6+tL1AFI0/wYAgCuiDtJ6tGjm5Go69C+3T//e+iwEbp16xZRByBNYo8dAJfF3b323NkTdU2bNtYH74/7z547og4AYQcATo47e6LufnFH1AFISzgUC8DlcSdJFSqUtzvq7ow7i8WiyR9P0eczPyPqAKQZPhaLxcIwAJ6pbLmKXvNY/P39dfPmTbuj7k43btxQ+vTpibpUOnRwHy8uwENxKBaAWzAddZKIOgCEHQC4o9RGnUlEHQDCDgCIOgAg7ACAqAMAwg6AF6lfvx5RBwCEHQBvsGHDxlTdW5aoA0DYAYAbs/beskQdABB2AIg7og4AYQcA3hR3RB0Awg4AvCDuiDoAhB0AeEHcEXUACDsA8IK4I+oAEHYA4AVxR9QBIOwAwAvijqgDQNgBgBfEHVEHgLADAC+IO6IOAGEHAB4Sd59/Puu+/56UlETUASDsAMBTfDzlE/XrN1DR0TF3/fc9e/aqdZv2RB0Ar+djsVgsDAPgmcqWq8gg3EeBAgUUlitUEceOKT7+IgOSCocO7mMQAA/lxxAA8EanT5/W6dOnGQgAaQqHYgEAAAg7AAAAEHYAAAAg7AAAAEDYAQAAEHYA3FOmTJkYBLBNASDsAG8QEhLMIIBtCgBhB3iD0JAQBgFsUwAIO8AbhISGMghgmwJA2AHeoEzpUgwC2KYAEHaAN6jfoB6DALYpAIQd4A3y58un4sWLMRAwonjxYsqfLx8DARB2AFylYcMGDALYlgAQdoA36PhcBwUGBjIQsEtgYKA6PteBgQAIOwCulCNHdnXr2pmBgF26de2sHDmyMxCAh/OxWCwWhgHwbElJSXryqea6cCGOwUCqBQfn1IrlSxUQEMBgAB6OPXaAFwgICNCoUSPl4+PDYCB13+59fDRq1EiiDiDsALiTRg0bqE/vXgwEUqVP715qxKQJgLAD4H569+6lpk0bMxCwStOmjdWbLwMAYQfAfY0d8x5xB6uibuyY9xgIwMsweQLwUtOnz9C06TPESxx3ven7+KhP717sqQMIOwCeZu269Ro9eiyzZSHpr9mvo0aN5Jw6gLAD4KmSkpI0Z85X+nLOV0pMTGRA0qDAwEB169pZXbt2ZvYrQNgB8Abx8Rf17bffad36DQoPj2BA0oDixYupYcMG6vhcBy4+DBB2ALxVZFSUNqzfqMO//6HYmBjFxMYqJiaWPXoeKjAwUKGhIQoNCVFIaKjKlC6l+g3qKX++fAwOQNgBAADAE3G5EwAAAMIOAAAAhB0AAAAIOwAAABB2AAAAhB0AAAAIOwAAABB2AAAAIOwAAAAIOwAAABB2AAAAIOwAAABA2AEAAICwAwAAIOwAAABA2AEAAICwAwAAAGEHAABA2AEAAICwAwAAAGEHAAAAwg4AAICwAwAAAGEHAAAAwg4AAACEHQAAAAg7AAAAwg4AAACEHQAAAAg7AAAAEHYAAACEHQAAAAg7AAAAEHYAAAAg7AAAAAg7hgAAAICwAwAAAGEHAAAAwg4AAACEHQAAAGEHAAAAwg4AAACEHQAAAAg7AAAAwg4AAAAeyo8hgDtKSUnR+vUbtG79Rh0+fFgxMbGSpNDQEJUpU0YNG9RTgwb15efHJgxY4+rVBB04cEAnTpzUqVOnder0aUVHRysxMfH//y9Jfn5+ypQpUJkyBSlTpkCFhoaoSOEiKlq0iIoUKazixYspICCAwcRd79W//XZQu3fvUWTUGV26dFEXL17SpUuXdenSRSUlXVdQUJCyZMmiLFkyK2uWLMqSJYsKFiqoUiVLqlSpEsqdOzcDaZCPxWKxMAxwJ+vWbdCECZN0OjLygT9XIH9+DRkyWA0b1mfQgH+xWCzatWu3Nm/eoj17f9GRI0d1+/Ztu5bp7++v8uXLqUaN6qpRvZrKlCmtdOk48JPWnD59WmvXrteuXbv16779SkpKsmt5WbNmUcmSJVWmdCnVrlNblStVZLsi7OAtH0STJn2s2V/OTdXvde/WRYMHD5SPjw+DiDTvyJGjWrxkqVasWKXY2FiH/q3s2bPrySebqmWL5ipTprTD/k7nLt3166/7jCzrxx++VenSpZz2fPzxx596tt1zRpZVqVJFfTV3tsu2rT//PKLPv5ilNWvW2f0l4UGyZcumevXqqFHDBqpevZoyZMjAC5uwgyeaMGGyvpwz16bf7d6ti155ZRCDiDRr2/Ydmj3rS+3avcclf79o0aJq2bK5unfrYnzZNWrW0ZUrV40s67nn2uv1kcOdNi5jx72vb7/93siysmbNom1bNzn9uf3tt4OaNn2Gtm7d5vS/HRgYoHp16+qFF55XuXJleaETdvAU69Zt0MBBr9i1jI8nT+SwLNKc7Tt2auLEyfrzzyNusT6HDu4zuryYmFg1aNjE2PKyZs2qjRvWyN/f3+FjkZKSonr1G+vSpUvGlrl+3WqFhoY47fmcMeNzfTrtM4fuobNW5cqV1K1rZ9WrV5cX/gNwEBsul5KSogkTJtm9nAkTJiklJYUBRZoQGRWlAQNf0Usv9XabqHOEiGPHjC7v8uXLWr9+o1PWfcPGTUajzhHj8aBxevnlvpr6yTS3iDpJ+uWXX9Wv/yA1b/GM5i9YyJsAYQd3tX79hodOlLDG6chIrV+/gQGF15sz9yu1bNkmTWzvEeERxpe5cNFip6z7Igf8HUeMx3/+RsQxtW3bQVu3bXfLbeLEiZPas2cvbwSEHdzVOoPfntc56Zs44AoXLlzQS7366KOPJunGjRtp4jGHR5gPmR07djp8YklcXJy2bdvhEeNx93rHq3ef/jp3/rzbbhN+fn7q2+dl3hAIO7irw4cPu+WyAHeyb99+tW7TXtu370hTjzsi3Pyhx1u3bmnx4qUOXe+ly352yKkhjhiPv924cUP9BwzSuXPn3HqbaNWyhfLnz8+bAmEHd/X3xYfdbVmAu1i9eo1e7Pmy4uPj09xjP3bcMSGzaPESh673okVLPGo8JOn119/Ub78ddOvtwd/fXy+/3JM3BcIOADzTvK+/1ZBXhyk5OTnNPfYzZ84qMTHJIcs+efKU9u0/4JBlHzp8WBERjgmwxMQknTlz1vhyV61aoxUrV7n9NtGuXVuFhYXxxkDYwZ2ZnLrvzMsAAI72w4//0/vvf6i0elUqR59PtmihYyZRLF601KPG5datW5oy9VO33x4CAgL0Us8evDEQdnB3ZcqUcctlAa70888rNHr0uDQ9Bo6eAbpy1Wpdv37d6DJv3ryp5StWeNS4LFiwSKdOnXL77aHjc+2VM2dO3hwIO7i7hg3queWyAFfZtWu3Xh/1ptL69ePDIxx7zbZr165pzdp1Rpe5fv1GXb58xWPG5fr165o2fYbbbwtBQUHq3r0rbw6EHTxBgwb1VcDADKcC+fOrQQPuPAHPFhMTq9eGjuBi25IiIhx/zTbTh2MdPSnD9Lhs2LDR4Zd+MaFz507KmjUrbxBW8GMI4PKN0M9PQ4YMtvuWYkOGDJafH5s0PFdKSoqGDBmaJme//tutW7d04sRJh/+d3Xv26syZs8qbN4/dy4qNjXXK5WhOnDipW7duydfX1+5lbdq8xaHrmjNnDuXNm1f58uZVUOYgxcZeUGxsrE6ePKWEhASrlpE1a1Z16dyJNwjCDp6kYcP66t6ti2Z/Odem3+/erQv3iYXHmzHzC+3bv5+BkHT6dKRTLsJssVi0eMlS9endy+5lLV36s27duuXwdb5x44ZOn45U4cKF7FrO7du3tXWr+btLpEuXTk80baKePXuoePFi9w33X/ft1+ZNW7Rq9RqdPXv/mb49undVpkyZeFFYO/4MAdzF4MED1b1bF5uibvDggQwgPNqJEyf1xRezGYj/54zDsH9bbOjwqTMOw5ocn98OHjR+L9vChQtp8aL5+uCDcfeNOkny9fVV1SqVNWTIIK1YvkRjRr+rggUL/ufngoNzqmPHDrwgUoE9dnAbPj4+euWVQSpfobwmTpj80PvHFsifX0OGDGZPHbzCO++O1s2bN53294KCglSrVg2VKllSwcHBCg7OqeCQYPn5+unatWu6eOmSjh8/oaNHj2rHjl26cOGCU8fD0RMn7nTmzFnt3r1Hjz1W1eZlHDx4SMePn3Dq+DRu3MiuZZi+5VlwcE7NnTNbOXJkT9Xv+fr6qmXL5mre/GnNn79QH340UYmJiZKkni/2UMaMGXmDIOzgyRo1bKB6deto/foNWrd+ow4fPvzPHSVCQ0NUpkwZNWxQTw0a1OecOniFFStWau/eXxz+dwICAtSyRXM1aFhfj1Wt8tDXT906tf/5/3///Q/NX7BQS5cuc9hFg+/kjJvd32nhosV2hd3CRYudur4mxufsWbO3Dhs4oH+qo+5O6dKl07PPtlH16tU0YsQonT9/Xu3ateUNIrU7SSxpfT49ALiQxWJRi5atHTpRwNfXV61bt1LfPi8rODjYrmVdvZqgGTM/1zfffHfPPYyHDu4zss7NWzzjlMkTf8uYMaM2bVxr07lcN27cUL36jXTlylWnrW/hwoW0dMlCu5bxcu9+2rp1m5mY8PHRrp1bFRgYaGR5t2/f1okTJ1W0aBHeJFIbyAwBALjOzz+vcGjAVHz0US1a+JPeenOU3VEnSZkzB+nVIYO1aOFPKlvWMRcEv3nzpk6fjnTq83D9+nWtXLnapt9dt36DU6NO+mtyib2H7k3Ovs6ePbuxqJP+2ntH1BF2AOBxZsz83GHLbtmiuWbPnmn37Ml7KViwgL6eN0cvdHre+LKPnzjhlNml/2br4VRH3ZrsQW7duqXjJ+w7py8uLs7Y+ly9epVrL7oJTlAC4JHi4uJ04MBB/f7HH4qKitLZM2cVHROjxMQkXb9+XcnJycqQIYMyZsyowMAA5QoNVZ68eZQvXz6VLlVK5cuXNbIHyx679+x12N66V14ZZNMs81R9gPj5adiwVxUWlksfTZhk7E4ZEeHHXPJ87N9/QCdPnlKhQgWt/p3o6Bjt2LnLJesbEX5MJR55xObfv3jxkrF1uXnzpg4f/l0VKpTnzYmwcx+RUVF2LyMkONiqGTxXryZo8+YtOnLkiGIvXPjroo0xsUpMTFRgpkzKnDlI+fLlVfFixVS2bBlVrlzJ+ESB06dPa/OWrTpy5KjCwyMUGxurhIRrSk5OVubMmZUtW1Zlz5ZNJUqUUOUqlVS5UkWFhISwofxLSkqKDh/+Xfv3H9Dx4ycUGRmps+fO6dq1RCUmJiolJUWZMgUqU6YgZcuWVYULF1axYkVVqmQJVa1axaNmfF26dEmbNm3RocOHdfRouM6ePadr1xKUkHBNt2/fVsaMGRUaEqLly81f9sFisejXX/dp7dr12rBxo6Kizjz0d5KSkpSUlKSLFy/qzJmz+nXf/rv+PV++vKpXr64aNKivypUqGrnga2osXLjIIcvt2bOHw6PuTl26vKCMARn13ntjjSwvPCLCZdv4wkWLNXjQAKt/fsnSpbp9+7ZL1tXecQoMDDR6rcAPP5qoeV99KR8fHz4YXIjJE3coW66i3cv4ZOpk1atX974fiitXrta69Ru0Z8/eVO22zpw5s+rWra0XOj2vMmVK27x+169f1/z5C/Xj/+br2LHUfyt+rGoVde3aRXXq1HLL8Td14vbDJCQkaP2GjVq9ao127Nyl5ORkm5aTIUMGVa1aRU2aNNLTTz2pDBkypP45ebym3Y/n9ZHD1bJl8/v++9at2zRn7jzt2bPXqkNkJp+H5ORkLViwSLO/nKtz58457DnNHRamLl1fUJvWrRUQ4PjYvnbtmurWa2T8JvS1atXU9GlTXfLh+smn09Wvb2+7l9Ov30Bt3LTZJZ8DoaGhWrtmhdKls+5MpWbNW+nkyVMuWdd6devok08+tvn3W7Zso2PHjxtdp8aNGmr8+DE2vZfBDPbYOUFycrLmfvW1Zs36UteuXbNpGVevXtWyZcu1bNlyVav2uEYMH5rqE0u///5HfTrtM128eNHmx7J7z17t3rNXxYoV1bixo1WqVMk09VxeunRJc+bO07fffv/PdZbs3Ta2bt2mrVu3acKEyWrTupVeeWVQqpZhYj3u9yXj99//0LvvjdGhQ4edPtYJCQn6/vsfNe/rbxQX5/hbbJ07f17jx3+o6dNnqmPHDnq+Ywdly5bNYX9v06bNxqMub948+uD9cS7bY2Ii6iTX7rGLiYnRtm3bVbv2w7+87j9wwGVRJ0kRx+w7ZJ0jZw7jYbdm7Toda3dcw4a9ppo1qhMALsDkCQeyWCxatGiJnnq6haZM+cTmqPu3nTt3qe2zHfTZZzOtOqfl3Llz6tK1h0aPGWdX1N31hhJxTJ1e6KoFDjqU5I5BN2nyFDVp+rS++GK2kZj6t8uXL9t8SzVHbLufTvtMHZ/v7PSos1gs+uKL2Wrc5ClN/niqU6Lu38/D9Okz1LjJU/p02mcOO4l/567dxpc5cEA/ZcmS2aNfa0lJScavr5ZaCxdZdyrBokVLXLqeZ86cVVKS7dcUzJkzh0PW6/jxE+rVq486d+mulatWM6nCydhj5yDXrl3TsGEjHXY44ebNm/rk0+k6/Psf+vCDcfc9T+vQ4cPq12+gLlyIM74OycnJevPNdxQXF6eeL/bw2ufy62++1ZQpnzjloqzuIDk5WcOHv641a9e5YG9JrIYNH6k9e/a6RWBMnz5D27fv0AfvjzNyk/i7v6CZDbvixYvpySef8Pjt79ix43L1GUIbNmzUlStXlCVLlge+Tmy9PIrJL0HHjh23+bIzuXLlcuj6/frrPv366z5lyZJZ9erWVaNGDVW9ejWnnOqQlrHHzgEiIyPVsWNnp5wjsmHDRvV4sZeSkv57SGff/gPq1q2nQ6LuTlOnTjN2kUt323Pw2mvDNX78h2km6m7evKmXe/dzSdRt3LRZrdu0c4uou9OBA7+pTdv2Wr58hbFlRkWdeeBNz23Rr28frzhpPTw8wi1eBz///ODne+3a9UpISPDo8apdq6ZT1vHKlatasnSZBgwcrFq166lvvwH66acFio2NJRgIO/e3fcdOdXiuk/HzFh72wTP4lVfvOmR0/Phx9es3wK7d9Na6ffu2hg4b4dAT253txImT6vDcC1qxclWa2XYtFouGDXPN3rIPP5qofv0GGr8huSkJCQkaOmyk3n7nPSN7k/48csTo+oWF5fKaeya78vy6Oz3smnaLFi/x+PGqWrWKsmbN6tT1TU5O1qZNW/T2O++pQcOm6tK1hxYvXnrPnRMg7NzCt99+r8uXrzj9727duk0TJk6W9NfJ9H37DXTqely5clUzZnzhFc/hnr2//BXnx46lqW135swvtHrNWqf/3UmTPtbcufM8Yox++mmBxo573+7lnDR87TprTvT3FBER7vG6+/33P3T0aPg9/+18dLR2OeAcSVscs2O8fH19Vb9+XZd+mfzll1/1+qg3VbdeQ7351js6dPiwQNjh/82b94127tylsePeV2RklNP//uIlS3U+Otqjx/DkyVMaNOgVYxNdPMWB337T9M9mOv3vzp07T7Nmz/Gosfruux80ffoM+7azU2ZnUtatU5uw+xdb7vn6b4vus9du8WL7r11nYv0kKdzO8Wr29FNu8bwnJiZqwYJF6tChk/r2G6A//viTD3XCDhaLRYNfec1lM7Vu3rypL91kVqctLl26pD59+rtkj6urLViwyOkz15YsXaaPJkzyyPH6dNpn+v6HH23+/dOnThtbl/Tp06tatce9Yju8cuWqYmJi7F5OWFguNW/2tN3LWfbzinu+LhYvXmr3slu1aqGwMPsnL8TExNh1n9pq1R5XgwbudRh/06Ytate+owYPftXIjQMIO3i0q1evuvTvr3XBSfemonTAgME6HRnJRuQE+/Yf0JtvviNPvj762LHva/fuPTb97kWD5xLmyZPbo+5e8iARhs6vK1SokNq0ecbu5cTHx2vTpi13b7v79uv0afvDvH37Z1WoUCG3GLeRI4YqMDDA7XZUrFm7Tm3atNf8BQt50yTs4CrR0TE6ZXBvhLNMmjzlP7ebgmPcvn1bo0eP9fhrW92+fVtjxr5v03XuTF4HMWfOnF6zbZiaOFGoYEGVKlVSpUuXsntZ/z4c+7BJFdZ4/LGqKlK4sAoVLOgW4xYWFqb+/fu55TaRmJiot956VwMGvqLLly/zBkrYwRVs3YvhKpFRUfruux944pzkhx/+pyNHjnrFYzl27Ji+tWHbMXn5HG8Ku4hwM+fXFSr8VzCZ2Gu3Zeu2fy6Sff36da1atcbuZXbo0O6u9XSHcXuhU0d1fuF5t9021q/foK7dXlR8/EWBsHOpgIAAPfXkE+rfr48mTvhAc+fM0tQpk/TK4IF6rGoVp65LyRIlVL9+PTVv/rTKly+noKAgh/ydX3791aOeo0kTP9bNmzfZWJ3g4sWL+uTTaV71mKbZcJs+k5chctTdA1zB1B67wv9/iPPpp55UQIB9hxhTUlK0dNkySdLqNWvtnlgVEhLyzzltpvbYRRiawT906Ktq166t+24f4RHq1u1FxcXFCffHnSccqHbtWhr93tv3/EZdv77UvXtXbd+xU0OGDHXYuXHp0qVTp+ef0wsvPK/cuXP/598PHTqsDz74yOhhyNgYz7no5L79Bxx6iY+SJUuoWrXHFRaWSzlz5NCtW7cVHx+vyMgo7dm7120u7eAsH0/5xCGTU/z9/VWjRjXVrl1LFR99VMHBwcqaNYsuX76iCxcuaN/+/dqyZau2b99pPOKvXr2qj6d8orffesPq3/H19TV2KNpRtzxz1Qe3CQX/P5iCgoLUpEljLbbzmnMLFy5R1y6dtdjAxLS2bVvL19f3r7AzdI6dyYs6v/nG68qeLZs+/2K23TN/HeHY8ePq+VJvff/d10qfPj2hQdg5T/Xq1TR1yiT5+T14iGtUr6ZJEz9Uz5d6Gz+RPGPGjJo2beoD9wyWLVtGs2bNVL9+A7Vt+w4jf9eTZpVOcMCszAwZMqh9+2fVtUtnhYaGPPBno6Nj9NP8Bfrf/+brwoULbjlGpUuXUq2aNVWt2mPKnSe3smfLpkyZMik+/qKio6MVHR2tEydOasXKVQ+8REF8/EUjswnv5OPjoxYtmqtP7173vOVXzpw5lDNnDpUo8Yg6tG+nqKgzmv7ZTC1ZstTo623x4qUaOKCfsmfPbtXPBwYGKjk52cjf9pa9F3FxcUbOoUqfPv1d20LbNs/YHXbHjh3TqlVrtNvOi3f7+fnp2bZt/vnfefLkVvr06XXjxg27lnvp0iXFxcUZOyzfv39f1apdSyNGvK6oqDNut60cPRquj6d8otdefYXYuNcOHYbAvAwZMujtt954aNT9rVq1x1WvnvmLRI4d865Vh3v9/f01btwYY9dV8pQTXP/884j27z9gdJmVKlXUiuVLNfS1IQ+NOknKlStUffu8rDWrl2vgwH5uNTOtXLmymj37c/34w7caMKCvHnusqvLny6egoCD5+PgoZ84cKl26lOrXr6fu3bvqfz9+pyVLFuilni/ec3mLFi8xurcsKChIU6dO1pjR71h9H9d8+fJqzOh3NHXqZKOnIty8eVNLl/5s9c+bfJ7j47zjnCNTe53y589/163VKlZ8VEWLFLF7uW+9/a7dXwbq16t71/tCunTplD9/frcav3/G7dEKWjD/R/Xo0c3YZ4NJ8+Z9o717fyE4CDvnaN26VapvGP6C4ZNWa9SoriZNGlv98zlyZNcLnTqaCbsrnhF2pvcetW3TWrNnzbQq6O4V1z1f7KGlSxa5xdh06tRR3307L9XngRYpXFgDBvS9578tXbrMaNR9NXe26tWtY9Pv16tbR3PnzjL6gbXs5+VW/6zJv+ste+zCDZ2WUPgeExJat25l93JN3Bf270kTD1tfV47f3V9AAjV40ACtWb1Cffu87PTbjz3I7du3PfY6mISdB3rqqSdT/TuVKj6qwMBAY+vQ66UXU/07TZs2MfK3Tc74c6RVq9cYW1b9enX11lujrN5Lez+5coW6fFx69uyh4cNeM7rMmJhYY3sU0qVLpwkfva9HHilu13JKPPKIPvpw/F17d+zxxx9/Wn2v21y5chkb27Pnzunq1QR5uohwc9ew+7eWLZvL39/fpY+vcOFCevzxx/7z3wsamkBxzIHn62bJklm9e/fShvWrNWnSR2rcqKEyZMjg8m3m0KHDOnDgN6KDsHOs7Nmzq+KjFVL9e35+fqpUqaKRdciZM4dNyypevJhyh4Wliefp5MlTRq5wL0m5w8L0wQfjjAWCK5UvX079+/UxvtydO3caW1br1q1Us2YNI8uqXbuWWrVqYWRZFovF6kv9FC5U0Nh4pKSkaLuh82NdGnaGZnbea6ZptmzZ1LCha++u0L79s/fZFgoZWb6pGcUPkj59ejVu1FCTJn2kzZvWaczod1WjRvV/JoO4wjfffEd4EHaO9UjxYrZ/ozP0Aq9Vs6bNkVHczr0gnmKPnSdB36l//z52X1LBHfj4+Gj0e28rXTrzbwu/G7rvY2BgoAYOMHsh1UED+xt7/g7//od18WHotf63zZu3eH7YRZi9ht2/tWn9jMseW0BAgFq2aJGq9XXV+FkrU6ZMatmyuWbOmKb161Zr5IhhetSGnRr2WrN2nd2TTwg7PFCRorafpJsvX14j61DMjrgsWKBAmniejoaHG1lOnjx51Lx5M68YkxrVq6mIgZPM7+XE8RNGltOwYX2rZ55aK2fOnKpbt7aRZZ08edLK+DAbdlu2bvPo27OdO3fO7uvDPewLcvXq1VJ97rMpTz/1pDJnvvdkHVPXsrt27ZrOnTvnkseXM2cOdezYQV/Pm6NVK3/WwIH9VMjgXukHuXnzpg4f/p34IOwcJ19e2+MsV5iZ824K2/GhkSdP7jTxPJm67Vn9+nW94hCsZOYq/fcTGWnmRt5NUzEhyBXLtXa7Kle2jN3nY94pPj5eS5f97LHbXrihO05kzZr1gSf4t3bRXrv7HYaV/jpMbGpSgqlxtEfevHnU88UeWrZ0kb75eq6aNXvK6LZ+L/u4HSRh50j2TIAIMHQj7+DgnC5Zf09i6tpMtQyd6+XyN4J06VSrVk2HLf9qgpmT+4sUKeyQ9Ste3MwpCNZewzEgIEDly5U1+himT5/hsfffjTB1x4mHfKl9plVLp58PVr58OZUqVdJhX8bvGsdj7nXB8woVymv8uDFauXKZmjV7ymF/58BvTKAg7BzInnN1TM0ysifOMhqKS3eXYCg08ho6fO5qhQoVdGjUmzrMFhrqmFnDpmYjp+ZxPl7tcaOPITIySgsWLPLQsDMTJA+bYRoaGqLaDvwCcy/3usRJatfb6nEMj3DL5zcsVy6NHzdG0z6d6pD3mZjoWIGwc8uwMxVVgW6wDu4uMTHRyHKCveQG7KVLl3Lo8k2d/3XzpmP2SJm6dVJq7iZRs2Z144/j02nTFRvreR9y5u4R+/BAatu2tdMeV7Zs2fSEFZeRMjVL2hkzY+1Rp04tfTb9E+N7TS9fuSIQdg7j62v7kJqajZguna9L1t+TmLoDgquvjWVKaEiIQ5cfEGDmC0NsbIxD1i/a0KVvUrPX/dEKFVTA0F0H/hYXF6+Bg4YYvx+utVbbcG1Ii8Wi44Ym11gzKaV27VoKcfD2/rfWz7S06n6mpibTHD9+wu0n0VSqVPGB5xzaFHYecrcjwg5waGiYubzFBS+56n9Q5swOXb6pwy9HHXSoKfxohEseZ6tnWhp/LL/9dlCjR49z+jb0/fc/6tXXhqf6906fjjR231xrZpj6+vrqmVYtHT4ePj4+atfuWWPrbY3k5GSdPh3p9u83LQxfScDUERjCDvBgpkIj+ny0V4xHZoP3Tb2X4OBgI8tZs2atQ9Zv9RozdyHJmiVL6sKuZQuHXDdw/oKF+vCjiU7be/PJJ9M0esw4mw5pmzp8mC5dOhUoYN0e0NatWzl8NnutWjWtvoRVgQL5jW0H9o6nqch+kKJFi5p9/3LwF1PCDvAAOXKYuRbazl27vWI8rDlcZA9TJ4dv3rzV+L1R4+LitHnzViPLKlAwddeBDA0NUaNGDR0y5nPnzlP//oOUlOS4W/wlJSXpjTff1mczPrd5GaZO+M+TJ7fV23G+fHnveXsvk6yZNHHn6y93bjN3/bHn1mL79u1Xq2fa6s8/jzh0bDJkSG80rHPmzMGHGmGHtM7UxTM3btjEYFoz3gXNXPg6KSlJkz+eanTdJn881Vj82HISfJ/evRy292jjps16vlMXh3xQr169Rs2at9LChYvtWo4jbyX2II68bmOePHlUp3atVG47hYz8bXv22E2YOFmRkVF6vlMXzZ+/0GHjc/58tNG9yTm9ZBIbYQfY8wFc2Mz10P48ckQ7d+5iQB+ifPlyxpa1aNESbdliZg/bli1btWjREmPrVsqG2cXFihVVkyaNHDb2R4+G69l2z2nEyFE6f/683cs7ffq0Xn65r14ZMlTR0fZPOjF1Ud3UTkBo1LCBsmXL5pAxb/dsm1THuqkJFLaO5/r1G7V//wFJfx2Ofevtd/X662/q+vXrxsdn3foNRpdH2BF2eABPvi1RajxaobyxZU2aPIUN5yEqVapobAaxxWLRq68N19Gj9t0W7sjRo3r1teHGtnkfHx9Vs/HwXp/eLzv0wrkWi0VLl/6sp5u10tvvvKdt27an6mLGV65c0fwFC9XjxV5q1vwZbd223ch6paSk6NSpU2bCLpV77Pz9/dWi+dPGx9rf39+mvYGmJlCcOnUq1Reqvn37tiZ//N/3scVLlqrVM221YuUqY+OTkJCgWbNmGx1zey7K7438GAKkRZUrV5K/v7+Ry0IcPvy7pkz5VAMG9GVg7yMgIEAVKpTX3r2/GFnetWvX1LlLd40fP0b16tZJ9e9v3LhJw0eMMnbhZEkqWbKEzfexLVq0iF544XnNmfOVQ5+H5ORk/fTTAv300wIFBQWpdq2aKlWqpIJDghUcHKyQ4GAl30hWTHSsoqOjdT46WuHhEdqxY6dDLqFy4sRJY3fLsOX0ijZtWuured8YfUxNmjS2aTswdXpISkqKTpw4qeKpuGf4woWL73vJmaioM3rtteGaO3eehgwZrKpVKtu1bkOGDNWFC2bPk3300Qq8yRJ2SOsyZsyoqlWraPv2HUaWN/PzL5Q/fz49Y+flK06cOGns9kLupnmzp42F3d/f/Pv3H6QWLZqrT+9eVt3gPSrqjKZ/NlNLliw1vne62dP23TKpb5/eWrVqjdNu5J6QkKAVK1cZ3RuTWhEGL6hry6HMokWL6NFHK/xzCNKE1EyacETYSX+dt2ht2CUnJ+vTaZ899OcOHTqsbt1eVM0a1dW8eTPVq1dHQamYTX/+/HkNG/66fvnlV6PbkL+/v2rWqC4QdrgPb7mhvTVat25lLOwk6Y0339aJEyc0aNAAmy5dMG/eN5r88VT9snenV473E0800bjxHxg9Z8disWjx4iVavnyFatSoptq1a6lixUcVnDNYWbNm0eXLV3Qh7oL27duvLVu2avt2x+x58vf3V8uWze1aRkBARo0aNUJ9+w5IM69BU7cSCwgIUFiuXDb9bts2rY2FXYkSj6iijXuPwsLClDFjRiOvj4jwCOmJpla/78Sk4gLd27bv0LbtO+Tv768aNaqpUcOGKlasqHLlyqWQkOC7PkPi4y/q4KFDWr1qjVasXKUbN24Y34aqVKmcZu5xTtgBD9GoYQNlz55dFy9eNLbM2V/O1abNW9W3Ty81adL4oT+fkpKi5StWavbsOcY+5NxVpkyZ1K5dW3311dfGl33z5k1t2rRFmzZtcclja9miuZET8evWqa1OnTrq66+/TROvwXBT94gtYPus66ZN//rCYeKwfIf27ez6/UIFC+rPI0ecNq6XL1/WrNlzjL3m/Pz8/jnf7cqVq065cLAtp2IQdkhT0srkib/fhF7u1VPjxn9gdLnHjh3TK0OGKleuUNWqWVOPPVZVYWG5lCNHDt26dUvx8fGKjIrSrp27tWPnLqNh6e56v9xLS5Ys06VLl7zmMWXOnFkDBvQztrxXhwzWgQO/6eDBQ16/PZi6hl2hwrYfxgwIyKinn35SP/74k13rEBQUpGbN7DscX7BQASNhZ+24zpj5ha5evWrs+UxJSdF5J1603dfXV/Xr1+ODm7DDg6SlQ7HSX+fD/DR/gcIdcKuq6OgYzV+wUPMXLGTD+ieCgtSvb2+NHjPOax5T374vG7vg9d9fOCZN/FDtOzyvuLh4r90Wrl+/rqgzZ8yEnZ0zStu0fsbusGve/Gm7b1Vo6lp2UWfO6Pr168qY8f73aD537py+//5Hj96G2rR5Rnny5OaN9V+43AnSNF9fX40YPpSBcKJnn21j/JZCrlK8eDE916G98eWGhYVpxmfTUnVyuqc5fvyETbcgu2fY2RlEZcqUVsmSJexaxnMd2rn8cfzt9u3b953l+repU6c55Jw3Z8mUKZP69unNGyphB/zXY49Vtep8OJiL6eHDXvX4vcM+Pj4aOXK4w64/V7JkCX0ydbIyZMjglduB0RmxBmaUtm3T2ubfrVq1iooUKeIWj8Oa8T16NFzLfl7u0dvPiy9241ZihB1wf8OHvabQ0FAGwkmqV6+mIUMGefRjGDbsVbuu6WWNKlUqa8rHExUYGOB124CpO06YCqKnn37qgYcuH8TeSROOCLsHje+kyVOM7S11hbx586jzC514IyXsgPsLDQ3RZ9M/UebMmRkMJ+napbM6derokeves2cPdXreOetes2YNzZ79uXLk8K69E+GG9tgFB+c0csg6c+YgNWncyIa/H6yGDesbeSxBQUHG7qJwv/Hds/cXY7fkc4WsWbNo2qdTvXZPNmEHGPTII8X18ccTjd36Cg83bOirNn2YulKb1s9ooMFZsNYoW6aMvvl6jtE9Oq5m6lBswYLmxqRt29Y2/Y6fn7l5iKYez/3Gd7IH3wIxY8aM+vTTKSpatIhA2AFWeaxqFY0d+16amx3sKj4+Pho/foxqeMiV4598oqneemuUS/52/vz59b8fv1OL5s08/nlPSEgwdlkMUzNJpb/uaZyaO7/4+vrq2bZtjI6Nqcdz/ny0EhIS/vPfRwwfqhIlHvG4bcbPz08TJnygRytw+zDCDrDhw/vTT6Yoa9asDIYTpE+fXjM++1T9+vZ22EQEE3sK3nhjpD78cLxNdxUxJSAgQGPHvqdx40Z79IzZiGMGz68rbHYvZps2z1j9s/Xr11WuXGbPzS1o+NZi/1a2bBn98P03GjSwv92XZ3GWrFmzatLED1W3Tm3eMAk7wDZ16tTS/Pk/cHNpJ/Hx8dHLL7+kWV/McLtJLI88Ulw/fP+N2rd71m3WqXmzp/XzskVq2aK5R+5djjA5caKg2bBr2aK51adjOGKbKGwy7O4zzn5+fnrxxe5a/vNitW3b2m2/UElSzRrVtWjh/7gQMWEH2C8sVy7N+fILde3amcFwkipVKmvB/B/UoEF9l6+Ln5+fOnXqqO+/+9otz+nJmTOnxox5V/PmfelxX0DCjV7qpJDRdcuePbtVEVGoUEFVr17N+NiYfDwPG+eQkBC9/dYbWrTwJzVr9pRbnV+cIUMGjRg+VDNmTFNISAhvjoQdYO7D/dUhgzX/px/UpHEjzr1zgmzZsmnKxxP1vx+/0xNPNHH6oc+goCB17dpZK1cu0/Bhryl9+vRuPV6PVqigr+fN0Zwvv1CtWjVd90UoLJfVX4JM3UrMz89P+fLlNf5YrDkc66g9uPny5TU2GcPacS5cuJDGjxujVSt/Vo/uXV16GkpQUJA6v/C8lixeoOeff443RFteFwwB8HAlSjyiiRM/1PHjxzXz81lasWKVbt26ZfRvlCpVUq2facVg3zEeH334viIHROrLOV9p0aIlDr1SflhYLj3/fEe1e7aNMmXK5HHjVaVKZVWpUlkREce0ZMlS/bx8haKjYxz6N/Ply6tGjRqqUaMGqTqp3dqb1D9M3rx5jc5I/VuN6tWUJ08enT179p7/njFjRrVs2cJhXybz5s2rU6dO2b2s1I5zaGiIBg8eqP79+2rLlq1aumy5Nm3arOTkZIdvvwXy59fzzz+nZ55pqcDAQN4A7eBjSUt3fQcMOXv2nDZu3KTt23do9569SkxMtDkYa9WsoaeeetIjZ6o50+XLl7Vx42Zt2LhR27fvtHnM//1hUqdubdWrW0dVqlR2SCS4isVi0Z69v2jjxk3as2evjhw5avdFaTNnzqyKFR9V5UoVVatWTbbZNCAp6br27t2r7dt3asfOncZuBRcQEKDy5cqqUuVKqlqlsqpWrcIREcIOcA8pKSnav/+Adu3eo7Nnzyk+Pv6v/4uLV1x8vHx9fRUUFKQsmTOrQIH8Kla8mB4pXkxVq1ZRcHAwA2iD27dv69ix4zp46JDCj0bo7LmzOnv2nOLi4nX9epKSkq7r9u3bypAhgwICMipTpiDlDsulsNy5VSB/PpUqVUply5ZRjhzZ08yYXb2aoP379+vEiZM6eeqUTp06rZiYGCUmJioxMUmJiYny9/dXYGCgMmUKVJYsWZQ/fz4VKlhQBQoWUIkSj+iR4sX58CX0dOToEf35xxGdOnVa0dHROnf+vC5ciNP169eVnHxdyck3FBAQoKxZsyhr1qzKkiXLP/9/oYIFValSRZUqVdKtJ20QdgAAAHA5Jk8AAAAQdgAAACDsAAAAQNgBAACAsAMAACDsAAAAQNgBAACAsAMAAABhBwAAQNgBAACAsAMAAABhBwAAAMIOAAAAhB0AAABhBwAAAMIOAAAAhB0AAAAIOwAAAMIOAAAAhB0AAAAIOwAAABB2AAAAhB0AAAAIOwAAABB2AAAAIOwAAABA2AEAABB2AAAAIOwAAABA2AEAAICwAwAAIOwAAABA2AEAAICwAwAAAGEHAABA2DEEAAAAhB0AAAAIOwAAABB2AAAAIOwAAAAIOwAAABB2AAAAIOwAAABA2AEAABB2AAAAIOwAAABA2AEAAICwAwAAAGEHAABA2AEAAICwAwAAAGEHAAAAwg4AAICwAwAAAGEHAAAAwg4AAACEHQAAAGEHAAAAwg4AAACEHQAAAAg7AAAAEHYAAACEHQAAAAg7AAAAEHYAAAAg7AAAAAg7AAAAEHYAAAAg7AAAAEDYAQAAEHYAAAAg7AAAAEDYAQAAgLADAAAAYQcAAEDYAQAAgLADAAAAYQcAAADCDgAAgLADAAAAYQcAAADCDgAAAIQdAAAACDsAAADCDgAAAIQdAAAACDsAAAAQdgAAAIQdAAAACDsAAAAQdgAAACDsAAAACDsAAAAQdgAAACDsAAAAQNgBAACAsAMAACDsAAAAQNgBAACAsAMAAABhBwAAQNgBAACAsAMAAABhBwAAAMIOAACAsAMAAABhBwAAAMIOAAAAhB0AAAAIOwAAAMIOAAAAhB0AAAAIOwAAABB2AAAAhB0AAAAIOwAAABB2AAAAIOwAAABA2AEAABB2AAAAIOwAAABA2AEAAICwAwAA8Hr/B6ayZs3NOm0fAAAAAElFTkSuQmCC;" parent="1" vertex="1">
          <mxGeometry x="666.71" y="110" width="151.2" height="120" as="geometry" />
        </mxCell>
        <mxCell id="efpffI7OLtBo6xo70BxB-2" value="APIサーバー" style="text;html=1;align=center;verticalAlign=middle;resizable=0;points=[];autosize=1;strokeColor=none;fillColor=none;fontStyle=1;fontSize=19;" parent="1" vertex="1">
          <mxGeometry x="677.3100000000001" y="70" width="130" height="40" as="geometry" />
        </mxCell>
        <mxCell id="efpffI7OLtBo6xo70BxB-3" value="APIサーバー" style="text;html=1;align=center;verticalAlign=middle;resizable=0;points=[];autosize=1;strokeColor=none;fillColor=none;fontStyle=1;fontSize=19;" parent="1" vertex="1">
          <mxGeometry x="677.3100000000001" y="320" width="130" height="40" as="geometry" />
        </mxCell>
        <mxCell id="efpffI7OLtBo6xo70BxB-4" value="" style="shape=image;verticalLabelPosition=bottom;labelBackgroundColor=default;verticalAlign=top;aspect=fixed;imageAspect=0;image=data:image/jpeg,/9j/4QAYRXhpZgAASUkqAAgAAAAAAAAAAAAAAP/sABFEdWNreQABAAQAAABkAAD/4QMvaHR0cDovL25zLmFkb2JlLmNvbS94YXAvMS4wLwA8P3hwYWNrZXQgYmVnaW49Iu+7vyIgaWQ9Ilc1TTBNcENlaGlIenJlU3pOVGN6a2M5ZCI/PiA8eDp4bXBtZXRhIHhtbG5zOng9ImFkb2JlOm5zOm1ldGEvIiB4OnhtcHRrPSJBZG9iZSBYTVAgQ29yZSA3LjEtYzAwMCA3OS5kYWJhY2JiLCAyMDIxLzA0LzE0LTAwOjM5OjQ0ICAgICAgICAiPiA8cmRmOlJERiB4bWxuczpyZGY9Imh0dHA6Ly93d3cudzMub3JnLzE5OTkvMDIvMjItcmRmLXN5bnRheC1ucyMiPiA8cmRmOkRlc2NyaXB0aW9uIHJkZjphYm91dD0iIiB4bWxuczp4bXA9Imh0dHA6Ly9ucy5hZG9iZS5jb20veGFwLzEuMC8iIHhtbG5zOnhtcE1NPSJodHRwOi8vbnMuYWRvYmUuY29tL3hhcC8xLjAvbW0vIiB4bWxuczpzdFJlZj0iaHR0cDovL25zLmFkb2JlLmNvbS94YXAvMS4wL3NUeXBlL1Jlc291cmNlUmVmIyIgeG1wOkNyZWF0b3JUb29sPSJBZG9iZSBQaG90b3Nob3AgMjIuNSAoTWFjaW50b3NoKSIgeG1wTU06SW5zdGFuY2VJRD0ieG1wLmlpZDoxQ0EyM0Y3OTE2RjAxMUVDQjkzMjk3NTlCRjlCNzkxMCIgeG1wTU06RG9jdW1lbnRJRD0ieG1wLmRpZDoxQ0EyM0Y3QTE2RjAxMUVDQjkzMjk3NTlCRjlCNzkxMCI+IDx4bXBNTTpEZXJpdmVkRnJvbSBzdFJlZjppbnN0YW5jZUlEPSJ4bXAuaWlkOjFDQTIzRjc3MTZGMDExRUNCOTMyOTc1OUJGOUI3OTEwIiBzdFJlZjpkb2N1bWVudElEPSJ4bXAuZGlkOjFDQTIzRjc4MTZGMDExRUNCOTMyOTc1OUJGOUI3OTEwIi8+IDwvcmRmOkRlc2NyaXB0aW9uPiA8L3JkZjpSREY+IDwveDp4bXBtZXRhPiA8P3hwYWNrZXQgZW5kPSJyIj8+/+4ADkFkb2JlAGTAAAAAAf/bAIQAAQEBAQEBAQEBAQEBAQEBAQEBAQEBAQEBAQEBAQEBAQEBAQEBAQEBAQEBAQICAgICAgICAgICAwMDAwMDAwMDAwEBAQEBAQECAQECAgIBAgIDAwMDAwMDAwMDAwMDAwMDAwMDAwMDAwMDAwMDAwMDAwMDAwMDAwMDAwMDAwMDAwMD/8AAEQgCFQMgAwERAAIRAQMRAf/EAOUAAQABBAIDAQAAAAAAAAAAAAAKBwgJCwUGAQIEAwEBAAMAAwEBAAAAAAAAAAAAAAUGBwMECAIBEAAABgIBAgMDBAoMBwkLDQAAAQIDBAUGBwgRCSESEzEUCkFRIhXwgTIjFrYXdzg5YXGRwUJUtHWW1rd4sXIkNTY3uKGCsjOzNLV2GNFSUybGJ5fXKFgZ8ZKiwnOjJUWlhqZHKREBAAECAwQGBQgHBgUEAwAAAAECAxEEBSExEgZBUWFxgQeRIjJyE6GxQmKyFDU2wVLCIzNzdPDRgkMkNOFTYxUlorNkFpKDRP/aAAwDAQACEQMRAD8An8AAAAAAAAAAAAAAAAAAAAAAAAAAAAAAAAAAAAAAAAAAAAAAAAAAAAAAAAAAAAAAAAAAAAAAAAAAAAAAAAAAAAAAAAAAAAAAAAAAAAAAAAAAAAAAAAAAAAAAAAAAAAAAAAAAAAAAAAAAAAAAAAAAAAAAAAAAAAAAAAAAAAAAAAAAAAAAAAAAAAAAAAAAAAAAAAAAAAAAAAAAAAAAAAAAAAAAAAAAAAAAAAAAAAAAAAAAAAAAAAAAAAAAAAAAAAAAAAAAAAAAAAAAAAAAAAAAAAAAAAAAAAAAAAAAAAAAAAAAAAAAAAAAAAAAAAAAAAAAAAAAAAAAAAAAAAAAAAAAAAAAAAAAAAAAAAAAAAAAAAAAAAAAAAAAAAAAAAAAAAAAAAAAAAAAAAAAAAAAAAAAAAAAAAAAAAAAAAAAAAAAAAAAAAAAAAAAAAAAAAAAAAAAAAAAAAAAAAAAAAAAAAAAAAAAAAAAAAAAAAAAAAAAAAAAAAAAAAAAAAAAAAAAAAAAAAAAAAAAAAAAAAAAAAAAAAAAAAAAAAAAAAAAAAAAAAAAAAAAAAAAAAAAAAAAAAAAAAAAAAAAAAAAAAAAAAAAAAAAAAAAAAAAAAAAAAAAAAAAAAAAAAAAAAAAAAAAAAAAAAAAAAAAAAAAAAAAAAAAAAAAAAAAAAAAAAAAAAAAAAAAAAAAAAAAAAAAAAAAAAAAAAAAAAAAAAAAAAAAAAAAAAAAAAAAAAAAAAAAAAAAAAH+x7QD90AAAAAAAAAAAAAAAAAAAAAAAAAAAAAAAAAAAAAAAAAAAAAAAAAAAAAAAAAAAAAAAAAAAAAAAAAAAAAAAAAAAAAAAAAAAAAAAAAAAAAAAAAAAAAAAAAAAAAAAAAAAAAAAAAAAFK963VtjWkdx5FQznau9oNV7CuqWyjkg3662qsRt51dOZJ1KmzdiTGEOJ8xGnqkupdAGrh4Y903nXw6ypWytZb8zLK15lKZyXYmC7gvb7ZOv9h21h5ZlpPu6e9s3ZVNb2Drq/8A8QqH4MxklElKjbL0jCbZ29PiG+I3MI6XX26Fx+KO+pq4te1jefXsV7WOaWjqUN9MC2c+3X1yX5kjzG1XXDdfM+mhtpUlfmMgkBtuIdQhxtaHG3EJcbcQpKkOIURKStCkmaVIUkyMjLwMjAe/UAAAAAAAAAAAAAAAAAAAAAAAAAAAAAAAAAAAAAAAAAAAAAAAAAAAAAAAAAAAAAAAAAAAAAAAAAAAAAAAAAAAAAAAAAAAAAAAAAAAAAAAAAAAAAAAAAAAAAAAAAAAAAAAFF+SH6O++vzL7S/Ee9Aae7Hf8wUv81QP5K0A5V1pp9tbL7TbzLqTQ408hLjS0n7UrbWSkrSfzGRgMxfb+733NLgOVTh0XInOQOg682o56W2xd2Mxygq0LI3GNY588c/IMLcbQpZsxHvfqjzq+lFSZ+okJzfbz7tfEnuPVTtfqLI7DENw0lIi7zLQ+fssVWf0MFtUWLOt6lUd1+nzPFo1lKSx9Y1rzpI8yDkNR1OtoMMnwAAAAAAAAAAAAAAAAAAAAAAAAAAAAAAAAAAAAAAAAAAAAAAAAAAAAAAAAAAAAAAAAAAAAAAAAAAAAAAAAAAAAAAAAAAAAAAAAAAAAAAAAAAAAAAAAAAAAAAAAAAAAAAovyQ/R331+ZfaX4j3oDT3Y7/mCl/mqB/JWgHMgADKR2T7WyqO61wmkVM+VWvzNm39LMdhuqYVLprjWubx7WqkmgyN+BYNJT6rSuqFKQhXTzISZBtGAAAAAAAAAAAAAAAAAAAAAAAAAAAAAAAAAAAAAAAAAAAAAAAAAAAAAAAAAAAAAAAAAAAAAAAAAAAAAAAAAAAAAAAAAAAAAAAAAAAAAAAAAAAAAAAAAAAAAAAAAAAAAABRfkh+jvvr8y+0vxHvQGnux3/MFL/NUD+StAOZAAGTjswfrVODv54Jv9nmcANpQAAAAAAAAAAAAAAAAAAAAAAAAAAAAAAAAAAAAAAAAAAAAAAAAAAAAAAAAAAAAAAAAAAAAAAAAAAAAAAAAAAAAAAAAAAAAAAAAAAAAAAAAAAAAAAAAAAAAAAAAAAAAAAKL8kP0d99fmX2l+I96A092O/5gpf5qgfyVoBzIAAycdmD9apwd/PBN/s8zgBtKAAAAAAAAAAAAAAAAAAAAAAAAAAAAAAAAAAAAAAAAAAAAAAAAAAAAAAAAAAAAAAAAAAAAAAAAAAAAAAAAAAAAAAAAAAAAAAAAAAAAAAAAAAAAAAAAAAAAAAAAAAAAAABRfkh+jvvr8y+0vxHvQGnux3/ADBS/wA1QP5K0A5kAAZOOzB+tU4O/ngm/wBnmcANpQAAAAAAAAAAAAAAAAAAAAAAAAAAAAAAAAAAAAAAAAAAAAAAAAAAAAAAAAAAAAAAAAAAAAAAAAAAAAAAAAAAAAAAAAAAAAAAAAAAAAAAAAAAAAAAAAAAAAAAAAAAAAAAKL8kP0d99fmX2l+I96A092O/5gpf5qgfyVoBzIAAycdmD9apwd/PBN/s8zgBtKAAAAAAAAAAAAAAAAAAAAAAAAAAAAAAAAAAAAAAAAAAAAAAAAAAAAAAAAAAAAAAAAAAAAAAAAAAAAAAAAAAAAAHTNhbGwHUuHXuw9n5njGvsFxiE5Y5Dl2Y3dfj2PU8NovF6fa2j8aIwS1GSUJNXmcWZJSRqMiMIw3Jf4qXjjrjYiMT426NyzkphtZMSze7Rk5U1qvHLhDbppklgFbdY1c393FNvxanzY9ew6ovvSHWlJdAZeuBXdp4b9wqrZhahz1GM7ajQSl5FojYaomPbOp/I0a5MmrrlSHYOZ0Tam3PLYVD0tnyI6ukyrqhIZMuoAAAAAAAAAAAAAA9evzF9nyj82jHnyA7mXG/RFyvFWrGz2ll0V4mbWn12dbYwqJRdDWzcZFMnxKVmcRGX+TMuvvpP/jEoLxFN1XnrQ9MvTlqKpzGYifWi1hMU+9VMxTj2RMz1xCl6xz3oek3fu9NU5jMxO2m1hMU99UzFOPZEzMdMQq1xq5s8feVUSS1rLMG2cwq0l9f62ydLNHntIoidNbjlI7IdTawCSypRS4DsqKaehm4Rn0E3pWu6brFuKspc/eYYzROyqPDp74xhL6NzJpOu0Y5K5+/iNturZXHh0x20zMdq7MvYJhOvIAAAAAAAAAAAAAfh8/2gGOPm93WuE/b/KPVb62k29sWey1Jq9O6/hlmm05kN5tt1qyl4zAkNIxyoW26hSZds/BjuJUXpqWfgA9OEPde4T8/0yarRG0Uxdi17Tkiy09sSEWFbSjRGkKWuyhY3OkvNZJT+VCjOXUyJzCCQfqKQZdAF23JA/8A2eN9l82l9pfiPedAGnvx3/MFL/NUD+StAOZAAGTjswfrVODv54Jv9nmcANpQAAAAAAADx4/IAx1c6u6dw57e1KSt6bGam7EnxFSca0ngaY2UbYyIjaS6w+WNtS47eO0zpOJP6xt3oEHyn9FxauiDCxPhz8RvwU5RZo1rjPVZJxZzC2mtQ8Sf3PNoW8Dyt2Qs0R4LGw6qY5Q4/dOn06R7b3FtwzJLLryuqSDP5HfZlMMyozzUiNIabfjyGHEPMPsPIJxl9l1tSm3WnW1EpKkmZGR9SMB+wAAAAAAAAAAAAAAAAAAAAAAAAAAAAAAAAAAAAAAAAAAAAAAAAAAAAAAAAAAAAAAAAAAAAD0cWhpCnHFpbbbSpbi1qJKEIQk1KUtavooQki6mZ+BEAj1dxD4iLipxGPIdb6DOByq5AVipNbJqMSuUsajwe3bS+0pvOdjw25kawmwJCEG9V0qZkrp1Q67FV0MwhBczO4Dyx595YWS8mNozsnqIU1yZjGr6FtzHtR4V5jImm8dwiO+5EkTWmUIQuxsVzbJ80Epb3sSkLNPs/f8A8ID7aqzs6G5qMkobSyocix+c1Z0OQ0djMpr2jsWFEpmfUXFa9Gsa2Y0pJGTjLiFeHtASeO3p8TDvjSLlJrPnBTW3IvVzao8CLt+iTXxN6YnCJxKDeyKCv3Cj2tEitmfVxS6+3URdVvSll9IJqHGblpx15ia+j7P427YxXaeJLUyxYu0MxSLnG7B5C1/U+XY1Obi5Bilykm1kcWwjR3T8hmkjT4mFxYAAAAAAAAAAtn5A8tdKcba9TmwcoadyN6Ot+pwSh9K0y+2+ik0LTWIdQmthqNZf5TMXHY6deilH9E6nzLzry/ypb/8AKXo++VRjRZo9a7V3U9EfWqmKe1WeYebtD5at46jej7zMY02qcJuVf4fox9arCO1Ht5OdxXeXID3/AB2nlO6o1pJ9Zn8FMXsHvru6iKUZJLK8qaRFlzULR4KixExop+xaXfAYLrfmPrfMtU2bU/dNMn/LonGuqP8AqXNkz7tPDT18TDNd8wNa1+ZsWp+66dM4cFE41VR9e5smdnRThHXixvyEIb6NoSlCC6mSUl0L6RqUo+he01GZmfziIycYR6uxV7MYYRHUp7bP2uO3dXmuN2dnQ39TJaUxdUk+VVW9ZIaUXuljCsYLrEyK6k0k2tSFl1+j16kLRkrtdrCaJmm5TtpnHCYnsnfj0pGiuu1VF61VNN2mcYmMYmJ64mNzM1xI7zueYb9V4VyirJGxcWbS1Ej7Qx6My1sCsbLyIQ5k1Kj3esy1loiPzPxiizTLqpSX1/daLpHOuYszFjVI+JZ3cce3HvRuq+Se9pOg+YeZy005bWom9Z2RFyn247ao2RVHXhhV3pEuqNx6x3jicPN9T5tQ5xjUwkl7/SzEPOwX1EZqg29e4TdhS2TXlMlxpbTL6enikaLlM7lc/Zi/lLlNy1PTHR2TG+J72tZDUclqdiMzkblNyzPTE7uyqNk0z2TESqaO27oAAAAAAAAAt65J8rOPXEDXUzanI/auK6rw2MbrMWXkEw/rO/sG0JWmmxTHoaJV9lV4950kiJXxpL5+Yj8vTxAQs+4Z8THvHdLl5rLgzT2nHvWLpyK+VufImoMjeWUxfUWg3sWqy99o9VxJLXTyvKVY25JPqhcRw/oBF/uLS2yG6tslyK2tchyXIJjtlf5Ff2Uy6v7qxfUpTsy3ubJ+TY2MpSlH9N5xSi9heADxVWdpQXNRkdBa2lBkePzmrOhyGisZlNfUliwolsz6i4rXo1jWy2lJIycZcQovnASB9JfEf8ysF497K0JvTGcZ5Nv5Pr3IcJwLaeVWbuL55jjuQ1UqlN7YTtPAdh7IroEWWtaHSbgWjq0pJ+Q71U4AjvwIiIEGHBbWp1EOLHiocX5SccSw0lsnHEp+iSlknqfTw6gPrAAGTjswfrVODv54Jv8AZ5nADaUAAAAAPB+w/Hp+yAoTyH5N6E4oa7sNqch9qYjqnCa9LiU2eUWbUaTbzUIJSajGqZr1brKL2QaiJqDXx5Mp0zLytmAhf9wv4m3cO2F3OseBVFYaP16768GdvTMa+HJ3HkcUykMuLwnGnjmUmt4sppxKky5ZTrds0EpCYrnUkhFqvry9yvIbvLsrvLnKcsyae/aZHlGSWs69yK+spLqnn51xdWb8qxsJLjq1KNTriuhmfToA4d1pt9tbLzTbzTqTQ406hLjTiVe1K0LI0LSfzH4AMvPb6713M3t/vUuJ02RnvHj9AWhiXorZ9rNlRaeuNxxTh6xzZZTL3ApTanlrRF6S6h1wy88VJ/fAE6bgF3eOHXcLq4dZrHNk4RuZFeUu/wBBbGfhUmx69bTSVTX8eb9ddZntFHcNXSbUOyCQhPV9uOszbIMopfsn1/ZAAAAAAAAAAAAAAAAAAAAAAAAAAAAAAAAAAAAAAAAAAAAAAAAAAAAAAAAAAAAAAAAAAGM3nt3Z+HHb1qJMbbueIyfbL1euVjuiddrh5Fs63Utk1Q37WuRJbh4ZQvvGglWFs7Fa8ijNlL6i9Mwgx9wfvi8zOfH15hJXTnHrj3YPvNMab1fdz2LLIak1n6DO09hxyr7nMXXGySb0GMmDTecupx3VElwBhpZZZjtIYYabZZbLyttNIShtCfb5UoQSUkXUz9hAP0AAAAAVb0XvvdHGXY1dtrj/ALNy3Uuwq5Tafwhw+yXCVaRGzSZ1WSVbqX6bKaV5KfI5DsY8mOtBmny+ICY728vifMEzT6l1h3CcbgarypRsV8TkPgkGbJ1XeuK9BluXnuItpnXetpC1mtciXGXYVKTMlK91bJXlCWJiGY4nsHGaTNMEyahzLEMkgMWuPZRi9tBvaC7rZKfMxOq7atfkwZ0V0vYttak9SMvaRgOyAAAA8dS+cgHRdh7MwLVGOycr2HlVRilFGJX+V2klLbkp1JdSiV0NBLm2k5zqRJYjtuOq6+CTERrevaPy5katS1zM2stk6fpV1RGM/q0xvrqnoppiap6IRuq6vpmiZSc7qt+3Yy1PTVOGM9VMb6quqmmJnsYROSndJzDJvrDFOPtfIwigWTkZ/YFyw05mNig/Mg3KCrV60HG2XCPql573iV06GkmVeKfL3N/n7qGpzXp/Jlucrk5mYnMXI/fVR127e2m3E9FVfFX0xTTLAOZ/OPOZ6asnyxRNjKzjE3q4/ez7lO2KO+riq6oplh6vbKyurKfdXVjYXFzZvrk2NtazJFhZT5CzM1PS5stx2S+szM+nmUfTr4dBkeVvX8zmKszma67uZrqmaq65mqqqeuapxmf7YMlm7dzF6b9+qqu/XONVVUzVVM9szjM+l1aR7T/aIWzIb4S1jf6HW5f3X2v3lC2ZTclbO/wdUskNuNONupJbbhONuIP2KbX4KL2l0Px9vziw2Z2wkbcRM4TumFKzS5AlPRFqNRNn0bcP2usq8WnPZ0NRpLx/ZIx36a4www2uPbTVwTvVn05ufZujMuYznUuaXWD5Ggm0yJFVII4NvHQtC/csgpnydq76AtSEkpqU04XQvDymRGXaymczeRvRmMlXVbu9OG6e+N0x1xOKS0/Uc5pt+MzkbtVu/wBOG6eyad1Ud+KRJxQ7xWC539WYZyYrYWtMrcJiEzsaoTIc1zcyPKhspFyw6uRYYU++4XmWpxT9ehSj6vNIIhomj87ZfMcNjVIi1dn6cexPvRvpn009sNZ0PzAy+ZinL61TFi/OEfEjbbntq6aMe3GIx3wzV1VrV3ddDt6aygW9TYx25VfaVcyNPrp8Z0urcmHNiOPRpMd0vFK0LUky9hi90V0XKYrtzFVE7picYnunpaLRct3aIuWpiq3MYxMTjEx2TGyXIj7fYAAADgMpyrGcIx63y7M8hpMTxTH4L1nfZJklrBpKKmro5Ep6faW1k/GgwIjJfdOOuJSXX2gIo3cO+J31zr/671d2/MertxZo2uRXS9/5pEmx9P4+6knmXZmEY+RwbrZ0xl00rjyVrg06zT5iclNKLzBDY33yD3dyj2RP25yF2dlm2Ng2BupTd5TPN+PTQ3FrWVTi1JHJiixOkZ9Q0tw66PGZQjwNJ+0BR4AAAAAAAABk47MH61Tg7+eCb/Z5nADaUAAB1/3PaA4fIcix/EqS0yXKr2nxnHKSG9YXOQZDZwqakqIEdPmfnWlrYvxoECGwnxW664hCS9pkAiudw34nDUurfrjWfAiiqd956SJEGVu/JUzY2kMYfUgmjlYvBYXCvdpT4ri1G2ppcKoNxsjKTIbUZAIZPIfknvjllsaTtjkbtLKts50/6yIdhkkxP1XjsN9xTiqrDsahIjY9iFMhSzJMaBGYR0P6RqMzMwogAAAAA+mBMnVVnW3dRY2FLeUk1iypLymnS6q6prKMsnI9hU2te7Hn10xlaCNLjLiFF8/QBJx7enxLe/dEu49rLmxVWvI/UzPu1c1tqpOKzvvDofqMt+8XjTxxKbbMCMx51KU+5CuVH0NUmSZdAE1fjFy446cyNdxNpcb9q4xs3FHfSZsSp5RtX2MWTjROuUmX4zNTGvsWu4/XouNOjsuH08yfMgyUYXHgAAAAAAAAAAAAAAAAAAAAAAAAAAAAAAAAAAAAAAAAAAAAAAAAAAAAAAAAAAAAPlmzIldDlWE+SxCgwIz82bMlOoYjRIkVpb8mTIecMm2mGGUGtalGSUpIzMBA37i/xLm690WOVaq4HtydH6ijz7Wi/LxKSxK3BsKJClvQVW+EMONu1ussdsFMGuLK6S7l9k0uochmrygIvdjPs7m2tb+8tLO9yC+nvWt/kF7YTLi9vbOQfV+xuLexfk2FlNdM/pOPOLV06EXQiIgHygAAAAAAAABfZ0AX08H+4/y37e2TLtuOmx34uH2E1E3JtM5kcvItQZUv1ELkLlYquUyeO2spKfIdnUOQpySM+q1pNSFBsGe093VNd90HU2VZFV4dM1bt3VM+lo9ta0mWbd3CgybyC9KpsoxC+RHhKusQyA4MkmDdYalxHGVMyEeYkLcDK8AAMTXJjug4RrzPc/0TpmNFzDbmvkQ2M0tbVLicSxGXYN9FRYyGXG5GT3VQ680mUy2pqPFdcSh1w1eZCcN81vNy/wAkUUZLRMrGY1G7VVR8auf3FmuIieGqKZ4rlzCeKKYmmnZONWyYY/z55o0cuXatL0ezF/UoxpquV7LVqrDdhG2uuMceGJinomrfDC9s/Zue7byR7LdjZTa5VduE4mO7YPGUStjuGtw4dPWtE3X1ENKln5WmG0F0Px6jxhrXMWuc1ajOqcwZm5mc5jPDNU+rbjH2bVEYUW6eymO+ZeatX1jVNfzc5/V79d/NTumr2aY6qKY9WiPdiO3FSGSfUz/aT4fN4kPnLb473Up9qMXW5fy/bFr0/f4pG3vjwcHI9p/tELhkN8Jqxv8AQ63L+6+1+8oWzKbkrZ3+Dq08vD7ayFhs74SVn2vBTq8a8xE+hP31jqZdPatrw9RHh/3p/SL9kd6ImKeKPaft+nGOKN8OPhyevlP2fL7fkPr+x0HJExMOKmd0uzRny6e3qR+HTr84466dmMb3aieKPV3ryOMfNHe/Fie2nXOTe/4cuR69lrPJ1yLPCbDzqSb5xIhOok43NfJBf5TAW0rwLzocT1Scjpmu6lolWOTrxszO23Vtonw30zPXT4xKa0fmHVdBrxydeOXx226ttE9uG+me2nCe+NiTrwz516z5hVFrCpoMvDdm4pXQbPL9eWspiZJi1thIehxcgorFgm27nHZM2Opr1TbZeYd6IdbT5m1L1jQOZcnrtNVu3E287biJqtzOM4TsiqmemnHZ0TE743Y7Ny5zVkeYqarduJt5+3TFVduZiZimZwiumemiZjDHCJid8bsb4xZFoAGFnuh97Xjt23X/AMmf1Labs5L2lAze1WocYmsVlbjECzJaaS62hmD7UmLiddY+RT0eI0zLs5cdvzoYQ0406oIHnOfuX8u+4bkJzeQew1owKJOObjej8H98x7UWNGl1TkRZ0HvLsnLraIlflKyuXZkpX8D0kdG0hYSfif2f90wHgAAAAAAAAAAZOOzB+tU4O/ngm/2eZwA2lAAAxLd03u56R7YeI45GybH7faW8dj1trYay0/j02JVqmwap5qHJynNMjlpkM4nh0ec96KXyYkyZkhC2o7KzQ6toICvO/ui8wO4hePq3rnyqfWLcr3ij0Hr12fRajpktrUqIqzq3JLthndqyR/Sm3T0pXn6my3HR5W0hjz+QvDxL7C8f2gHgAAAAAAAABVvRm+dz8ZtkVW3dAbMy7U+xKhTRN5DiNmuF9Zw2leY6fJapxL1PlVA/4pdg2MeTGcSZkaPEwE1btW/EeU3IzO9d8Y+aGJVWvNy55bwsO1/ufC23W9YbFyucgmqTH8mxx9ciw13lWQSmlNMuNvSqiTLdQ2lUTzEkBKvAAAAAAAAAAAAAAAAAAAAAAAAAAAAAAAAAAAAAAAAAAAAAAAAAAAAAAAAAAABTLdRddObaI/Ej1lnhGRl8+K2pfvgNOPhnhiWOEXsKnhEX7BE0REX2iAdlAAAA/b8Pm8PaA5KopMgyFVknG8bybJvqVgpVyeM43d5EmnjGglk/bKpoE0q1o0GSiN/ydU+JdS8QHEtOtPNpdZcQ62rzES0KJSTUhRoWnqXsWhaTSpJ+JGRkfsAfoAAAAAl1/CToL8qnNxzoXm/AvTaPN8vQ7fMVGX7RmQCbqAAIAW8spm4FzM31l0NK3zruQW4m7OGalH9bUU3PL1q3rnDPr5lOxj87XXr5XW0fMPMfOuh2uYKNQ0i9MRN29cm3VP8Al3aa5m3XHdVsnrpmYeQ+Z8rGa1TPWa99WZuzE9UxXVhK7b3uHYRYljXSEyq6xiRrCvkpPqUiDMYS/GeI/HxW0ovMXyKIy+QeRPg38tfry2ap4MzauVUV0/q10ThVHhO7rjazWaa6Jmi5GFymcJjqmOhwMj5f2k/4SEpl98d7np9uO91yX8v2xa9P3+KQt748HByPaf7RC4ZDfCasb/Q63L+6+1+8oWzKbkrZ3+Dq072fbWLDZ3wkrPteDo1l7Fn9ns6ePzkO/Hsel93d0d7paHCZeNBezqak/sEZ+JeP+5+wPimcJ7HSiYirB2KHI69OvUc04TGHQ56ZjwdhRNYisOy5LnpR4rLkiQ4f8FlpJrc6dfapXgSS+VRkOG5w26Jrr9iImZ7o/t6X3NdNu3Vdrn9zTGMz1Yf2wjrZLuxbayrrm7sK0kKWhydoTKPvRKUSWoreZ4GmJENJH0NEdpCfD/v+p+0S/lreqvcy3rk9OVq2dnHRgnPKfMV5nnDMXqtk1ZOvwjjt4R3REenFLtG8PSQA1dHeyffkd1fmiuS+9IWWx6VglvuKdWTEXBcVjRWCUszMmYsZpDbafYhtCUl4EQDFsAAAAA/N15phtTr7iGm0+UjW4pKU+ZaiQhPVRl1U4tRJSReJqMiLxMgHlp1t9CHGnEOIX18q0KJSTNJmlRdU9fFKkmRl7SMjIyIwHuAAAAAycdmD9apwd/PBN/s8zgBtKAABr9vipDUfcK075lKUSeKdGlBKUZkhJ7LzhXlQRmZISa1GZkXQjM+vtARqAAAAAH5uuIZR6ji0IT50Nl5j6GpxxRIbQkvE1OOLUSUpIjUpRkRF1Afu+zIiSXoM6JOrrCMlpUmutIEyrso6H0+dhyRXWLEaaw2+jxbUpsiWXiRmQD0AAAAAVb47/pM8VvFRf+1Pxx8UqNKi6biw8/BRdDL7QDcCgAAAAAAAAAAAAAAAAAAAAAAAAAAAAAAAAAAAAAAAAAAAAAAAAAAAAAAAAAAAppucuuntsF8+tM6L93F7X7YDTjYcXTFMdL5qmGX/AN2QDsgAA/eLEmWEyHXV0OZY2NjMi19dXV0V+dYWNhPkNxIFdXwYrbsmbOnS3kNMtNpUtxxaUpIzMiASq+3j8MjtjaR4/tPntkU/TGv5CWrKHoHDpUdzcF/HWlDsdnPsqb97ptcx3iWRrhQff7UkkpDjkR0/oBM74+8Z9CcVNd12quPOqsP1TgtchJfU+K1TUV60kpJfns8itnfWucnunzcUbk2wkSZTnm+k4ZeADEP3Efh/OI/NU7/YmsY0fjDyFsESJis4wCkingeZ2/prW25sjW8dyuqrKRLfJKXrSvVCtPL1U4uR5UtgIMfODt68pO3pntbgvI/C41fByZy0/J/szFJbl5rPY8aoW1785jd2pmNKg20SPJZdk1NgzGsIqHkqNC2jS6oLJgAAAS7/AISf/Wfzd/6naa/6UzIBNxAAGvz5TxuvJrkd4ebrvjbiiL2eJ57fH16n16mMG1O3M6lmP59z7UvLOu24nWM5PXmrv/uVO58e8wN6sma9nuGp+oTJucZU4fVSqd5zz21Qg+v0irJbnvDRfIy6oi8E9B5981OXpy+bt80ZSmIs5iabWYwjddiMLV2f5lMcFU/rU0zO9QdeyU0VxnqIjhqwpr96I9WZ7JjZ3wrrJLoZ/tJ/wkM3y++O9B0e1He63L+X7Yten7/FI298eDg5HtP9ohcMhvhNWN/odbl/dfa/eULZlNyVs7/B1ad7PtrFhs74SVn2vB0ay+5V9nzjvx7HhL7u7o71PJ7npOE4XX6J9T6eB9OvQ/D5enX5Rw3J4d27H9CNuzwzxORhSupIMldevQ+pewy6dSP2/MY5KKo4dng5bdcTDiMwuVGyxTMqP6fpy559f4CTM4kZft+6WXqKL9hIitWzGyMrE78KqsOr6NPjvnwRWtZqfh05Kjpwqr7vo0+O/DuxZc+wufXmZmvj1/8AMDlPXx6n/ppgvy+35RafLH8wXZ/+LV9uhc/J7803f6Kv7dtMAG9PTQA1cfes/Wqc0vzmVv4l4yAxdgAAAvt4Q9tfl73Bskbq+PWuH1YVHnlByXdmaJl4/p/EiQvyyveclOM89k1rHSlXlradmbMWsuiyZR5nEhOO7d/YA4icKUUWwNlwovKDkNXkzMTn+wqGIWF4daG2ZOnrfW77tjT1LkdazS3ZT1z7P6BLbcj+ZTYDj+4l8PrxK5nqyDY2p2o/F/kLYplTnMxwWljua7za5Nt1bS9j63jOwK6XJmyfIh+1rVwrIm+qnDkmlKAEHbmz25eXHb7ydFHyO1rIgYxYT3IOL7gxH3rI9Q5iZLUTBVmVtxmfqS0kNESzrLZuFPb8xfe1p6LUFjoAAAMnHZg/WqcHfzwTf7PM4AbSgAAa/X4qP9YVp/8Auq0f9pWbgI1IAAfZ9v5gF/HB7tm8v+4TkR1/HzXam8HgWqarKt2Z2cvHtSYitLjBTm3r0oz8zKryAy+SzqqdmXMP2Oeik/OQTjO3p2EuHvBpqp2PsOLE5I7+qozVg9szZtRAPDsJntMerKka41/LXMosbOGrzenaTDmWyUJ8yX2SNSB+TMUxxTspjrfk1RTE1VbKYjfO7+3Wuo5ddvXgd3RsGcn57R4rlGSQUTKfGN/akuKeLsnE50MzjOQGcyp0zG7mvhPtETlTaomwT6dfRSryrLhy+Zy+bo+LlblFy3jMY0zFUYxvjGJ3uDLZvK5238bKXKLtrGYxpqiqMY2TGMTO2EJDuGdhnmHwYLINgYnCe5L8dK05M4tk6+ppKc3w2maN5z1Noa2jqmz4DMSMglO2lUudXF16ve7ew+d2GEBKkrSlaFJUlSSUlST6pUlReZKiP5SUkyMv2AHsAAK4cWqO5yjlpxExvHKyXdZBc8rOPbNVUV7Sn509yFtPGraaUdhBGpZRKuvfkOn7EMtLUZkSTMBt8AAAAAAAAAAAAAAAAAAAAAAAAAAAAAAAAAAAAAAAAAAAAAAAAAAAAAAAAAAAAU23KXXT+1iL2nrbOS8f2cXtCAacXDy6Yrj5fNVRC/cbAdjAAGR/s+QINl3SeCkSxhxp8Ut8V833aWyh9j3ypxTK7eql+m4Rp94rbeCxKZV7W32ULLxSQDaggAAAjo/FBVlbM7aMKwmQIsqfTcjtSSKiY8ylcmtkS4mW18p2G8ZedlUmBJcZcIj6LQsyMvZ0DXmgAAAl4/CTf6zOb/8A1S0wX/6lmYCbeAAICvKGN15Lciz6e3eu2D/+dnd6fzDDtS/Ecx/Or+1LzDrMf+Xzf9Tc+3UodWTbDH7etvqpz0rKmltzYh+PldNvql6I8XgSo86OtTThH/BWIXUtOymr6ff0vPxjk8xbmivrjH2a4+tRVEVUz1whr+WtZi1XYu/w66cJ/RMdsTtjuXzwraDf1cC8rDM4FtEamRiMyNTRLM0vRXPmehyEraWXt6p6/KPKV/Ts3pGoXdKz8YZzL3Joq6p/Vrj6tdOFVM9Us7uWLuWzE5e9H72irCf0T3TG2HFy/l+3/gFg0/f4y7lvfHg4OR7T/aIXDIb4TVjf6HW5f3X2v3lC2ZTclbO/wdWnez7axYbO+ElZ9rwdGsvuVfZ8478ex4S+7u6O9Ti29v7Hl/wmXX90cFfszPSjL+5wsO0bhJeJ4/ox0qeaT/4Qup9GE/OZr6EX7BjrW8zFqKoq28O7t7O/H5Jl0bWcps8VNzbFO2O3s9PyOquyHpDzsh5ZqefcU64rx8TX8nj4+VKeiSL2ERCFrqquVzdr/iVTjP8Ad4IC7XXduVXbn8SqcZ7/APhuZsewovzczc1I/b+QHKT6/P8A+OmCC/eWdPDzBcw3Tlavt0NS8nvzTd/o6/t20wQbw9MgDVx96z9apzS/OZW/iXjIDF2AAPlm/wDNJH7LSiPxMupH4GXUvEiMvABt7+K1DRYzxn4/UeM0lRjlHB01rUoFLRV0WpqYKZGH1Et9MOvhNMxo6XpT63FeVJGpxalH1UZmYV7AAFtfMuhocm4kcm6bJaOnyOmkaF2y9JqL6ui21XJcg4LeT4a5EGa09HdXEmxm3m1GnzNutpWkyUkjINQ5j61u0NG46tbjq6itW464o1uOOOQ2VLWtZmalKUrxMzPqZmA5cAAZOOzB+tU4O/ngm/2eZwA2lAAA1+vxUf6wrT/91Wj/ALSs3ARqQAB4P7Xh8hl16gNoz2VIkSJ2reEjcOLGhtu6biS3WorDbCHZk2+vJc6W6hokpclTpjy3nnD6qddcUtXVSjMBhh5X83t68icgybF7y+PD9bVWRXlPE13iD8mFVz2Ke1lVbUjKrElIscnkSEwycW08pMNC1H5GSIYHr3Muqavers3Kpt5OmuYi3RsicJmPWnfXu6fVjqebeY+bdW1y/Xl7tfwshTcmItUThE8NUxjXVvqxwxwn1exbvqHdm1dDZK3lmpM0tcPs+rabCJFUUmgv4zKkqTByLHZHnqreL1SXT1G/VR06oWkRGn6jntKv/eNPuVW6+mPozHVVTOyfHbHRKE0zVtR0e/8AeNNu1Wq8dsRONNXZVTOyY6sdsdaWhw93Zfci+PWDbWyumqaa9yJN7CtoFOuQ5VOP0d7ZUTkuK1MU4/HasCgeqbK1u+kazT51EXU955e1K7q+k2s/epppu14xMU44Y01TTsx68Nz0dyzq17W9Fs6jmKaab1fFExTjhjTVNOMY7Yxwxw6OuWqE3MxHi7o3REiR48OJF3HteLEhxGURokSLH2DkbMaJEjNJS1HixmEJQ22giS2hJJIiIiE0n1NlKShKlrUlCEJNa1qMkpQlJdVKUo+hJSkvaZ+BAMnXAftG8ze4bNr7jVGGNYHpZcz0bfkDs2POqMCaYbWZS2sNgJbTebJt0Ek0E3WNnCZcMikSmfYYTr+3d2W+IPby+r8zximlbd5CNQH4U7fux4cN7I4SJrZM2MPX+PMm/Sa5qZrafK4mETk55Bml+W+k+gDLyX2f90AAAAAAAAAAAAAAAAAAAAAAAAAAAAAAAAAAAAAAAAAAAAAAAAAAAAAAAAAAAFN9yf6odq/m3zj8WLQBpxcR/wBF6D+a4v8AwAHYgABkq7N361Hgr+e7/wAhM1AbTYAAAEd/4nn9WM7/AHiNN/8ACyYBrvwAAAS8/hJk/wDnJ5vq6l0/BTTCeny/5wzI+vX5iATbQABAx5Nx/NyS5DfL13ltbxMvEuuc3gwfULk/9yzEf9e59uXl3WK8dZzf9Vd+3Ut+nGzCjPzH/otR0edXQi6uK6+VtpHzrcX0Iv3R07uYtWLVV+57FEYz2z0R3zOxHXL1GXtVX7nsURj39UR2zOx3bQWcuosrHCLN77zeyH7vHSUr6Ma5Q35rOpY833DVlCaJ1pBeBvMq6eKhh/OuQrzdVOvxETmKcKb3bRM+pV/+uZ4fdmMVCzVVeYvfebn8Sqrb3dEeG6FyMv2H+1+74e0VvT9+1+28MYw3YuDke0/2iFwyG+E1Y3+h1uX919r95QtmU3JWzv8AB1ad7PtrFhs74SVn2vB0ay+5V9nzjvx7HhL7u7o71OLb2/7398hwV+zKLzHs+l0SX0NfQ/YZdP8A6RiFzMzG2N+P9yvZr23xGXQz+Xr4/a+T7XQcUU01UxPX87rYYxj0M2XYT/TOzT8wGVfjpggv3lrTEa/c6/u1X26Gp+T8Yc0Xf6Ov7dtMHG6PSwA1cfes/Wqc0vzmVv4l4yAxdgAD5ZvjFf8A/szAbgTjl+j1of8AMzq/8SKMBWYAAUA5Xn14s8lfzAbj/s6yMBqBcc/0fof2aWrMv2vcmAHMgADJx2YP1qnB388E3+zzOAG0oAAGv1+Kj/WFaf8A7qtH/aVm4CNSAAADaQdls/8A/LDhD7fHSlX7fD/83uPn+cBHF27gmaa32VmmN5/i11h96vLcqsGa69hOQ3JdfOyCymwrCuePzRbOvlxH0ONvx1uNKSr29epF5r1DL38lnLlnN0VW7s3KpiKowxiapmJjomJ642PJuqZPNZHP3bGct1Wr3xKpwqjDGJqmYmOiYnriZU7bbceeYjMNOyJMp5EeLFjNOSJUmQtRJQxGjMpcfkvuGfRKEJUpR+wjHVicZwjHGd3XPdHS6MUzjERHrTOER0zPZG+fBLf7dOF5fr/iJq7Gs5xu0xPIWVZXYP0l2x7paRoVxlt1a1TsyGozehvS66W076LpJebJflcSlRGkt55Qy2YymgWLOaoqt3vWnCdkxFVczGMdGMTjhO16V5JymZyXLeXsZuiq3f8AXnhq2TEVV1VRjG+MYmJwnbHS1uh8GuXvInmZvXRGouP2w8h2dA3dtJOQ1dpRzcWosMhT9gX8iLd5vluQMQsexnH5MN9t9iU88fvjLiVRUPmpJHZVrS4O3f8ADRaH0cnHdnc2rOp5JbahrYtY2s4TMtjQWH2aDU4ymXVTEsWe0Z8BXpqS7aoZrkuo6pgq6JdMJPVXVVlHWwKelroNRUVcViBWVVXEj19dWwIjSWIsKBBiNtRYcSMygkNttpShCCIiIiLoA5AAAAAAAAAAAAAAAAAAAAAAAAAAAAAAAAAAAAAAAAAAAAAAAAAAAAAAAAAAAAABTncP+qTaX5uc3/FmzAacPEf9GKL+bY/+AwHYgABkq7N361Hgr+e7/wAhM1AbTYAAAEd/4nn9WM7/AHiNN/8ACyYBrvwAAAS9fhJv9Y3OD/qtpj+X5mAm1gACCJyYT5uR/IMyIyM937V/b6qzi86F18TSPN2pZuP+7ZqMd2ZufbqeRdZzVP8A33O047Yzd7/3KloeY2RSJhVTC/MxAUSpa0mXldnmn/iuqfBSYaD6f45n8wgtSzk3sLFP8On2u2r/AIfOrupZyb1UWKZ/d0zjPbV/dHzuosvyocmLNgyFRZ8GTHmwJbfguLNiupejPp6ePRtxJdS+UvD5RE10UXaKrV6Iqs10zFUT00zGEx4xu7UZMzK/nG8pi5pjlbkkVKGlTm1tWMZB+EC5imTdnCMv4BIfPzt/O0tJkM3nI16Zna8lXjMUz6sz00TGNM+jZPbEvq3T60Q+iR7T/aIWTIb4TFjf6HW5f3X2v3lC2ZTclbO/wdWnez7axYbO+ElZ9rwdGsvuVfZ8478ex4S+7u6O9Ti29v8Avf3yHBX7MovMez6XRJf3f2v/AKxiFzPT3q7mvb8XqpvzJSfykXyF8nyfuDq5W5HH8KrdVu7/APi4LFUY8E9Pz/8AFmp7CZdOZua+H/8AQOU+P/70wT94hpfl3b4NeuY7/u1X2qGs+UtHDzPd2f8A8df27aYKNsejwBq4+9Z+tU5pfnMrfxLxkBi7AAH5utE+04yajQTiFJ85EkzT1LwURKI0qMj+Q/AwE6rtifEfce8xxPWvH/mTVROO2dY7juP4LRbajOSZujsu+oq+PS1Tl5OdJ201hcT2IrKVJnk9VLkLUaZbKTS0kJU9NdU+RVNdfY/a1t7R3ERiwqbmmnRbSps4EpsnY06vsYLr8ObDkNKJTbra1IWkyMjMgH53t/R4vS2mR5Nc1WO49SQZNpdX17Yw6ilp6yG2p6XYWlrYPR4NfBispNbjrq0toSRmZkXiAihd0L4jzQNNhey+OvDGnhchclzHFco1/k+5LFcuBpjFo2R1E7H7dWLGSY9vsy6hx5rnpuRij0qXUpP3qSklNGEGmFEagQ4kFk1qZhxo8Ro3FeZw24zSGWzWZERGs0oIzMiLqYD6gABk47MH61Tg7+eCb/Z5nADaUAADX6/FR/rCtP8A91Wj/tKzcBGpAAABJ37TPxC87h9rrA+LXKjAJeZ6DwdhVFge0tdxDd2Pr7HpM5+W1V5Vibr6Ime4/UPy1ky/BXGtI8X6JtTDShJBMeoL7hh3JNK1+U4jf655D6us0KVWZBj1g3IuMXs3myNTXrsKh5XgmTR/IlTkWQmHKT5S9Vs09COP1DS8hqtj7vn7dNyjo6JjtpmNtM9yO1PSdO1jL/dtRtU3LfRjvpnrpqjbTPdJx14IceeNUt+8w3G5ORZm88+bOcZy/HyHJK2Kt3zsQKR04kaDSMRmySn1IrDUh7xNxxfmMRukcraRo1U3cvRNeZmfbrwqqjqinZEU4dkRM9MojROUNF0Kqb2WomvNT/mXMKqojHZFOyIpiOyImemZXldPnPr9ov3Pl8BYloehNNpWtxKEpW4aTdWlKUrcNBeVHqKIvMvypLoXX2EA/Qi6AAAAAAAAAAAAAAAAAAAAAAAAAAAAAAAAAAAAAAAAAAAAAAAAAAAAAAAAAAAAAAAAp1t8uupdokfsPXWbF+7jVmA04eJl0xmjIvYVcwX7nUB2EAAZKuzefTuo8Ffz3f8AkJmoDabAAAAjv/E8/qxnf7xGm/8ADkx/4CAa78AAAEvj4SX/AFhc4P8Aqzpf+XZoAm0AACBbyzuCp9+8iJKehzHN4bVjQGzMvKqSvN70/VUXytxUffFH7D6EXyjx/qGdqvcx5+zR9DN3sfC7VH9oeGtYzdVzmfUbdM48Gev49n72qFlCTMzM1KNSjM1LWrxWpalGpa1n8q1rMzPxHw6kzi8mRGArBpjLSocidx6a8TdRljjLTZuGRNRMiaR6ddI6mZE2mxbP3Zw/YavTM/YIfWsn94s05m3GN+zHRvmifaj/AA+1Hi5KKsKoXSSSNJmlRGSiMyMjIyMjIzIyV4dCMjLp+2OjkJ3Sl7G/0Oty/uvtfvKFtym5K2d/g6tO9n21iw2d8JKz7Xg6NZfcq+z5x349jwl93d0d6nFt7f8Ae/vkOCv2ZReY9n0uiS/u/wBz/hGIXM9Pf/crub9vxe6evRPj4fL/ALnQRMdboxu/t1s1vYZQX/bKzVZdP9QeVJMi+Q/wzwQy6l8g1jy2vRf1Suv6cZeqJjt4qPn3tk8o66buv3Lke1GUqie/jt7UvwbW9FgDVx96z9apzS/OZW/iXjIDF2AAAD1UlKkqSpJKSsjSpKiJSVJMjI0qI+pGkyP2GAyTcD+7BzK7eVlDh6aztOVaiOWT15oHZLk2+1rPbWpKpDuNJJ8rjXdu6SevvFO8wy6r/j2HgHyc7+6nzG7ht1Nb3Xn6sf1QmYp/HtBa7cmUGr6hlDji4q7yKT31nsC8YJ0y99uHX/IR9GWWU+BhjlIiSSUpIkpSRJSlJElJJIuiUkREREki9hfIA8gAAAycdmD9apwd/PBN/s8zgBtKAABr9fio/wBYVp/+6rR/2lZuAjUgAAAAK68c+TvILiNsBnaPGva2UalzRC2PfpVBJQ7RZLFYebfKqzXFJyZGO5hSvKaInI86O50LxbU2siWQTO+3n8TZpzayaPWnPGlqeP8AsJ1ESti7ooCmytH5VP6IjoeyFhw5t3qydOdLzqVKVKp0rWZHLYLyIMJTNBkFDldLV5Ji93UZJjt3CYsqW/oLKHcUtvXSUE5Gn1lrXPSIM+FIbMlNutOLQsvEjMgHLgAAAAAAAAAAAAAAAAAAAAAAAAAAAAAAAAAAAAAAAAAAAAAAAAAAAAAAAAAAAAAAAAKebdLrqfZ5fPrzNS/dxuyAacLFP9G6X9iA0X7hqIB2AB9UCDPtbCBT1FdZ3N1bS2a+npKWum3F1cWMlRIjV9TUVrEqxs58hZ9EMsNOOK+QjAS/exz2MORuB7+1fza5dUitO02sPrPKdVaVsXyc2beZjZ01lj1XfbCgxHFRcKpaCBbSZDda665YSZZsm82w22ZOBNZ/3AAAAY/u5zwagdw7iDn3HFWVt4NlE+fRZprrL5cR+xqaPYGHTFT6FeQV0ZxmTNxy0Q69AnpZUT7cWWt1ojdbQkw1r3MLgZyu4G5sWF8mNVWuIxZ0pyNiexKlSsi1TnKEffEKxfOoLKa1c5TC0rXXTCh2TPm6LjkZK6BaCAAJfXwkif8Ax/5xK6n1LHNKp6dC6dDmZqrr1+fqQCbMAAIf3dC7cnIDXm3Nl77wLGJ+zdG5bfW+bPv4mzJtcq13LyOW7cZLGyjG2SdtJtS3cvvOs2MJMhpuIptDyWlIM1ec+ZOQM7oeezmqZGmq/kc1mK79VUbarfHOM0VRv4KZmcKox37cHljnLy41PQtSzusafRXmNMzeYrv1VRtrtTcnGaKqY2zRTVM8NUYxhPrYSwqNONupJxtaHEKLqS0KSpJl4ewy6l+2KQzaNsYxufqA/NxPmIy6rSZGRpW2flWhZGSm3G1F4pcbcSSkn8iiIBejg2WnmeMRLN9aFW0JRVd8hPgf1lHaSaJfk6+DdnG6PJP2eY1l7SEJGW+6ZmbdP8OdtPd1eE4wmMnXxxj0xv8A0OSl/dfa/eMWLJ7kxZ3+Dq072fbWLDZ3wkrPteDo1l9yr7PnHfj2PCX3d3R3qcW3t/3v75Dgr9mUXmPZ9Lokv7v9z/CYhcz096u5v2/FyNPUXGR21VjuN1FtkWRXUpuDTY/QV8u3u7eY6ZJbi1tVAafmzXlGfiSEGSU9VKMkkZlGWrdy7cizapqrvVThFNMTNUz1RTETMurZs3cxcpy9iiq5frnCmmmJmqZ6oiNvyJVnZ77d+3ONt7lvIHe8FjD8ry7DG8Mw/W6JzNhdU1HY2dde3F1mL0Jx2ug28l2risRoLTjzkdBPG+pK1JQjceQOVNQ0e5c1TU4i3eu2+Cm3jjNMY8UzVhsidkRFMY4bcZeifLHknU9BvXdZ1iIt5i7a4KLWOMxTMxVNVeGyKtkRFMYzG3GeiM9409sQfsAa/n4g3tm8lNe8sdvc0MNwHItncddvqpcvyLLcNr5F/Y6kyKFRVmP39Zn9HXtu2tfjb0muTLh3DbK4DbMn0n1trZUpQRom1ocQhxpxDra0pWhxtaXELQoiNKkLQZpWkyPwMj6GA9wAAAAAAAAAB6OOIaQpx1aGm0JNS3HFpbQhKS6qUtazJKUpIupmZ9CIBJN+H47Z3JbZXLfS3MzLMCyHWfG/TMm4zqizXMYL1HM25kkzHLnG8dpNe0U9DVta42Tt25Ol3RtN15sxCaYceW8XlDYLAACK58Q52kt/8xMi17yy4wVaNiZvrbXE7XWe6aamRa7JcixaBc2eWU+Ta/dsHWIFzkUORZSosiqceYdlNqYON6jhLQYQV76hyDE763xTLsfvsRyvHprtZkOK5TUT8fyWgsmFGl+Bc0dqxFsa6W2ovuXW0+YvpJ6pMjMOKAAAAAeDIjSaVESkKI0qSZdUqSZdDSZH4GRkYDIjwW7pfMjt520VOitgFdayVNOVfaE2MufkGp7snFJXKXWwESG7PA7eQSSL36meiqV0Inmn0kSSCcn28+/Fw65znQYBkFujjryJs2ks/kl2VbQ2avJ7JCFqfRrLPlphUWYEpKCUmE4UK2LzkkoqyL1FBm9AAAAAAAAAAAAAAAAAAAAAAAAAAAAAAAAAAAAAAAAAAAAAAAAAAAAAAAAAAAAAAABT3bfjqnZpF7T17mn4t2QDTf4wtDOMVLjy0MttV6FOuOrS2htKTWalLWs0pShJeJmZ9CIBmp7fHZE5mc/HKvL2cekcf+P8v0JB7s2pRzormR1zjnRT2r8BeVAvs1W60lRszXThU5mXjKV4IWE5ngH2i+HHbyqo0/VOEHme4H4SI+Rb62UUPIdk2rq2kpmNUsn3VqswakfeNZohVDEZPpKJDy3/ACkoBk/L2eP7vzgPIAAAADpOxdba/wBu4be672lhWMbCwXJ4Tlff4jmFLAv6C2iOkZG3MrbJiRFcU2Z+ZtflJxpZEtBkoiMgiLdwb4Xqrmru9m9uvJ2cfluKkz5fGnZd5Idxt9a3DdKLq/ZFm5Jn44ovOZN196uVDPoXlmxiLoYQ/wDaupNq6Jz251buzXOY6p2NQLNNph+c0kujtkM9SJuwge8oKLdU0klEbM6E4/EdSZeVwz6kQSuvhJP9Pecft6fg9pTx+T/nWbfL84CbKAABgMS/MvtD8eOT67TNcKZa0XuWUTklWW4jWMLxXJ53kI0pzfCW3IldPVJcSROToaok8vMpanHT+idE5g5C0rWZqzGWiMtn5+lTHqVe/Rsjb104T07Wb80eWmi6/NWayf8ApNTmJ9aiPUqn69vZG39anCrpnGUWnlFws5DcPr9VbuLCZDWMy5ao1Ds7GkybrXGQmazQyli+Qw2dJYSOhKKFZNxZXiXRKupGeKa3y9q2hXvh5+3Pwp2U3Kdturuq6J+rMRPY898xcq63y1f+FqdqfgTOFN2nGq3X1ethsn6tWE9i1XqX7X7ZGX7nziCVvCXe9bZX+CmSNnKc9OmvEtVNwZn97Y8znWvslJM+hHBkr6KV7fScV8w47tuLlMT9OmcY/THj87tZW7Fq9EzPqTsn9E+E/IuompUha0q8DSaiMuvUuvj8vXxL5SP5S9g7WT3LPZj5HU53s+2sWKzvhI2fa8HRrL7lX2fOO/HseEvu7ujvU2uXENpW44tLbaE9VrWokpSXX2mo/AhwXMIpnHci8zsp24QyG8Qe07yP5XLrsryGFJ0ZpuabchOc5lUvfhRkMBSi8zmD4NKVDnTUvoPq1NsFRIXQ/Mj1+nkOX0nkrVNcqi/dictkp+nXHrTH1KOnHrqwjslO6D5ea3zHVF+9E5TTJ/zK49eqPqUThM9lVWFPfuSnuKPBHjpw7om4WqcObkZY/FSxfbOyo2bzYV+syX6xSLx1lsqqC56hkUOA3Fikkk+ZClF5j1zROWdI5ft8OQt/v59q5V61yr/F0R2RhHY3vl3lDQ+WLPDp1qJzMx612v1rtXfV0R2U4R2dK8cvAWBZ3kAAejrbbzbjLrbbrTqFNutOoJxtxtaTSttxCiNK0LSZkZGRkZeACO33Evh0uLHLR262Zx4eg8U99TlSZ8uRi9MiRpvPbJ71nnPw113DVGbpJs19aSVZ0aorzZdVuR5SlKIwhDcxuBfKvgZm54byV1Va4lAmz3IOJbIqfPf6nzwk/SZVi2dRGU1yp0hno59XTSh2jRH0XHSolEQWfgAAAAAB0AXecPOCHKjnjnH4E8aNVW2Yx4EtuNlmwrQ14/qrBErI1rVledTWFVjE5LCVLRXxPe7J4k+VuOpRkRhN27d3w5vFrie/S7O5GSIHKze8I4s+GeS06Y+lsCsmjjvoPDtfTFSE5DNhSG1kizvTlOLJRKbjRlJSSQkUtMtsNNMMNtsMMtoaaZZbS20002kkNtNto6IbbQlJESSLoRF0IB+oAAAMdvO3tb8Pu4Zji4m9ddtRdgQoC4WK7rwdbGNbXxUySXuyY+SMR3CvaqOsvCutGpsHopXlbQpXnIIOvcK7CXMbg/8AXOdYNWT+UXH6v9aWvYmuqB8s9xWrQpSic2Lq+C5YWcZMRkvvthTqsIKi+m4mN19MgwbtOtPtpdYcQ80v7lxpRLQroZpMiUkzIzJRGRl7SMjI/EgH6AAAAAPRxpt1JJdT5iS426g/ElNvNLJxl5tRGSm32XEkptaTJSFF1IyMiATFfhtedHcD2zuGTxxzQ8v3pxDxPBMgfnbZzeNYWU7SWTUrUNOJYdV7PmEbmVsZE4a4p0Ut+bMrm0E+2thhCmlhNOAAAAAAAAAAAAAAAAAAAAAAAAAAAAAAAAAAAAAAAAAAAAAAAAAAAAAAAAAAAAAAHH21XAvKuypbWOmZV3FfMq7KItTiESoFhGciTIy1tLbdQl+O8pJmlSVF18DIwGDDiJ8Ox27uJmxZ2yk4zlu+LaDePWet6fe9nVZhimsYaZiZ1XGp8bjU9ZVZBbVDnVDNhbNzXkNpQaEodR6qgzttNNsNNMsNtssstoaaZaQltppptJIQ222giQhtCCIkkREREQD9AAAAAAAAAABaryw4T8Y+bmAu675KanxzYdU01J+obuQwquzTDJ0llbRW2F5jXqj3+OT2VrJzow8TDykJJ9t1HVBhbN22u07x67Y0TbX5Gsj2Pm15uC4qZN/kmyritsrGDj+NfWCcYxisZpqqnr241cmzeW/IU0b8x5XnWaSJKCDKGAAAAYDhMhxvH8uo7TGcqpKnJMdu4btfc0N7XRbWntIL6fI9En1s5t6JKjup9qFpUkxxX7FnM2ps5immuzVGE01RExMdUxO9xX7FnM2qrGZopuWK4wqpqiJiYnfExOyfFH35h9i3E8kVZ51w9u4uB3qvWlytNZXMkvYHbOdHnVM4hkLnvVphctxXlS1HkFLrupmXWOnoacr5g8tbV2as1oFXw7k442qpnhn3Kt9PdOMdsMX5m8o8vf4s3yzXFm9vmzXPqT7lW+ieqKsae2EbbamqNk6TzKx11uDBci19mENLnq0mSwFxTsInmUgrKknINyuvql5PiiVDeeaNJkfmLqQyDOZDOadmJyuft1WsxHRVGGzrid0xPRMTgwrUNMz+lZmrJ6lars5mnfTVGGMdExO6qJ6JiZhWDXWTHkWOIiynTctcdJmulqWZG7JgKR5auerr4rNTTfouH/4Rsuv3Q+MtsqlMabf+Na4Kv4tGyevDon+9zU4/A/21fuq9hCfs74lOWt+PROxV7j9xF3xyuvVVWo8Ofk0caQUe62FfE9U6/oD8xJdTMvlMuFZTmUqNXucFEmUokn9AiIzKx6Xo+oatV8PKW54I2TXOyiPHp7oxlNaZoWp67d+HkLeNuJ9audlunrxqw2zH6tOMpHfETtL6A45O1maZ40zvDbsUmZSMjyqtYLEcZnpSlXXDcMeVLhRnYjpqJqdMVKmmREtKmleA07SOUtP02ab9+Iv5yNvFVHq0z9Wn9M4z07GuaDyJpOkzTmc1EZnPxt4qo9SmfqUbYjDoqnGenYysdP2Ra14eQHjr7fDr06f7oC2XJeZ3FXD8iexTI9864rr6M+UWZC+v2ZaIEk1Eg2LGbBTJr651Cj6LS+62aP4XQQt/mPQste+73s1Zpu9XFjh3zGMR4ygMxzTy7lb85a/nLFN6JwmOLHDvmMYjxlcPTXdPkVXBvKC1rruls46JVdbVM2PY10+M518j8ObEcdjyGldPukKMhL27tu7RF21VFVuqMYmJxiY64mNkpy1dt3rdN6zVTVaqjGKomJiY64mNkw5Mj6n9niPt9vIDo2yNZa83Dhl7rrauE4vsTA8mhO19/iOZUlfkNBaxHUKQaJdbZsSIy1o8xqbcJJONL6KQpKiIyCIl3C/hfYkp6+2n27MmaqJLqpVjM4ybJulHQPKccW6qNqrZFip2Xj6kktKWq69VIiGSehTmOpAIgW0tVbO0dnt3qzc+vsu1ZsfHHPJcYZm9LLorqO0pXRmfGalIJm0qJZdFMTIq3oryTI0OGRgOheIAA73q/Vuzd255R6t03r/L9obHyR306XDcIpJl9dykEZ+rNfZiIU1WVUZKTU9MlLYitJSZrcLoAl89vb4XyO07S7P7iuUN2Tza4thB40ayvXE0zRoWTpxtp7IrVMy7pSjSROV1CuPFJKjJU5/2EEvPW+sdd6dwyi11qnCMW11geMw0QKHEcNpK/HqCrjNpSkkxa2sYjxkuOeXzOOGk3HVmalqUozMw7yAAAAAAADx9n2fKAwSdxDsC8QebirnYOBREcZOQkwpMz8oeuKaEWI5faLQRpPZeuEKg018cpxBE9PhKgWn01LU+6okpAQdec/bN5fdvTIDi8gNdOvYBMmKiY5vHBffck1FkSlOutxW3r9MRqTh9tMS0a01101DkkX3BupNK1BYKZdPb09vz+Ps8PD2+IAAqppPRm5eSWxK3UugtZ5ftvYtoSXWsZwyqdsX6+EfU122QTzNqpxmlZQlSlzLB+NHJKVH5j6GQCYF2+/hecco3qPZ3cNy1jNLRoothE4361tpMbCIL6XGHvddk7CilEuMxWSUrbehVHuEEvN/zmSkuqglp661pr3UOG0evNWYVi+vMFxqI1BocSw2krseoKuK0hKEoi1lZHjxkLWSCNazSbji+qlmajMwHdwAAAAAAAAAAAAAAAAAAAAAAAAAAAAAAAAAAAAAAAAAAAAAAAAAAAAAAAAAAAAAAAAAAAAAAAAAAAAAAAAAAAAAB46AKMbx486Z5IYc/gu6sAoc7oF+o5C+tI/ktaOW4gkfWWOXsVTFvj9kjyl0eiPNLMi6K8yeqTjtS0nT9XsfdtQtU3LfRjsmJ66ao2xPcitX0TStdy33XVbNF610Yx61M9dNUetTPbEo6e6ux9uLWWfxso4q5ZW7MwCykSIs/CthXULGc2xyqlu+ZTDWQ+6ooMviRTJK2nHUQJTakdDS75jMsj1Ty1z+WzHxdFri9lpn2a6oprpjv9mrv2d2LEtS8p9U07PRmeXrlN/JTOE0XKoouU0z9b2a8N8ThTPZK8PjH2dMep34eX8pbmLmVi2tMiLqzFpUpnEIikqbWhOUZAkollkqz6KJcaOmLE8SJSnk9etj0PkOixhf1qqK6/wDl0+zHvVb6urCMI71w0Hy6t2cL+uVRcr/5VGPD/iq2TV3RhHbLNtj2OY/idJW45i9LVY7j9PFbhVVJSQItXVV0RkvK1HhwIbbUaO0gv4KUkQ0e1at2aItWqYot0xhERsiI7o2NNs2bNi3FmxTTRapjCKaYiIjuiHNj7crwfgX2fZ1AWw8iuX2kOMdSuTsbKGnckeinIp8Ax8m7XNLsz8pNnHqUOoKBDWaiP3qYuPHIiPotSiJJwmrcwabotvizlcfFw2UU7a6vDojtnCEBrfMuk6Bbxz1z9/Merbp23Ku6nojtnCEeHlD3Id4cg27Ghp5j2oNXSSWwvFcatFlfXENxXlSWWZcyiLKk+sXgqJCKNG8fKr1vBQyTW+cNS1eJs0T93yU/RpmeKY+vVsmceqMI72Ka/wA86trUVWbUzltPn6FE+tMfXr3zj1U4R3qZ654Icotk65n7JxHVU9vGYUUplVBuHmcfyPLIppNxyRiWO2CWZdo2lBGolOnHKR16MeqvqkdLKcr67nMpOcsWKosRGMRPq1VR9Smds+OGPRij8jyhzBnsjOey2Wn4FMY0xVPDVX20U1bZ+THoxl1zRnJrfvEzKJ8LB7m0oWoNitGWaqzOFOVjkiY04pMliyxicqNLobFZpUXvMQ4z5+3zLLqR8Wl61qug35oy1VVMRV61quJ4ceqaZ20z207XFpOvazy3mareTqqopir17NyJ4cenGmdtMz1xhPfuSDuLvcs0lv8AOBjGUuI1Ds18mmE43lFgweP30tSeivwTypaY0KYp1aDNEWSmNL+kSUocMjMaxonOWm6rhYvYZfPbuGqfVqn6tXT3ThPRhLZ+X+e9K1nhy+Z/02obuGufVqn6leyJ7InCejayPC4QvAAdPs/bAWl8ueDnF/nJgLmvuSeq6LOoTDT5Y7kqUHU57hMx5Cy+ssKzWvJm+x6WlSvMpDTpxpHTyvtOtmaDCFBzy+Gs5V8frWxy/iLJmcq9QPSVORcXIq2p3xh7DqkGiJY05uQaHYVe0bhoRMrFR53lT1cgmXVwg/PgZ8Nbys5C2cDLuW8mw4oaijy0ql4w61XW298xYaUZuRaymJ6ZRa+r5BJ8hzrNb84uvVEDoRLMJsPEXgzxd4NYGnAONmqqLBYklpgsjydSDts9zeYwhKfrLNc0sPWvb+UpaTUltx0osczNLDLSOiCC7XoRAPIAAAAAAAAAAGXUBweSYzjmZUFviuXUFNlOMX8F+svcdyKshXVHc10lPkkwLSpsmZMCfDfQfRbbrakKL2kAiudwX4YfU+0X7fZXAvJ6vQucSHZE+dpTMHLOfpK/ecJbzjGLWMVuxyPWEh17/i2mW7CqQaiSiNHbSXQLKOGvwsm6cmyxF9zq2djmude1UltSdb6OvlZXnWaek60pxqyzywp4NHhdM80ai6w41hPWaS+kwRgJhnGniZx04f6/jaz44anxTV2LNEyqemhgkd3kc1lKi+tstyWYqTkGVXDhuKM5M+S+6XmMkmlPRJBcUAAAAAAAAAAAAAAAAAAAAAAAAAAAAAAAAAAAAAAAAAAAAAAAAAAAAAAAAAAAAAAAAAAAAAAAAAAAAAAAAAAAAAAAAAAADx0L5i/cDtHnoAewBT3ZW1NeaexiZmezcwpMMxuF189hcy0snIeJJqTEr4iScm2k9wi+hHjNuvL/AIKDHUzueyen2JzGduU27MdMzh6I3zPZG108/qGR0zLzms/dotWI6ap39kRvmeyImZYG+Tndwy/LyssQ42VkvBcecJ2I7su/isuZlZtqJbansbonSeh4wwoj6okSfXmH4KS2wfQxlutc+5jMTVl9Gpm1Z/5lW2ufdp3Ux2zjPZDH9e8yM1msctoVM2bEzh8WrbXPR6tO6jvnGrshj40nxt3/AMtcqnzsJqLjJ1WFipeV7VzOdO/B2NMWpRyJFzlc33iTcz0J6+WLEKS/4eUkIR1NNT03R9W16/NeVpqrmavWu1TPDj041Tjj3RjPVgpelaFrPMmYqrylNVziq9e9cmeGJ6eKqdsz1RTjPRu2pAvF/tm6T0KVdlGZts7h2dFNmUi/ySuaRjWPzEpIzPFcTcXKhsuMuKPyS5apMrqRKQbJmaRq+icmabpWF7MxGYzsfSqj1aZ+rT+mcZ6sGzcv8haVo/DfzcRmtQjbxVR6lM/Uo2xHfVjPcyT+0vs+whcehelrXIvh7o7k5WKb2HjCI+UsRVR6fYOPelV5lUF5ejTZWiWlptK9Ckkfuk1D8cyL6KUq6KKE1fl/TNao/wBXRhfw2XKdlcePTHZVjCva5yxpPMFufvtvDM4YU3KdlcdmPTH1asY6utHh5PduLePHpNlfQIK9u6uZU68nLcXq3lW9PCSszbPMMSbVLmQDaR080qIqTF83io2j6EeR63yhqek8V6mPvGRj6VMbaY+vRtmO+MY7mKa9yPq+icV63H3nIR9OiJ4oj69EbY74xp7n28Xe5Lu/j+ivoL6Y/uPVzBIYbxvJLVR5FSw2zJs0Ypl75SpKEsEkyTEnFIj+HlSpnqai+9D5x1LSsLN2ZzOSjZw1T61Pu19nVVjHc++X+edV0WIs3pnNadH0ap9amPqVzj6KsY6PV3pDnHflzpDk3UJma2ypo79iMmRc4HfE3U5rRH0MnPe6Z1xSpkRCun+VRFyIx9S+mRn5S1vSOYNM1u3xZK5HxYjbROyuPDpjtjGO3Fteicy6Rr9viyFyPjRGNVurZXT309MdsYx24rmxNJ4AADoR+0AAAAAAAAAAAAAAAAAAAAAAAAAAAAAAAAAAAAAAAAAAAAAAAAAAAAAAAAAAAAAAAAAAAAAAAAAAAAAAAAAAAAAAAAAAAAAAAAAAAAAAAAAAAAAAAAAAei1JQk1rUlCUpUpSlqJKUpSXVSjUZkRJSXiZ/IQ/JwjbJOEbZ3MO3KTuyYLgEi4wjj5AibLzGC7Irp2bWHrt66oZjJqZkfVymVMzMymxXiMi93NqAak9feFl9FWfa5z5lcpNWW0mIvZiNk1z/Dp7umuY7MKe1mXMPmNlMlNWU0WmnMZqnZNc/wAKmeyd9cxPVhT9aWESyueQ/MTaaSmP5lufY9mtZwqqI2bldj8J5w1m3X1rJxsdwvH2TV1U4r3dlKfFxwxmddzVuYc9hVNzMZyrdEfR7o2U0R6Iw3yya5d1rmjUYiubmaztXRG6nujZTbo9HbLMXxg7RVFSpgZdyfs4+V2v3uQ1qvHJbyMTgq+ipLOT37Rx5+TOJMzJyPHKPDM0+Kn0GZDRNE5BtW4jMa3MXLm/4VM+rHvVb6u6MI72oaD5bWbUU5nX6ou3N/wqZ9SPfq3190YR3wzSUFBR4tTwMexqnrMfoamOiHV01NBjVtXXxUGaksQ4MRtmPHaJSjMySkuqjMz8TMaNatWrFum1Zppot0xhERGER3RGyGpWbNrL2qbNimmizTGEU0xhEd0RscwORyAAA8H1H584xq8n+2TpXepWWT4M0xp3Zss3ZLl3jlc0vFcgmeXqk8oxRpcaIp59RESpcI48kupqX6xkSRTtb5L03VMb+V/02dnbjTHq1T9ajdt6ZjCevFROYOQtK1fHM5SIyuoTjPFTHqVT9ejZG3rjCevFH73Pxz5BcR8qgTc2qLnEn4FiS8U2lhdjN/B6ZKaUSo8mkyuAUeRUTlkZGqHLKPI6dUmhaPE8n1LR9W0G/FWapqtzE+rdomeGZ6JpqjCYnricJ7JY1quia1y5maas3TVbmKvVvUTPDM9E01xhhP1ZwnowwZD+MfdxyvFCrcR5MVj+Z0LSGYjWzschtIy+vbQltpt/J8fjpZh5EwhtHVyTEJmZ16qU08ZmZW/ROfb9jhy+s0zdtRGHxKY9ePep3VdsxhPZK7aB5kZnLxTltepm7Y3fFpj146PXp2RVHXNOFXZLPhgWe4bs7EqTOsAyGtyrEcjiFNpryqdN2LMYNSm3E9FpbejyGHW1NusuoQ8y4lSFpSpJkWpZXNZbO2KM1lK4ry9cYxVG6f7sN0x0Tsna2HJ5zLZ/LUZzJ103MtXGNNUbpj546pidsTsnaoZvbkHM13ZqwjA6amvs5j4jY7Cy24yyzk0mudS63rFvMyM52FbQIs62klNlxnGaynrmHbGzcZeUXossuPJjdU1WrKV/dstTTXmYtzcqmqeG3atx9O5MYztnZTTTE1VYTuiJlE6vrVWSr+6ZOimvNxam5XNc8Nqzaj/MuzETO2YmKaKYmqrCd0RMrY9fc1M1mQ7vL5OR6S37rzEI0S22WejqnYeIbJ1xiklLhyM9awLP3LKTsHEKkmjclqr3Y8pEZKnGW5C0kyqEyfMebqpqzFdeVzWTtxE3PgxcouW6Z+nwXMZuUR08OE4bYidyAyfNWarprzNVeUzmStRE3fgRdou26J33Ph3MfiUR08OE4bYiZ2MmFXaV13WV1zUTY1lU28CHaVdjCdRIh2FdYR25cKbEfbM2340qM6lxtaTMlIURl4C50XKLlFNy3MTRVETExumJjGJjsmF7t3KLtum7amKrdURMTG2JiYxiY7Jjc+8fb7AAAAAAAAAAAAAAAAAAAAAAAAAAAAAAAAAAAAAAAAAAAAAAAAAAAAAAAAAAAAAAAAAAAAAAAAAAAAAAAAAAAAAAAAAAAAAAAAAAAAAAAAAAAAAABY73HczvsG4dbgs8bnP1lnZ1tTjB2EZxbMmNXZLeV1TcEw4gyUhyVVSXmDMjI0pdMyMjIjFZ5wv3cvy9mK7M4XKqYpx7Kqoir0xjHiqXPGavZTljM12J4a6qYox6YiuqKasO+JmPFHx4IcW6HlbuC1wfJsjssZxjEMTRmFymiZY+t7uL9cwqdulr5khLsan86pXmckG06tKC6IT5j8ycm5Y0K1ruoVZW/XVRYt0cc8O+Yxinhid0d+HgxjlHl6zzHqVeTzFybdi1b46uGI4qoxinhiZ2U79+E93VKX1Bo3VehsYZxHVOGVGJVCSbVMchsm7a3MlCSSc+9uZKnrO5nuq6qU7IdWfVR9OheA3DT9MyOlWPu+Qt027fThvntqq3zPbMvQemaTp2j5f7rp1qm1a6cN9U9dUztqntmZVZHfSLh5WRUEF9cWbeVEOU2SDcjSrOFHkNk4RKQa2Xn0OJJaT6l1LxIcdV21RPDXVTE9sw4qr1mirhrrpirtmIcuRkZdS8SP2H8hl8hl0+QxyOV88ubEgRn5s6VHhQ4ranZMuW+1GjR2kF1W6/IeWhpptBF1NSjIiIfNVVNFM1VzEUxG+dkel811U0UzXXMRREYzM7I+VbxkPMDi5i0pcK733q+PJbM0uNRssrLM21F4Ghw6t6alC0n4GRmRkftERd5h0OxVw3M1Y4uyuJ+bFC3+ZeX8vVwXc5l4r6orifmxfrj3LrjBlUhESj3zq6VJcPytsv5fU1q3FfIhsrORD86z+RJdTM/YQ/bXMGiX54beasTVP14j58H7Z5k0DMVRRZzmXmqejjpj55hcFFmRJ0ZmZBkx5sOS2l2PLiPtSI0hpZeZDrL7S1tOtrI+pKSZkYl6aqao4qZiaZTNNVNdMVUTE0zumNsS47IMdocsprDHsnpqvIaC2jriWdNcwY9lWT4y+hqZlwpjbsd5HUiMiUk+hkRl4kQ+Ltm1ftzav0012qowmmYxiY7Ylx3rFnM2qrN+mmuzVGE01RjE98TsR4+5BwO1Xx+w2NuzUsuwxuns8yp8Zs9bvqXY0sR+/RPWzPxifIWqfVxYioXRUJ1TzJIUfpKb6Eg8k5w5WyGlZeNS0+Zot1XIpm3vpjHHbRO+N26cY6sGLc88n6do+VjVdNmbdqq5TTNrfTGOO2id9MRh7O2OrBVvsr5jdvQ966/fluvY3Vy8Sy2qguOLU1XW9w3a1ly5EbMzQyizZq4qnST0I3GfN90pRn3/LfM3JpzWVmf3MTRXEdU1YxVh34R6OuUl5WZm7wZzJTP7imqiuI6qqsYqnxwjHo2dq67dMWTUZ3zMwiXUOSMo5FaCqJ+mSYSRy89kYJg+SYvkuvadxz0USsjorGwZsGq5ta5D0e1ceQg0oWZTmpRNvNajlaqf8AUZzK0zZ/6nBRVTVbp+tTM8XDvmKsVi1Smq3nNUylVOOYz2Tpmx13Ph26qarVPXVTMxVFMbZiuZjdKnuER7zjfldpsbkO9e5tTvcNsHosay3JsYrqCVTXDdw1EncZ6mpoUNQb7K8st5cN2PFVHftJLzRp8ykkrr1stTc0e/Oc1fju2506immqqmIwnHCcvEU7Kqq5mMIwmqZjB0spTd0O/Vnta47tqdLt00110RTNNUThOViKfarrqmJinCa5nsX/APGvEMgwHQeoMNyphUTIsewHHa+3rlOtvfU0tEBpxdCl5ozZdRQJcKElSPoGlgvL4dBatGy97K6Vl8vmIwvUWqYmOqcPZ2bPV9nwXLQsreyejZbK5iML9FmmKo/VnD2f8Ps+CuAk0sAAAAAAAAAAAAAAAAAAAAAAAAAAAAAAAAAAAAAAAAAAAAAAAAAAAAAAAAAAAAAAAAAAAAAAAAAAAAAAAAAAAAAAAAAAAAAAAAAAAAAAAAAAAAAADHn3S/0Ldmfzjhf411QqfO35dvd9H2oUvzB/K1/3qPtwxg9mT9Ira/5mGfx2phSfLv8AGL8//H/bhQPK/wDHM1/TftwklDYm5gCHDztM18veSKlqWsy2DLSRrcWsySihpSQgvMo+iEEXRJF4EXgXgPPHNG3X85M/86Y/9MPMXN+3mfPROP8AG/Zp3JRtTszHdO8UMX2lmL76cfwjSGIZDarQan5stMTD6pTUOP6ijU/PspSkMteY/pOuF1PxMxt9vOWNO0KjOX8Ys2stRVPhRGyO2Z2R3vQNvP2NM5dt6hmpn4FrKUVT17KI2d8zsjtlFw3vyf3ty3zhH4S2N/Ir7i1TCwjTuKrsH6OtVNeS1XVUSjrurmT5E8RIJ2U+h91xzr6ZNtl0LENU1rVOYM1jemuaKqsKLNE4xGM7IiI9qqemqcd2zCHn3WNf1jmTN/v5ucFdWFuxRM8MYzsiKY9qqdm2cZx3YQqzi/a65l5LBZsT1tjWKMSWydRFyvM6SvtiI/4EmtritXIzhEfU0rURl+2O/Y5I5ivUxc+BRRE/r1xE+MRjgkst5f8ANN+iK/gUW6ZjdXXFM+MRxYPwy7thcy8Vr37Ner6PLI0ZBuLYw3L6O4tlEXVRlFqZn1XKkrIk9fK35lH7CIzMiP8AMxyVzFYomv4FNdERuorpmfROE+h+ZnkHmjL0TX93ouUR0UV0zVPdE4TKk2h+T+9eKWaeridxdswKm0VCzLUeUvWDeO2vubxtWNVYUU/yuY1fMka0tymEMPsuH98JxHVJ9HS9a1LQszxZea/h0zhXaqx4Zw3xNM+zVG3CYwnwRukcwavy7muLL1Vxboqwrs1Y8E4ThMTTPs1RtwmMJid+MJbendq4xu3WOF7Uw51xzH80pI1vEZfIimQHl+ZmwqJ6C6E3Y1Fiy7GfT8jrR9PDoN60/PWNRyVrPZf+FcpiY6464ntidk9sS9IaZqGX1XIWtQys/ubtEVR1x10z20zjE9sMe/eF/RMrvzw4D/utXwqnmB+BR/Po/SpfmZOHLtP9Tb+apaf2U/8ASvkD/MeBfy7IRAeW38bNe5b+epXvKz/cZz3Lfz1M5WwdZYFtbH1YvsPF6vKqQ5UaezFsW1pfgWUNfniWtRYxXI9lTW0VXX05UR5mQ2RmSVkRn103N5LK5618DN0U3LWOOE9ExumJ3xMdExMT2tYzuQyeo2fu+et03LOMThPRMbpiYwmJjomJie1SrCOKGlMEyKBl0WjyDKcnppDsrHrvZWdZrs2bi7zxElbuMHnd9fM0D5pT0J6Kht8i8PP0MdHLaDpuVvRmKaa7l+n2ZuV13OHtp46quGe2MJR+U5c0rKX4zVNFdzMUzjTVduXLs0e58SqrhntjCe1ccRdPlMTCceQAAAAAAAAAAAAAAAAAAAAAAAAAAAAAAAAAAAAAAAAAAAAAAAAAAAAAAAAAAAAAAAAAAAAAAAAAAAAAAAAAAAAAAAAAAAAAAAAAAAAAAAAAAAAAAAY8+6X+hbsz+ccL/GuqFT52/Lt7vo+1Cl+YP5Wv+9R9uGMHsyfpFbX/ADLs/jtTCk+Xf4xf/p/26VA8r/xzNf037cJJQ2JuYAhw86/0vOSX5w5v/QVMPPHM/wCP5z+fP2YeYeb/AMz57+d+zSzo8zq+2sO2K2dV6hlXa00fcW5N+J/UNXJwyZbrX8pMR4rZuOH7CQg+vh1Gn8yUXK+Sv3f0bNmZ7o4Jn5N7Xeabdy5yD+7+jYsVT7sTRM+GG/sYRuDW4deaI5J4bsbaEaR+CtfW5DVuW0SAu1fxuwu6xyBCvvq9lK5LzEf1FNPKZSp1pp5S0pV5eh5pyzn8ppes285nY/08RVGMRjNM1RhFWG/DfE75w2xDJ+UtTyWka7az2f8A9tEVRjEYzTNUYRVhhjhG2Jw24bcJSksH5NcetkRWZeE7o1vfof6G0yzllRGnq83yKrJ8iJZIUR+BkpojI/A/Ebflta0jO08WWzFmv/HET6J2/I9B5TXtFz1MVZXNWK8ejjpifRMxPyK2sPx5bSH4zzMlhwiU28w6h5pxPXwU242akKL9kjEnTMVRjGGHZuStNVNUcVM4wwydwnt8bG3vtnH9paNqcRRMuMeXV7GYtrpGPuy7ipfSmivkEcR5qZJl1T6or6+pL8sRnqR+JjOebeU85qmfpzumU24qqowuYzw41Uz6tW7bMxsnuhl3OnJme1fUreoaRTaiqqjC7jPDjVE+rVunGZp9WenZC73t96P2rx60GrW+2io27qLnGTXFLFobVVxGh0FyUCUll6X7uw0mQ7b++PGhslESXSMz8xmRWDlPTM9pOlfcs/w/Ei7VNMROMRFWE7/e4pWXkvSNR0TRvuGp8MXYvV1RFM4xFNWE79m3ixnx61Ee8L+iZXfnhwH/AJG+Ed5gfgUfz6P0onzN/LlP9Vb+apad2U/9K+QP8x4H/LsiEB5bfxs17lv56le8rP8AcZz3Lfz1JAg1dsgAAAAAAAAAAAAAAAAAAAAAAAAAAAAAAAAAAAAAAAAAAAAAAAAAAAAAAAAAAAAAAAAAAAAAAAAAAAAAAAAAAAAAAAAAAAAAAAAAAAAAAAAAAAAAAAAAAMefdL/Qt2Z/OOF/jXVCp87fl2930fahS/MH8rX/AHqPtwxg9mT9Ira/5l2fx2phSfLv8Yv/ANP+3SoHlf8Ajma/pv24SShsTcwBDh51/peckvzhzf8AoKmHnjmf8fzn8+fsw8w83/mfPfzv2aUrfWFFT5Px91xjeQ1sS4ob7T2G1FzUz2SfhWVZY4bWxJsKS0rwWzIjuqSovmPwG7ZO1bv6VZs3aYqtV5eiJid0xNERteishZtZjRrGXv0xVZry1EVRO6YmiImJYO9/dn7YuP20+2443tXmOJPOuvQMJy61TTZZRtLUakVkS/lp+pr6FGT9Fp2QuLJJBJSv1VEbh5nqvl9nLVc16RXFzL9FFc4Vx2RVOyY6ImcJ68d7JtZ8tM9YuVXNDqpu5ad1uueGuns4p2VRHRjhPXjvY9cn4Ycp8TkuqveOuySOOfQ7KnoG8hiGfiX3ifQvz1L9nzEfQVK/y5rliqfiZS9s6Yp4o9NOKl5jlbmHL1Y3slfx66aeL5Ymf0KeNTt0aoeN1L+4dZPsOF99ePO8KJtwj6+Dz31Y2lRmXyK6H+0OnFWpZDbTOYszHTPHRh6cHRivVdOnGJzWXw/mUfLswXSar7lHLjWMuKtew0bOomltnIx/ZURq6TIYb8FMsZJDTDySG4pPh51PyCI/4BicyXOWv5GqMb3xrePs3MKsf8UYVR6ZWDTueuZMhVEzf+8WdmNN2OL/ANcYVRj3ykZ8UOUeF8rtaJznGYrtHc1U0qXNMOmSWpU/GbwmEvoaKS2ltM6qsIyiehyiQgnkeZJpS4hxCdf0HXMvruS+9WYmm7E4V0TOM0z39MTvif0xMNw5c5gyvMWQ+95eJou0zw10TO2irfhj0xMbaZ6dvTExFpveF/RMrvzw4D/yN8ILzA/Ao/n0fpVvzN/LlP8AVW/mqWndlP8A0r5A/wAx4H/LsiEB5bfxs17lv56le8rP9xnPct/PUkCDV2yAAAAAAAAAAAAAAAAAAAAAAAAAAAAAAAAAAAAAAAAAAAAAAAAAAAAAAAAAAAAAAAAAAAAAAAAAAAAAAAAAAAAAAAAAAAAAAAAAAAAAAAAAAAAAAAAAAAx590v9C3Zn844X+NdUKnzt+Xb3fR9qFL8wfytf96j7cMYPZk/SK2v+Zdn8dqYUny7/ABi//T/t0qB5X/jma/pv24SShsTcwBDh51/peckvzhzf+gqYeeOZ/wAfzn8+fsw8w83/AJnz3879mlmm5f8AIjdXHDirxayjT1jU053tLhlBklja4/FvyS2euoNhUw2ETVe7RTkuw31KV5TWom+hGXj10nmDVtT0jQ8jf06aaeKmimqZp4v8uJiIx2RjhLVOZtb1XQ+XdPzOmVU08VFFNczTFX+VE0xGOyMcJe/bS5q7I5FXmzcF3VklBaZZURKbJsJ+rqOBjj82gWciBkcVMaEomrBdVPKK6pXl9RDcovakvo/PJnMmc1e7fyupV0VZimIqowiKcadsVR24ThPj1P3kPmvPa3ezGT1WuirNUxTVbwpijGndVGEb5pnCZnqqZc+vzH0/cGgNJfLNhQ57C4thEizorqVJcjTI7MlhaFEaVJcZeQttaVJMyMjLxIflVFNdPDXETT2xi+aqKa6eGuImmeiYxx8GALu6aJ0prmo1jsLBcXosJz3L8us6O4rsbisVNfk1JGpnrGXaSqSGTUJqbUTksEctptCl+8+R01mtBpyjn7S9NydFjN5Sim1mblyYmKcIiqIjHGad2ycNsdeG3GMMb8ydJ0nI2svnMpbotZy7dmmYpiKYrpinGZmmNmNM4etEdOE44w+PsrSLQthb8iN+sVG5iWFSZSU+b3Y7hq2tmYil/wAE30wHHfL8vlM+g/PLfjjN5qI/hfDox78Zw+TH5Xx5WTcjO5ymP4XwrePVxY1YeOGK8LvC/omV354cB/5G+Fh8wPwKP59H6Vm8zfy5T/VW/mqWndlP/SvkD/MeB/y7IhAeW38bNe5b+epXvKz/AHGc9y389SQINXbIAAAAAAAAAAAAAAAAAAAAAAAAAAAAAAAAAAAAAAAAAAAAAAAAAAAAAAAAAAAAAAAAAAAAAAAAAAAAAAAAAAAAAAAAAAAAAAAAAAAAAAAAAAAAAAAAAADHn3S/0Ldmfzjhf411QqfO35dvd9H2oUvzB/K1/wB6j7cMYPZk/SK2v+Zhkv8A+bUxik+Xf4xf/pv26VA8rvxzNf037dKSUNibmAIcPOv9Lzkl+cOb/wBBUw88cz/j+c/nz9mHmHm/8z57+d+zSkoZdoOh5LcMsN1Ney1VTlxqrXM/HcgbYTJexzKqrGKqXRXSI6zSUhqPKT6chrzJN6K6635k+fqWyZnSrWs8vW8hdnhmqxbmmrfw1U0xNM4dO3ZMdMTMdLdszo1jXuV7WnXp4Zqy9uaasMeCuKaZpqw6cJ3x0xjHSjG7G1Vv/h/saC7lVfkeucqx+euTiuwsdfmtUFn5TNhNhjOVx0Jhvx5jC/K5FfUh4kKNp5rqSiGLZzI6ty9m4m/FdnMUzjTcp9me2mrdt6p7phgee07WOWc7E5imuxmaJxouU48M/WprjZt6YxxwnCYXUYx3Y+X1BEYi2FrrrM0NNIQmZkeGKj2Tvl9jr8rHLakiOrWn2mUcuvtE7Y575gtRFNVVq5H1qNvppmmPkWHL+Y3MtimKblVm7GG+qjb6aKqfmc1bd3nlnPjqZr4OpaFxXsmRcRt7CQj2kZtossldipUfXqRrbWXX5DHJc5/1+qnCmmxTPXwTPz14Oa55lcxV08NEZaieuKJn568PklZpc5LyG5h7NjKmOZjuvYktH1fAr6yGUiLQ1zj/AK64zEWAzGoMRpG3FG66tfu7Xga1qUZdRXbt7VuYc5GM3MznJ2RERspjqwjCmmn0R0qtdzGt8z56Iq+Lms7OyIiNlMY7sIiKaKevHCOmUmXgbxM/7KOppNVfSYdjsvO58bItgz69xTsCJJjxlRqfGK2QpLapcDHYjq0m+aU+vJeeWREhSCTs/K2hf9iyE27uE527PFXMbow3Ux1xTHT0zMy3rlDlv/67p0270xVnr0xVcmN2MRhTTHXFMTO3pmZncof3hf0Ta788OA/8jfCN8wPwKP59H7SI8zfy5T/VW/mqWn9lP/SvkD/MeB/y7IhAeW38bNe5b+epXvKz/cZz3Lfz1JAg1dsgAAAAAAAAAAAAAAAAAAAAAAAAAAAAAAAAAAAAAAAAAAAAAAAAAAAAAAAAAAAAAAAAAAAAAAAAAAAAAAAAAAAAAAAAAAAAAAAAAAAAAAAAAAAAAAAAAALOOfmssk21xO21ieIQ3rLJG6qBkVXUx0G5Itl4xbQruXWxm0kpbsyVXw3iYbSRqdfJCC8VCvc1ZO9n9Cv2MvEze4YqiOvhmKpiO2YicO3BWOcshf1HlzM5bLRNWY4YqiI6eGqKpjvmInDrlGq4fcp7bids+ZsaqxeFmlXkOP8A4KZRRSJi6uwcpk2kez9WmsTbeZgXMSZEIjRIaW24XmbX5DIlJxrl7XLmhZ2c5RRF2mujgqpn1ZwxxnhnoqiY3TGDCeWeYLvLmoTnrduLtq5RwVxPqzNOOPqz0VYx0xh0JP3Hbl7o/k3UtyddZS01kjMYn7fAL/0qrNKXp5icN+oW857/AA0Gnr71DXIjGRl1WlXVJbXpHMGm61Rjk6/30RjNFWyuO+OmO2MYb9onMuk6/airI3ML+GNVur1a6f8AD0x2xjHb0LnT+Tx6eJf/ACCbT6G3zhlRZvLbkjIhyGZUdWyLdgn2Fk40b8OtrIEtolpM0qXFmxnGlkX3LjaiP2DzxzNNNWu5yqmYmn407e3CI+SYweYebZpr5lz1dE4x8eY8YpiJ9ExKWtpNBp0zqNC0mlSdY4ClSVF5VEpOK1RGky9pGR+0hvWmx/47L47/AIFH2Yej9K2aXluv7vb+xDvlvSU2QQHqq+qay7rJBdJFdbwItlAfLoaej0OY09HcLooy+kk/Ax2blq3dpmi7TTVRPRMRMeiXbu2rV+ibd6mmu3O+KoiYnwnYtfveCfEDI5D0uy4/a8RIfWpx1dTWPY8S3F+Klm3QSqxrzKP5fKIW7yvy/emaq8paxnqiafszCAu8o8tXquKvJWIqn9WOH7Mw4uu7ffDSreS/H0Bhby0qJRJslXVwx1L2eaNbW02MtP7BoMhx0cp8uUTjGUtz38U/JMzDjo5M5Xt+zk7U9/FMeiZmFzmJYJhOA1xVGD4jjWIVZEgvq/GqStpIivTIyQa2a6NHQ4pJGfQ1EZibsZXLZWngy1ui3R1UxFPzJ/LZPKZOj4WUt27VvqppimPkiHD7L2rrnTmMSsy2dmNJheORD8qp9zKJpUl8/uYldDQTk60nueb6EeM068r5EmOPOZ7J6dZnMZ25Rasx0zO/siN8z2REy48/qGR0zLzmtQu0WrEdNU4Yz1RG+Z7IiZRx+e3cJrOUdEzqfX2GyqjW1Vk9dka8syVRM5NkljSpltwTr6VhS2aKnJctaleu47JfIk9UtF1I8f5p5to1u39xyluaclTXFXFV7VUxu2fRjbO/GZ7GHc4c52+YbUabkrU05Gm5FXHX7VU04xGFP0Y2zvxmexd12X9b5BXYtt3bU+M9FxvMp9Bi+KPOtLbRd/guq1dvrSGtZEUiujz7BuK26jqhb7T6SP6An/LnJXqLGYz9cTFi5NNNGzfw48Ux2RM4Y9MxPUsvlbkb9GXzOpVxhl7s00UfW4MeKY64iZwx64nqZwRpjWAAAAAAAAAAAAAAAAAAAAAAAAAAAAAAAAAAAAAAAAAAAAAAAAAAAAAAAAAAAAAAAAAAAAAAAAAAAAAAAAAAAAAAAAAAAAAAAAAAAAAAAAAAAAAAAAAAAep+0un2ez/B0AY3OUvbR0zyBctMtxEkaj2lOcemycioK9p7HcksHCUtTuW4shyNGkyJL3i5MirjyzNRrcN4+hCm67yXp2rcV/L/AOnz0zjNVMerVPXXTs2z01RhPXiovMHIelazxZjLf6bUJxmaqY9Wqfr0bImcfpRhV14o/O6+NPIPiXlESyzOju8b+qp3r4ztfCpdg5jjj7ZkpqZVZVXpjyqSWpHQ3I0sozxEflUlaPFWU6lo+raFeirMU1UcM403aJnhx64rj2Z7Jw7mM6roOtcuZiLmaorommfVvW5nh74rjCaZ64qwnwVPT3J+ZDuGrxBO3/Ujvw1Qk5OjHMd/DBERxBoNTOSNQUyEzPKfhL8pyUq8ScIyIx3P/uXMU5acv949XDDi4aeP/wDLDf27+1IRz1zROVnLRmfVmMOPhp48Pew39u/tUf4y8fM15SbZpcHxyLYzqdy3j2GyMzcKRKhY1jhzCkX9hZ2zilNu31mybjURpThvvzHUrMvKS1DoaNpOZ1zUactZiqbfFE3K+imnHGqZn9adsR0zM96M0DRs3zDqVGUsRVNuaom7c2zFNGONUzP61W2IjfNU9WKZhXwYtXAhVkFpMeFXRI0GGwn7lmLEZRHjtJL5EtstkRftD0RRTTboiinZRTGER1RG56hoopt0U26IwopiIiOqI2YPsH2+jqA+Kxsa+pgyrS1nQ6ytgMOy51jYyWIcCFGZSa3ZMuXJcajxmGkF1UtaiSkvEz6D5rrpt0zXcmKaIjGZmcIiOuZl813KLVE3LkxTbpjGZmcIiOuZnZDDvye7tmC4Uqxw/jpXxNlZS0p6JIz20TJZ13SvpJTanKtDZsWGZSmXSPy+ipiCZl1J9xJ9Dz3W+fsrlpqy+jxF69um5OPw4ns3TXPdhT2yzLX/ADIyeVxyuiUxfzEYxNyYn4dPu9Ncx2YU9ssJdhbcheYW0kFKezPdGyLBTiolbEbVIh49AeWtSkwYLZxsewyibIz8yzKM15CM1rV0GaV16rzDnomfiZnOVbojbFPh7NFMeEMorua1zNqERVN3NZ6d0RtimNvRspop7dkdbMhxg7ROP0Kq/MOTlpHy+2JKJDOrMekvIw+vc6JNLWTXrfu8/KXW/wCEwwUWH5i6KN9BmR6LonINq1FOY1qYuXN/wqZ9SPeq31d0YR3w1Dl/y1s2eHNa/VFy7/yafYj3qt9XdGFPR60M01NTVOPVVfR0NXX0tLURGK+rqaqIxAra6DGQlqPDgworbUeLGYbSSUoQkkpIvAaPbt27VEWrVMU26YwiIjCIjqiI2RDUrVq1Yt02bNNNFmmIiKYiIiIjdERGzCHJj7cgAAAAAAAAAAAAAAAAAAAAAAAAAAAAAAAAAAAAAAAAAAAAAAAAAAAAAAAAAAAAAAAAAAAAAAAAAAAAAAAAAAAAAAAAAAAAAAAAAAAAAAAAAAAAAAAAAAAAA+KfXQLWFJrbSDDsq6Y2bEuBYRmJsKUwrxU1IiyEOMvtKP2pUkyMfFdFFymaLkRVRMbYnCYnsmHxct27tE27lMVW53xMYxPfE7Fr9pwa4hXNm9cWXHfVzthId9d9xrHI8Rl501ebzOQ4Zx4S+p+0jb6H7Ogha+WdAuVzcrydjjmcZwpiPkjCEBc5S5au3Pi15LL8czj7OEeiNnyKfbo5V8WODFdCwJ2lbobyZVHd47rLXGGFCetWFG9GYmHKai1mNx0OyYptuvPSjebSXmUky6denqWuaHyxbjK8PBcmnipt26MMe3HZTvjbMzi6Wq8xcvco26clwRRdmnGm1aowx6px2UxtjbMzitq0J3d9WZ9kcnG9zYu5pn3+yeRjGTfWbmRYmqE44ZQYOU2LUCLJoLVKCInJBsrr1KV/xrZEfWH0vn/IZq9NnUaPu+M+rVjxUYTuiqcImme3Dh7YQWjeZen5zMTl9Ut/dcavVqx4qMOiK5wjhnrqw4e2GXWusq+3gRLOqnQ7Otnx2pUCwr5LE2BOivIJbMmHLjOOMSY7qDI0rQo0qI+pH0F+ororoiuiYqomNkxtie2MGlW66LtEXLdUVUTGMTExMTHXExslYbyg7imjOOPv2ORZv5TtoMpdaRguJTWHGqiUSUkn8L8j6PV2PNIUr6bJevO6F4MeJGdX1vm7TNH4rUT8fOx9CiYwj36t1PdtnsU/mDnfSND4rFNXx9Qj/LomNk/Xq3U922rsR6OQvLvffKy7j1uZXUtGPy7BDWO6lwhmwZx1UpbiziNLq4vrWmYWqPVNKHZfrK8foNoLoRZLq3MGq67d4MzVPwZn1bVGPDj0bN9cxO6Zx7oYtrPMus8x3Yt5qufgzV6tm3jwzPRjEba6o6JnHuheXxi7TuzNjLrss3/Mm6pwtwmZTOHQTju7IvI6zSr055uFIgYUw6118HUyJyT8FMtH7LFovIWczfDf1WZsZbZPBGHxJ7+ij5Z7IWfQPLnP52aczrEzl8rv4Iw+LV39FEd+NXXEM+2o9I6t0TjLeI6qwyoxGoL01y1QWTcs7iUhJkc+9t5BvWdzPWalGbsh1ai8xknoXgNUyGmZHS7PwMjbpt2+nDfVPXVO+qe2ZbHpuk6fpFiMvp1qm3b6cI21T11VTtqntmZVWHfSIAAAAAAAAAAAAAAAAAAAAAAAAAAAAAAAAAAAAAAAAAAAAAAAAAAAAAAAAAAAAAAAAAAAAAAAAAAAAAAAAAAAAAAAAAAAAAAAAAAAAAAAAAAAAAAAAAAAAAAAAAe0BTDbGmdY7xxWRhu1MPqMwonycUy1ZMf5ZWSlpJJWFJaMm1Y0tk35SNL8Z1pwjIvHp4Do5/TslqdictnrdNy1PXG2O2md8T2w6GpaXkNWy85XUbVN2zPXvieumY20z2xMSwC8o+09sbXSrDLuPsmbtLCm0uyZOFT1MlsejYSpavJWOJJmHmkZlroRJQlier5G3jLqrKtb5FzmTmcxpM1X8tG3g/zKe7dFcdmyrsljfMHl1nsjNWa0WZzGV2zNuf4lMdUborj0Vdksb2Pcgt16rxvI9U45tjN8Cxu4ddiXuFNXMmmciyEuLbnR4MWWTdtjT8tXVuWiGcZTxEZLLr1MU6zqupZGzXkbGYu2bNWMTRjMd+Eb6ZndOGHaotjWtV0+xXp1nM3bOXr2VUcU04dcRE7aJn6UU4YriuMvb+3xyTXBvIdYWudZSXW3ZOxMviSGjtIy3PM+7iOPrNmzyWQ4RK6SVmxC9T2vKPqQmNF5T1TWYi7FPwcnM7a68dvXwU76u/ZTPWnNA5M1jXcL1NPwNPn/ADK4nb20U7Jr75wjtSI+NnCTRPGOK3Lw7Hvr3OnIyWbPZGUoYssplmpCCfZrXDbTEx2tW4kzTGhIaLorotTh/SPXNG5a0zRaYnL08eaw23K9tXh0Ux2U+OLbNC5T0jQKePLUcecmNt2vbXPd0Ux2U4duK7wi6ELAsryAAAAAAAAAAAAAAAAAAAAAAAAAAAAAAAAAAAAAAAAAAAAAAAAAAAAAAAAAAAAAAAAAAAAAAAAAAAAAAAAAAAAAAAAAAAAAAAAAAAAAAAAAAAAAAAAAAAAAAAAAAAAAAPHT7Op/YQDo1xq/WeQ2yb+/13gt5epNtSbq4xGgs7ZKmenpGmxm178wja8peX6f0engOrcyWSvXPi3bNqq71zRTM+mYxdO7p+Qv3PjXrFmu9+tVRTM+mYxd4ShCEpQhKUIQkkISgiSlCEkRJSlKehJSki8CL2DsxERsjc7kRERhG55IiL2D9HkAAAAAAAAAAAAAAAAAAAAAAAAAAAAAAAAAAAAAAAAAAAAAAAAAAAAAAAAAAAAAAAAAAAAAAAAAAAAAAAAAAAAAAAAAAAAAAAAAAAAAAAAAAAAAAAAAAAAAAAAAAAAAAAAAAAAAAAAAAAAAAAAAAAAAAAAAAAAAAAAAAAAAAAAAAAAAAAAAAAAAAAAAAAAAAAAAAAAAAAAAAAAAAAAAAAAAAAAAAAAAAAAAAAAAAAAAAAAAAAAAAAAAAAAAAAAAAAAAAAAAAAAAAAAAAAAAAAAAAAAAAAAAAAAAAAAAAAAAAAAAAAAAAAAAAAAAAAAAAAAAAAAAAAAAAAAAAAAAAAAAAAAAAAAAAAAAAcZdXdNjdRZ5BkVtWUNDSwZNncXd1Pi1dRU1sJlUiZYWVlOdYhwYMRhCluuurS22gjNRkRAIuHO34nbSGoLW019wxwuJyGymvcehzdp5LJsaHUMGY0r01lj0SM3HyXPm21koveG11kFXlJTD8ltRKAR4M772Pd35N5DLrsQ3ZnlEc42Sj4Px0wSJj6oXmWaG0wJmOU1pnyvWV9H77ZvGoy+fr1D54+Q/ECWjLVhEyTutyI89JSmHo+Qcom2HW3/poWw23NbbQ0olfRJKSSReBERAOBT3Iu9HxVtUfhtvflliMmI6yw7A39S3uVRH+jpLKO81uXH7xKzkGg0GttSXjLqSVkYDMPw5+KizKDaVOK83tP099QyH2osrbOl47tPfVTTjvlOwudd2s6XV3jbKDI3fq+bAWSSM22HFdEGEvrQvIXSvJ/W1LtzQexsb2br6+Sood9jks3fdpbRJOTU3VbJbj22PXsE1kUiDOYjy2DMvO2nqXUKzAPhs2J0mtsI1ZORV2UiDLYr7JyImwbrpzsdxuJOcgLdjomoiSFJcNk3EE6SfKai69SCD5zb71/eJ4H8h8048bdgcdXbXHXkz8XyyJqC7j0Ww8HsHX/wcznHvUzpwvcLhhhSXmPOtcGa0/EcP1WFgJInaW7k+JdyPjbCzd4qqh3nr76vxje+B13qMRqrJnY7iq/LMeiSX5MssLzdiK7Jg+dx1UV9uRDW46uMbrgZTQAAAAABHM73HeusuAM/EdDcbkYbk/JO5KDlWcPZXXvZBjes8EfZccq4VpVwbWrddzHMlqQ9FYW6RRaxByHEf5TEUoOo9lbnh3QO4vmF/s7cKtNYjxV15IlUtvbUOrLGuyHZecvV5rj4diFpLzKSxXRcdbmsT7Ww9CQTZehEQ2a5K3YwSYQEUTvc95PmL2/8AlrjGmNCp1KvCrnS2K55JLNsGsMhuU31vk+aVM7yWMfJ6pooJxKKP6bXokaFEszUrzESQzwduDfuf8pOEHHXkBtL6i/D/AGhhL+Q5N+DNY9TURTU5Fd1rSa6sfnWTsVpMOA0SiN9fmX5lF0IySQd35a8zuOfCHWb21ORuxK3CaF1yREx6oSR2OX5tcR2PeFUWF4xFM7O/s/IaTcNtKY8VKyckOstdVkEOXl/8UfyLz6ytcb4da7x7SGGmcmJAznO4EHO9o2DS0k2zYsVT6ncGxh8/FSWFR7g0GZffjMgGOqJym77XIt56/wAT2X3B8raLpLclalibYxSjJDhdEqbjawrMeoyZMleCEN+QvaRewB5sNk9/TXzH4TXeY90WpgQzMlzchteSNjUt9UmozkxblydXLSlJGfVxsySRdfABVLSXxDndB0Bdoqti5xS7tq66THas8S3bg0CLeMMNEhTkVORYvFxHK4sx5s/+NmOSzLzdTSrw6BKX7ePxAPE3mvZUOsdhNOcbN925RYUDE80uIk3Ac1uHUss+5YJsFTVdHcs5ktZkxW2keBLdNSW46pa/MZBnpAAABjr7r3J/Z3DXgVvHkbpz8Gz2Lr1et/qAstqHr2gNOU7XwfDrYp1XHsKt2Qo6bIJHpGT6fTe8izJRJNJhiT7FXdx5a9xDfW5Nd8gk6tRjWB6hZzSlTguFzsbslXj2Z0FGRy5snJLdt6CmBPe6tE0SjcNKvORJMlBKAAYh+a3e74GcJJ1viGU7Dk7Z23Uk8xJ1TplmDlt3VWCYynmYeWX7k+BiGJueqbaXmJM47FpLhLKIsiMBHe3P8V9vy5k2EXQfGbV+B1qjJNbabMyDI9h3aUkaTN5+DQOYJVNKX0MvT6vEkj+7MwFU+1d31OdnMruB8f8Aj5t2fqKJrTYC9kNZLWYjrs6aymfg3qfPMyqlRLedfW02G81b4/HNXkPyrZSpJp+kaiCaMA4y5uqfHKmyv8htqyhoqaDJs7i6uZ8WrqamthMrkTLCyspzrEODBiMNqW666tDbaEmajIi6gIufOz4nbR2n7S119wzwyLyHyqvcehzdo5HKsaHUEGY0v01px6LGbj5LnzaFEoveG11sFXlJTD8ltRKAR3c772Xd25N5BLrsQ3ZndD796JMYRx0wSHj6oXmWaGygTMdprXPz9ZRkn77ZvGoy8PHr1D54+Q/ECWjLVjEyTutyI89JSmHo+Qcom2HW3/poWw21NbbQ0olfRSlJJIvAiIgHBF3Ie9JxUtUfhtvblliMmG6yw9A39S3uVRH/AL6lZR32tyUF4lZyDQaDW2pLxl1JKyMBmE4dfFRZnAtKnFeb2n6fIKGQ+1Fl7Y0vHdpr+qbcdJJ2Fzry1myqq8aZbPq79XzYCyIjNthw+jZhL70JyH0ryh1tS7d0HsbG9m6/vkqKJe47LNw4sxsknJqLuskoj22PXsE1kUiBOYjy2DMvO2nqXUKzgAAA+eXLiwIsmdOkx4UGFHelzJkt5uNFiRYzanpEmTIeUhliOwyg1rWsySlJGZmREAjMc7PiY+N2grm611xVxL/tO55UvvQJ+cLt149pSqnsPMJdRWXcZiXebB9IvWSpcBuJXqUSVMznkmfQI6O0PiAu61va4XXYfteLrNmcb6I2KaP1vRR5SmVmRpQzZ3NdmGZKeZSRffGpqFdTP2EfQg6PXbW792zEO5HQZt3PrmIs20Kl4vZcjKup6u+o616MSgVX1iScIlGRttl1SXTr0IgH42+7O/Hp9tOTZVsDuYY3BSR/5fm9jyBs6RCW1tmpTzGVfWVQlJLUkjUtHj18vy9AFYtJ/EY9zrSdq1A2BmuJ7yqoM1tFlj23sCqq+6bZYMkSIDd/hUfDbuJJWSTI3JXvakqPqaT9gCVB24u/dxZ52W9FqnMIj/HjkNbNsRq3Bsvt4s/Dc6tfSaS7C13nZs1zM+1kSDUbNVYRoU90jJMcpakrNIZ2QAAAfhKlRoMaRNmyGIcOGw9Kly5TzceNFjR21OvyJD7qkNMMMNINS1qMkpSRmZkRAIznO74mDjZx+uLvXHFjFP8AtPbAqH3oE/NfrdWP6TqZ7D0dLrdffRWJl1sE2U+slSq5uNXqUlJtTnSNREEc7aXxAvdZ3rbqrsP2rC1ixNU+iLiukNb0TEtbKzI0ttWl3X5hmK3mUkX3xmY2rr1PwI+hB0Wu2v37tmodyPH827nt1EV6SVS8WsuRdXU/fvVdZNmJQKrqtJOJJRkbbZdUl7ehEA/G33T35NQtoybKdgdzLHIKCV/l2a2XIOzpEpbW0alPsZR9Y1BElakkanEfwunXoZkYVg0p8Rf3O9J2zcHYGb4rvKrhTWUWWO7fwGqgXDbDBpS/Bav8Kj4bexJLiSMjclHLWlR9TSfsASne3H38uLPOm3otUZrDf47chbdLEWswnLreLYYVndqbbSVwte52bNc1LtpMk1ejVWMaFOdI0oje9qJZkGd4AAAAAAAAAAAAAAAAAAAAAAAAAAAAAAAAAAAAAAAAAAAAAAcLkmR0OH49e5ZlNvX4/jOMU9lkGRX1tKag1VLR00N6xtbWymPqQzEgV8GO4664syShtBmZ9CAa6PvBd47aXcK2VZ6P0ZZZJjnE2myBmmxPEKZidDyHeVzHmFGhZdmkOOgrSdDsrA0qpaFSfTjo9F19lU0/vQZLO2H8NMm9q6DdfcPK1rGJzMW1x7jNRWLtVaFHdT6zDu38mr3Uz6x1xtSVHR1jrMpo+hSpbaydiEEu3T2gtI8fcajYfpDU+AaqxuKymOirwXFqjHWnm0ure8056visyrJ5TzqlqckLdcUpRmajMwFXQHA5LiuMZpTS8czHHKHLMesEeSfRZLT197TTUF16Il1dpHlQpKC6+xaFEAjX9x34b3j7vqmvtk8MYlNx43THiSJzevo5Ox9J5/MZbQaK46tsn161tJSWzS3KrUKrfUP79CI1rkICJzxa5XcxezzyruYh1GR4bf4xfR6DenH7Mn3ouOZ1UxT8y664jR3JcD30oMo5FJfQTeNonUPMOPxXnG3w2VfFPlBqjmRobAeQumbdVpheeVZSSiS/Qbu8YvIp+73+IZNDjvSG4GR43ZIXGktpWttRpJxpbjLjbiwuJAYkO8D2yMY7j/HWVU0cSmqORusY9jfaNzaeRRUuTnG0PWuusgsE9DRieblFbaU44S0185DEtJGlDrboQC+FfLPfHa15hRM+jUt9S3uDX9hr3e2nrlbtM5lmLRrREXMMDv477TyIVrClwSkQJKm1nDsozLxEtBKQ4G0A4/b61hye03gG99OZEzk+u9j0Ma+oLFBJblR/UNTFhTXENLjiqzIKCyZdhT4izNcaWw42rxT1AVjAAABjb7pHcRwPtw8aLnadymHe7Ryv37FNHa+df8juW5yuIS/rCehH35rEMOZkInWzxeXq16cZC0yJTBKDXw8POLnIfu5c15NFPyC7ur/P8kn7K5A7ktmXJ7OHYrJskPZFkkw/KmIU+Qp9MCjrUm0y5JWxHQTUZta2g2ceg9E6y4zafwHRenccYxbXWuKGNQY9VtGlyQ4hs1vzrW1lkhtdlfXli87Mny1l6kqY+46rxUYCr4DX0/FL/rDMB/ux4H+PWzAEgbiRzX1fwD7EHGPkJs5ZzyqNUOUuC4ZGlNxrfYmwrXKcvPG8PqnHEu+gUtyO5ImyfTcKDWx5Ek0Oel6agi2af0Lzx+IF5cZZsnKb9dfilZOYbzXZdzHsPyV6QxF91b9Rr7AKIn0lY3BwyM4dTGcKTMc80yfIbJb0sBNV4T9nPg3wgoas8N1VTbJ2exGZ+uNzbYrKzL82n2BIb95kUbU+K7S4RAU8j73Gqo8cyQlPrOvuEbqgymkRJIkpIkpSRElJEREREXQiIi8CIiAeQFqHJXg1xM5e4/OoOQuisB2EcyO8w1kkumZrM5qVusKjlLos6pvq/LKaWyg/oLYloLw6GRp6kYQaO7R2Fdl8F6+631oCyvtx8YIklcm/OZHaf2RpqK88ko72ZNVkePFyLEW1uEj68iMMFGV0KYwwnyvuhkQ7C3e8vLK8w7g1zEy+RcKt1xsc4+bryawck2hWavTj0+pc/tpi1uz25/T0KC0fcN9L/kgPG4lyMpkJmwAAwx/EF/qkOVf+NpX/AGgNWAI7nwoK0N8sOTjji0ttt8dIi1rWokoQhOycWUpa1KMkpSlJdTM/AiAdg71Hfry/ZeT5ZxT4P5tY4rqikftMW2fu7GJTkHINo2Ta3a63x7X91FUmZT68jKJxhyxjLbkXajUbK0wfKqWFGu3J8OFvTlBUUW4eWF/dcddRX0aHdUmJsV7Ujd2a1kxZPplu1dyyuu13Xz4h+ozIs2pc9fnSo4BNqS4YSltNdjHte6Wro8Sv4u4psOxaQ37xkG45tts2znPIQhKpL0LI5j+NRHHTQSjREgRmSV1NKE9TAXvYTw64na1yihzbXfGzR2C5jizkl3HMqxHV+G47kNI5MqZ1FMXW3FTURJ8U5VNZyIznkcL1GXlpV1JRgK75FkNFiOP3mV5Rb19BjWM09lkGQ3ttKag1dLSU8N6wtbWymvqQxEgV8GO4684syShtBmZ9CAa6TvB94/aPcH2VaaO0XZ5HjnEymv2aXFcTpmJ0PId53MeYUaHl2aQ46Cs5sGysDSqloVJ9Nhv0XX2VTT+8hkn7Yfw0xX9XQbr7h31tVxpzUW2x7jNRWL1VbHGdR6zDu38mr3UT6p1xCkqOjrHGZTR9ClS21k7EIJeGntA6R4+Y1Hw/R+p8A1TjcZkmE1eC4tUY828gnVveac9XxWZVk8p51S1OSHHXFKUZmozMBV0BwOS4tjGZ00vHcwxyhyvH7BHpz6LJaivvaacgvYiXWWkeVCkoLr7FoUQCNj3HfhvuPe+6a/2RwziU3HfdUeJInNYBHJ2PpPP5rLaDRXLqm/XXrWzlpb8rcusQqt9Q/v0LqtchARN+LvKvmN2eOVlzEOoyLDMhxe+j0G8+P+ZPPRsbzuojK8y663jxnJdecw4Mk5FJfwTe9InUPMOPxXXG3w2VPFDlFqjmVoXAeQ2mrZVlhmd1ZSDhSzYReYvfRT93v8PyaJHekNwcixyySuPJbStba/Kl1pbjDjTiwuLAAEKj4lPugZX+GMvt5aTySdQ47UVNXZ8l7ynlqiTMnsb+Ezb0WpVyGSS+3jkGilRrC3QlflsHZjMZwvSYeQ8Fo/Zw7C9rzTo6jktyll5BgnGuXIdXg2HUrjlRnW5ygyPRftEWT8ZZ4trg5DS2UzWkqn2ZocKKcdskS1BOB4/8QuMfFjH4eN8ftIa71fBhtel77juOwkZFPUphqO7IuMrltyclupchphJOOy5bzjnTxMwFxwAAsm5T9urhnzMpJ1XvzRGE5Jby25BRs+qa1jF9lVEiQbSlTKzO6BEHISdJ1hCzafefiumno604k1JMIE3ds7O20O2bl1RsPCry62Pxoyy8bh4Xs1UZELJsEyj7/Pg4XsAqz040W6OPEU7XWsdLEaySys0tx3m1MkEn74fXunXvNPUt5x23tkP1xyN0TTQZsHJbF813G19Tm8xVRMnslr6rm5Xh9m+xX275/SlNyoUlZuPuyVEEjQAAQsviVO5/lTGVye3jpPJJ1DSV1PWWvJm8p5aos3IpWQwWLag1GqQySZDVAxQyo1lcISvy2BzWIy/vTUht4LNuzh2GrjmvS1XJTlBMyDAuNEiU6eE4nSrXVZ1uk4En0JNjHsZEdz8F9clJaWx7+2lc6yW24mL6CCTLMJwvH3h/xh4rY/Dxvj9o/XesIURv0znY9jsIsknrOOzFdk3OWTESsmu5khlhJOOy5bzi+niZgLkQABZVym7d3DXmXSTqvfuiMJye1ltyCj55WVjOM7JqZEj0lKmVmd0KIORIdJxhCjbeeejOeXo40tJmkwgT93Ds5bN7aOV1exsGu7vZHGTLLtELENkORkRMnwDJ1etNgYZsIq0m4se1WxGU5W20dLEaxJlfRqM+j0TCTf8AD490+95m6pvON2+MjVc8itF0sOwqsns5PqXO19TevHqo+QWbjhm5PyzCrKRHgWshX05bMuFIWbj65SwEj4AAAAAAAAAAAAAAAAAAAAAAAAAAAAAAAAAAAAAAAAAAAABEe+J95/WGB4PhvA7Wl+qFebRrWM/3u/XPmiXG13Gnqaw3CJDrR+ZlvML2uenTWuqXDh1zCFEbEtRKCk/w1fa9qbGEz3D9442zYLbsZ9Rxhx25hKXGiSamS/W5HuRceQn0pEuPYtO1tCs0mUd1iVLSXqlDdbCZyAAAAAAI7HxBfbHp+WvHi15L6txltXJTj5j8q5fXVRklY7O1HVpfscnxCc0w0b9rdYtHN20pTM1Ol5JUNtKlS0emGBj4arnlYaE5TSeJmaXK0ak5PveljcaUtRxMa3lVQf8AxbsYvUllGRnVNDXTSkpIjkTE1pqUSWT6hsDgABE++Io7SxbfxW4558ecWJzauCUhPcgsRo4ifediYFSRUIa2NDhx0EqXl2BVTBpsT6KdnUjKVF9OChDwYa+wp3W3uEW5U6C3Tkq2OK2672M3Mm2Tri4Gn9lTvd66sz5hxx0mq7FrtKGoeQ/R8iGUR5vVJRHUvBsUWXmpDTT7Drb7D7aHmXmVpcaeacSS23WnEGpDjbiFEaVEZkZH1IB+gClm7d0a2476ozrde3cmg4jrrXVBMyLJryc4lJNRYpEliFBYNSXLC5t5rjcSDEa8z8yY80y0lTjiSMNY/wA2eWO/+7rzYiXNHjV7bz8xyGFq/jlpercKWvGMWl2i2cfpEF6qYH17bvPnPvLFakMHIW4tS2obDSWQ2AXau7cuCdt/jZV63rDhX23M0+r8p3nsFpno5k2Ze6KQ1S1bqy9ZrDcLZkOQ6tk/KS+r0taEvy3iAZMQABr6fil/1hmA/wB2PA/x62YAsXyTYWze4rI7bPbx0o9Ofp9X66otbQa2S3IOpb2pmmQXeR7R2JaJYIlPUOJYocclu+QzjQqySpB/fV9Q2M/EPilqjhXoDAuPWnahqvxjDa1v6ytlx2mrjNcrlMsnkec5M82alTMgySc16rpmpSGGibjs+SOwy2gLlwAAAAHw2lXWXlZY0t1XQbent4MurtqmziMT62zrLCO5En11hBlNuxZsGbFdW2604lTbjajSojIzIBrUe9t25pHbu5YottYwbKq4/bmdnZ7pWwiqlIRhdtAmR3sp1uxak6p8peEWUxh+vWa/W+q5kTqtbrbqwE03ssc8nOenCfDcty23bsd2areRqvdROOI9+ssipIbLlFm77ReVRozvG1sTXXSQlo7JM1psujJ9Ay3gMMfxBf6pDlX/AI2lf9oDVgCA1xK5dWXFnUvM6lw+wtqbZPInSlBpTFr2t8yE0+P2+waG12U+qSjouLNscHrZUCM4lSVtLmG4gyWhICSL8PZ2cKW4qcX5+8pMVYtmJjibXjTq/IoDciuXGZNSWNz5TVzWltTvWeLrjMd1PpoJv6zNKzVAcbCZ4AAACJF8T5z/ALDAMEw7gfrO/VCvtq1rOe72frnzRLi64jT1s4fhL7rR+ZlGZXtc/Nmt9UuHDrmUKI2JaiUFH/hq+17U2kRruH7xxtqwOPZTqjjDjtzCNcaNMqZL9dkW5Fx5BelJlRLFl2toVmkyjvMSpaS9VMN1sJnoAAAAAAjt/EE9san5b8eLbkrq7GW1clePmPy7lxyqjpKx2bqSqS/Y5Ph09plo3rW6xiMbtpSGZqdI25MNtKjmI8gYEfhrOeU/QPKiRxPzO5WjUfKB8o+PR5Tijh41vGrhdMYso3UllGRnNREXSykpIjkSyrTUokseIbBIAAaqXkJAuOTXdQ23jeSypEidt3nBlOCynfeEIejVd1uiTh8GGxJc9NKEVNH6TDKj6dEMpAbTfD8SxzAcTxnBsPqIdBieHUFRi+M0dcyiPBqKGhgR6yprYbKCJLceFBiobQRewkgOxgAAAALduWnHLCuW3HLb3HjP4UeXQ7Owy1omJL7XquUOREz75imUwfFKkWWL5JGiz2DIyI3I5JV1SakmGtu7Um0so4i90njw5aSlUcmLus9EbGiH5nGF1eb2kjWWSV8pv6Prpg2NgiQ11L6MiM2vp1SQDaNAADVUcm4l1yV7qG6MeyKW8/Y7X5uZZgTrvrJQ5Eq7TccnC6uGw+55UJRUUaWY7SldCJDKQG0xwrDsa13h+LYDhlRDx/EcKx6nxXGKOvaSxBqKCgr49XU10VpBElDEODFQhJfMkB2YAAAABb5yr464Ryy477b487BhRpeObQw21x8pEhr1l0d4pr3rGMpgkRpUizxbI48WwjqIy++x0kfVJmRhrYe1ptDKeH/dH49P2stVHKqd4/kM2PF+k4wupzK2lavyuBJa+j66IUqx9drqX0ZEZtZdFJIBtIQAAAAAAAAAAAAAAAAAAAAAAAAAAAAAAAAAAAAAAAAAAAfk++zGZekyHUMx47Tj77zqiQ20y0g3HXXFqMkoQ2hJmZn4ERANV5yWzXMe5b3O80nUUt+TZ8jORtZrnXzjql2LVPhr+RV+vcBMyZQjzV9Hh8KK88aCSnyNrWftNRhtBdSavxHSerteafwGubqsK1jhmOYNjEBCG0mzTYzVRamEqQbSEJemyGYpOPumXmefWtajNSjMwqGAAAAAAPRxtt5txp1tDrTqFNutOJSttxtaTSttxCiNK0LSZkZGXQyAarvuH6WtOA3cl3NhuvUu401q3cdXtDTz7baGk1FBbyavZuvPcUNeRHoY+zYR4qOhJ6nEMBs7dCbVqd66P1BuiiWhVRtfWeEbDgE2olJaYy/HK69KOZkRdFxVTjbUXQjJSTI/YAq0A8GRKI0qIlJURkpJkRkZGXQyMj8DIyAa87v7dpk+Ge0l8mNF0D6eMe5chkHa0tfFcXC0vsuzU9NlY0o2kqbh4Tlaydk0ileVEV0noHRKW4pvBl2+HM7ratx4hW8Ct95G5I2pruidXoHKriUbkrPtcUUVTsnXsuQ6XmfybXVYx54BmtS5dE2aehHXrW8ErszIiMzMiIiMzMz6ERF4mZmfgREQDXo9/wB7ry+Yu2XuMWj8hec4z6WyJ9Fxb10lSYO49o1SpECbkhrZUSJ2GYktbsSmSfmalPetPI1pci+kGbT4eftOq4z69h8zd944cffu2MfL8mGMW8U0TtSauuoyVlYSo0hpLtfnWwYbpLkEf32BUm3HM0OyJrRBJ7AAABr6fil/1hmA/wB2PA/x62YAuX+FM4yQcj2jyD5aX1ezJ/JtRVOoNfyHk+p7pkWbpVeZpYxSMujM6DjVZCiE4X0vQtXkexZ9Qm/gAAAAAAAw0d+XirX8oO3LuJ5iuKVnWhon5ecClNRjfmtP4NElOZhWs+n0eUzdYFKsmjbIzSqQlhZpM209AjGfC9cjJWtecGYaEnzzbxrkXrO0RDguSXUsrz7WCZGWUchmN5vQXIVii7xtSunn8pl49CAbAoBhj+IL/VIcq/8AG0r/ALQGrAEAHt58Yj5i80OPnHeQUkqDPc+gHmz8RMj1o2v8cYk5TnS234xGuFIfxallMx3jMktyXWzMwG2Go6Soxqlp8cx+th01Dj9XX0lJUVzDcWvqqiqiMwK2tgxWiS1GhwYTCGmm0kSUISRF4EA5QAAfm881HZdkPuIZYYbW8886okNtNNJNbjji1GSUIQhJmZn4ERANV7yezfMO5V3PM3nUEt+VZciORlZrbXbjql2LdThruRV+u8AMyZQjrX0uIwYrz3kIiJDbizPxNRhtAdQ6txDSGrNd6dwCvRVYXrHDMcwbGYKENpU1T4zVRamG5IU2hCXp0luL6sh0y8zz61rUZqUZmFRQAAAAAB6ONtutradQhxpxCm3G3EkttxtZGlaFoURpWhaT6GR+BkA1XvcV0pacB+5LufDdek7jTOstwVe0tPyGmm2UVFDdSKvZmv8A3BDJNo9DHUWDMRHQk+MMwGzo0Btep3vozTu6qNaFVO2NZYPsOCTZkaWmcuxuuvPdz6EXRcVc021F0I0qQZGXUgFXQGrD5+4vkXEPupcgXijPfWWveVNjuLGG3SdilLqbzM4+3cPNp5wnVqacqriMj1S83UyM/b1IBs1+PW9tfcmtKa23xq23j3WD7OxWryenkMupdehKmsJ+sKOySRJVFusfskvQprC0pWzKYcQoiNPQBWUAAAAAARFMw+Gs2zkHM3JOUNZyd1rV0dzyYtN8wsRPAMrXYQa2ftB7YDOPrnpyH0XJ7Md0o6nk+VtTpGpKUp6JIJdYAA1Y/cRxLIuJPdS5ErRHfTY4Ryhsdy4qTxOxik1OS5ZG29iBsvrJxS2irbqO16pebqpCuv0iMgGzO46b619yf0hrTfWrraPcYVs3FavJat1h5Lz1c/LYSVpQWaSShUa6x20Q9BmsrSlbUlhaTIugCtQAAAAAAiJ5/wDDV7ZyzmVmHJ+q5O61p6TIuSl1veDiStf5Y5YV9fabNkZ81QuT05EbTs9ll70FvINDanSNaUoSZISEuwAAAAAAAAAAAAAAAAAAAAAAAAAAAAAAAAAAAAAAAAAAAFoXcA2fK0xwf5ZbQr3iYtMN4/7StKZ0/wCBeKxKzh0nl+ZZ20pkkn7CMy6gIDfw6+r4mye6Xp2wnsLkRNW4lsvZ5pSRmhuZVYrKxupfd+ipJJYuMqjrT16fTSnp49AGyhAAAAAAAAAQCvio9dRcb5zak2BDjJa/KVx5pSspCUkk5dzhuZZZSuKWZeLi2aSRAR5j8fKRF7EkAk69hjOXs77U/FSRKke8zcYpc3waSv1UOm2ziWycvq6iOZJccU17tQNxGyQroZEkuhEkyAZgAABTHdGnNc8g9VZ3pbbeNQ8u1zsfHpuM5VQzSMkSoExJG3IiSEdH6+1rJbbcqFLZNL8OYy0+0pLjaVEGsb56cNN7dpjmREoqrIMhrmaC/ibO42bsrCTBk5Dj9Vbol0NyzIjpOJFzDFZ7SIlvCNJJbko85NqiSY63QzGc3fiLrTfXb0wDUWp2LTBeTu3qW0xDk9e1MeXVVmEUFUhmtt06+sVEZvK3JGkG4hbDqnKWAcqKpRvqZfIKR/D4dp0+U2yYnMDfONk/x21FkSTwLG7qCTtfuTaFK+h5CXospBs2WBYHLQl2f5kqjz7Im4X3xtqc2gNgEAAAAA19PxS/6wzAf7seB/j1swBIW+Gn1o1gvbIxfJ1QWY0/bW2dnZzIlJZSh+bFr7OJgVcp50jNTyGWcNV5OvQkkoy6e3qEgAAAAAAAAHAZXjdXmeL5Jh94wUmkyuguMbuIxkkykVd7XSauwYMlkpBk7ElLT4kZePiA1a3Ay8ncY+6jx0J95+A5rrlvQa5vHFSPRdZp52du60yhDzxeRKkrpLSUhwj8qHEmaTMkqMwG1IAYY/iC/wBUhyr/AMbSv+0BqwBGG+Ft16xlHcDznNpHiesePOZWcMjR5klPyfJsPxRKyX5FeRwq6ykkXikzSpXt9gDYKgAAAtF597Pk6X4R8sNpQHfQs8L4/wC07amd6dTTefghaRaPy/ISlW0hkiM/AjPx8AEBT4dvV8TZPdM0xOnsLfiavxfZWz1JSXVCJdRiczH6h536Kkkhi6yeMsjPp0WlPQ+vQBspQAAAAAAAAEA34qTXcTG+cWoNgQ4qWT2Tx6qEWchKSScu4wzMsqqFqX0+7cZpZcBHmPx8pEXsSQCTf2FM6ezvtTcV35Uj3mbi9RnWCyV+sh00M4psrL62ojmSXHFNe64+mI2SFdDIkkZESTSAzBgI2ffm7OeQ84Kir5N8b4MSRyS11jH4PZHgi3IteW58Grn5E6tiVthJcjw4+f4suXIKF7ytDdlDd91U6hbEVKgindv3ulctu1PsHJMKhUk69145kD7W0eNm0G7nHWoeRxPLCsJ9SUqKdzrjO2W2EsvvJiuNPk2hMyLI9Jn0wmRcXPiJO3TyFhVsLN86tuNecykoalYzuKvcj0KZinW2PJXbDo27HFHoa1ueZDs5ytcNBGa2m/YAzO4BtfV2161Vzq3ZOBbJqEeTz2uA5hj2YVyPUIzR55uPWNjGQa+h9Oqi69AHfgAAAAAAARu+/J2dsg5yUdTyV45Q4b/JXW2Mnj95hDjkSvRufBIEiRYV1dAspLseHEzzFnpcj3A5K0NWEV44q3UKaikAih8Ae6Hy47UmxslwuFST7nAV5A+ztTjXtJq6x5iLkUPywp86rRJjfXOuM7YbZSy9ITGcbfS2hMyLIJpomwmQ8W/iJu3XyEg10LOs4tuNOcyUoblY3uCvdax8panWmTTW7DomrHFnoa1udUOzl1rnkSZraR7AGZ/X+2NWbYrVXOrdlYDsmoQSDXaYDmGPZhXoJzr5PPMx6xsI6DV08Oqi9gCoAAAAAAAAAAAAAAAAAAAAAAAAAAAAAAAAAAAAAAAAAAAAAAAAADFL3w58mt7U/MqRENtLrmv8cgLNxsnE+7WuysIq5pEkzLo4qHMcJCv4CjJXj06ANc3xHwnmZmmf3jfCKv33M2ZVYtJmZC9x5ssxqcvh4a9Z1kSWuym4VNgWiaF62eiIcQtz0VPG31I1EnoGRD8inxCn8Q7on9PeQX9ZwD8inxCn8Q7on9PeQX9ZwD8inxCn8Q7on9PeQX9ZwD8inxCn8Q7on9PeQX9ZwD8inxCn8Q7on9PeQX9ZwD8inxCn8Q7on9PeQX9ZwD8inxCn8Q7on9PeQX9ZwFHdncDO8puyZVWO5uPnOLblhRRpEKjnbOr9m57Mpoct1D8uJVScqmWz1dGlPNJW42ypCVqSRmRmRAJwHYb0rtnQHbj1trfdevco1fn0DONp2U7Ecyq3aa/iQbbM7CXWSpVdI6SI7c6KonG/OSVKQZK6dDIBmQAAABGc+Jz23xboOIGN6l2jQxMw5D5jkjF/x/h189qHkWvU1khiNl2xLOQ2l2Szh8uq89WqG4n07aa635C80Jb0YIBFY7AYsq9+1iPWFWzOiO2UCPK9xkTYDchtcyIxN9GT7m9JjkpCXfTc9NSiV5VdOhhthu3ftjjfuThvonLOKFfXY9pWJhNXjWP4RDdjrsNdz8fjtwrvBsmbZWtxGU0dkS/fXXjNyetwppKcRJQ64F6gAAAADX0/FL/rDMB/ux4H+PWzAEqbsSNNNdp3h76TbbfqYrnzrnpoSj1HV7h2J53F+Ui8ziuniZ+JgMuAAAAAAAAADVVciHDou61t1+pbZhLqeeGVSa9DTKPQjOw96yX4/lY6emaEOoI/L06H7AG1VAYY/iC/1SHKv/G0r/tAasAR3vhPv0s+TP8Ad2hf2lYqAnegAAAxSd8KxlVnap5jyIim0uvYBj9c4brfqpOLa7Ew2smJJJmno4qJLWSFfwFdD8enQBrm+JGFcy802BdNcIq/fczZ1VisqbfvcebLManMIeGvWdZDmLsp2FTYFoigetn4aHErc9FT5tdSNRJAZEfyKfEKfxDuif095Bf1nAPyKfEKfxDuif095Bf1nAPyKfEKfxDuif095Bf1nAPyKfEKfxDuif095Bf1nAPyKfEKfxDuif095Bf1nAPyKfEKfxDuif095Bf1nAPyKfEKfxDuif095Bf1nAUd2dwN7yu7JdVYbm4+84tuT6KNIh0c3Z1fs3PZdNEmOtvy4tVJyqZbPV0aU80lbiGVIStSSNRGZEAm+dhjSm2uP/bk1zrfdmvMp1fnsHPNqWU3Ecyq3qa/iwLbMJ0qslyq6QRSI7c6KZON+ciNSDJXToZAMygAAx281e1hwt56xlTN56ris5+3GTFr9u4I83iOzYTLZIJhiTfxIz0fI4TCUEluPbR57LKTV6SWzUZgIw3I74UnctC/ZW3FbkPhewqknPVgYfuGtn4LlDUZLHmVGTlWORcjxy5nKfLyoU5DqWTJRGo09DAYlcs7Qndx4zZB9bU/HDdkOzrD94i5doe+YzJxpKUqdTKi2mq7+ztYnlQ35j86Wlo8CUSVeADlcV7r/eG4lSK2lyPeO+KhiueWw1jnIbEF5WqWtgjJyJIlbWx2dkrxN9DNSUTEqL2mYDJXov4rLkxjCoULkFx91XtevbcWUy4wOzvNXZK6yaSJs/SmHm2POOoUXUyTFYJXU/ufABIE4fd/ft9ctLGpxGRnNpoDZdsuNEiYZvBiBjddaWUlyNHbhY/nsKfYYXYuvy5KWo7MmXBmyDI/LGAZrm3EOoQ60tDjbiEuNuNqJaHELIlIWhaTNKkKSfUjLwMgHuAAADHjzU7WnC7npFVL3rqqGnPWorcSu25g7reJbOgMM+T0I7+RQ47rOQwWEt+VuNbR57DKVK9JDZqNQCMLyP8AhSdw0T9jbcVeRGGZ/Uk56kDD9x1s7B8najpYNSo6crxqJkWPXM5b6fKhTkGpZMlF5jT0MwGJPLe0D3cOM+QFb0/HDdMWzrT94iZboe+j5k60lJLcTJi2erb+ytonlQ35j86Glo8CUSVeADk8W7rfeH4kSK2lyPeO+qaPXvrYaxzkNiDmVnLWwSkuRH5O18dnZG8TfQzUluWlXh1MwGSnRnxWXJrGFQoXIHj9qrbFehxfvlvglleauyV1k0kSDJuUea4844g09TJMRgldT9ngQCQHw+7/AH2+eWVjUYhMzi14/bLt3IsSJh28GIGO1dpZyXY8ZuDj+fwZ9hhk92RLkpajtS5VfNkK6+SOAzZNuNvNtutOIdadQlxp1tSVtuNrSSkONrSZpWhaTIyMj6GQD3AAAAAAAAAAAAAAAAAAAAAAAAAAAAAAAAAAAAAAAAAAABjN7yeMuZb2veatU0yl9UXS9rkxtqJwyS3hVrUZk88XpGSvNHaoVOF1+j1T9L6PUBEK+F2y/wCou4rk2NqeebTnHHbYFaltC0JaffpchwrI0IeQpJrc8rNa4tJJMjI09T8PABsJwAAAAAAAAAAAAABbPy/5W6r4Vcfdgcidv2PuuL4RWmqDTxn47d3meUzSUzjmE4yzIWlMu+yKw6NNl4oYaJyQ6aWGXVpDWiZXkXKXvH89ikx4LuR7f3xljVXj1CxIsH8S1dgVb6rkaA086mQul1/rnG0OyZb/AJCU55H5K0uSpC/UCWFzn+Hv1ZL7dmAa24w0rUzktxno7fKK7LPcIkK/5E2Vuy1ZbIx3JXEKNarK/mxSfxlt115FWuOzXoWTDzrpBHg7LPc9vu3DyLkYbs9+2Txr21dRMd3Hj0pqacjXmRxnvqyt2lW1CiJ5i1xlwvdrmOls3pdUS0+RyRGiJQGygqLarv6qsvaOxg3FJdV8K2p7eslMzq20q7KM1Mr7GvmxluR5kGdEeQ6062pSHG1EpJmRkYDkAAAAa+n4pf8AWGYD/djwP8etmAJOvw+2Xxcr7UXGtiOtKnMRf2jiEwiJJGiVA2pmNiSFklauivdbZo/EkmZGR9PHqYZoQAAAAAAAAGqjhSF8gu6rBkQEMzPyvc9IbkJCmzVHksZhvtr3cltsG2amXY80vMSTT9E/DoA2rgDDH8QX+qQ5V/42lf8AaA1YAjvfCffpZ8mf7u0L+0rFQE70AAAGM/vIYu5l3a+5q1TTCZC4elbnJ/IonDJKMKsavMXny9M0q80ZmiU4XX6PVP0uqepAIgfwvOXFQ9xnIMcU862nOOPGwqtDaFtpaffp77DMkQh5KkmtzyMVTi0kkyMjT1PwLoA2FgAAAAAAAAAAAAAAAAAA61lOGYfnNY5S5timNZhTOpcS7U5TRVeQVjqXU+R1LkC2iy4q0uI8FEaD6l4GAxJcjuwt20ORbEySrRUbS2UyEuG1luhbA9dvsvuGazdexRhifr+cpx3xcU9UKeV49HEmZmAiWdxr4fPk5wspL7bWqLI+SWhaRD0+7ucdp3a7ZOCVDTbjz9nmGEMvTym0cBpvrIsqt6S2wgjdkMxmiUogr72L+9ZnOgdh4RxF5QZjYZVx0zayh4nrrMcjluz7jSGVW8uPDoYjtzMdXJd1XZTHSjSIzylIplvIksKajNyGnAn0AAAAAAAA63lGG4hnFY5S5riuN5hTPJcQ7U5RR1eQVjqXUem6lyBbRZcVaXEfRURoMjLwMBiV5HdhntocjGJcl3REXTGUSCcU3luhJ565ktPOn51uvYvHjztfz1uO+K1v1C3ldT6OJMzMBEv7jPw93JvhhR3+2tQ2auSmh6Nt6wu7TH6Zyu2ZglOy0t6RaZbhLD05NlR16EGcixqnpKWGyN6QxGZSpaQrX2M+9ZnPHjYeE8S+T+ZWOU8bc1somKYBluRy3bC30blFvMYiUTR3Ex1cleqp810o8qI6pTdMbqZTCmmG5DLoT8wAAAAAAAAAAAAAAAAAAAAAAAAAAAAAAAAAAAAAAAAAAAUs3lriFuLS229TWLTb0LZmtc4wOQ28ZE0pvLMasqPqs1GSSJJziPqfgXQBrJ+1Xt2TxA7nnHXIM1kOY7Fodvy9Q7F87iEs1sHNfrTV98dg4r6JQaWwuEyX1eHREYz+QBtKwAAAAAAAAETLul/EK7t4Ycx8+42aH1lo7Pcb1tUYpEyS/wA+iZ1OuPw2uaSNkFzVsuY1m2N17cOoiWkVg0Gwp1MhDpKWZdCIJKXFjPtj7W426L2ht2joMY2XsfVmFZ3mONYvHtItFj1xltDCv3aSBHubC1s2yqmp6GHPWkvKN5tRko0mQCvYDj7a1rKGrsry7sYVRTU1fMtbe2spTMKurKyujuTJ9jPmSVtx4kKFEZW4664pKG20mpRkRGYDWvd6nueX3cZ5GN4drSZZOcaNR3c3H9N0ENqWlzP8gkOFWWm0rGtNhqZIs8nWXu9RHcb9SFV+RJIbfkyyWEsPsT9q2JwP0Yjbm28dQzyt3dSQpWXpnoadm6rwZ9TVjTaugn5Ve42y1k3MyFTavvtglqMZqRBbWoM9wCDt8R32pi1zkdj3ANAYv6WBZnaso5JYtSQ0Ii4hm9tJbjQNrRIURpCI9DnM95LFyroXo3brchRrOe4bIVW+HA7r3X6m7d/IHJT6kT//AGXMwu5ifL0LzypukZst/orzeLkrG/UWfh6tcgy6V7BhMzAAABr6fil/1hmA/wB2PA/x62YAy8/CpbpjZPxO3toyTYRnLfVG5GcvhV3nL3tnF9nY5CRHfNBn1OMrIcPsOhkXQlqP5TASnQAAAAAAAWmc7t7V3GbhxyR3jYSyhuYFqTMJ1Isn247r+W2NW9SYZAjOuqQkpVhldnDYbLr1NbhdPEBr0+xBp+w3d3S+OJuRl2Ndrm4yTdOUSHD85xo+CUVhYVE95SuvmU5nEuqb6n4mp4vlAbN8Bhj+IL/VIcq/8bSv+0BqwBHe+E+/Sz5M/wB3aF/aVioCd6AAACl+7tcwtv6Z2xqixabeg7K1vm2CSW3TIm1NZZjdlRmazMyIiSc7r1PwLoA1kHay23K4fdzvjtkObSHMdjY3uOVqPY3mcQhqsg5kdpq7IjsHF9ElBpZtx7w+rw6IjGfyANpeAAAAAAAAAia9034hPdvC7mPnfGzQ+stHZ7jmuKXE42S3+fRc6n3BZtdUrGQXFUy5jObY3Xtw6mFaRGTQplbqZCXfMsy6EkJJnFXYGyNsca9FbS29RUGL7L2RqzC88zDGsXj2cWix+2y2jh366SDHubC2s2/qtiehhz1ZLxm8hZko0mQChvci5qSO37xVyzk2zrIttt4nkeF0crDzy9OEG9Hy/IImPJsE3p45lRpODJnNq9IoazcIz+kkiMwFl3aW7zMHuh5nuTCnNDJ0hZaqxnFcoiddn/lCXk8G/tbWpsPKz+AOF/VaaV+JF6q80j1feyLojy9VBnBAAAAAAHo422824y82h1p1Cm3WnEpW242tJpW24hRGlaFpMyMjIyMjAa0rv58NcQ4dc+slh6ypImM6w3ditXunEcbrksMVmNTb2xtqbMqKohx0tt19Ozl1HLlQ4yEIaiRpbbDRE20kgE7vtY7yt+R/b04nbeyKeq0yW+1PVUmUWjivM9Z5PgM2w17kNnJV0L/KrG4xZ5935PUcMByfcd5nyOAPFLM+TrOtC20jDb3C6iVh34XFhJyI+X5NX4yU5N6eOZUbZ18iybWbZQ1m4XUvMkiMwFknaX7zsHug5xuHBXNCp0jZatxTGssiGez/AMoS8mhXVvPqLAksfgDhf1YmmfZjdVeaR6vvRF0R5eqgzigAAAAAD1WhDqFtOoQ424hSHG1pJaFoWRpWhaFEaVIUk+hkfgZANan3++GmH8Pee9+3rKkh4zrDeuKV25sWxqtQwxV41aXFla0ubUdRCYS23XVCMqpZEyLGQlLUWPNQw0kmmkEQTqe1PvC55Gdu3iXtvJJ67XJLvVMDH8ktXVEt+1yLXdpa63vrSSoiSRy7G2xJ557oXT1VqAZBQAAAAAAAAAAAAAAAAAAAAAAAAAAAAAAAAAAAAAAAAAAAa1z4gHiBZcVO4PneYU1c5A1tyTckbvwOfFabjQ49/ay0p2XQR1RktMszKXNluzCaQRGzCs4hn1NXUBNK7OHPCq558LsBzCzt2JW5dYwK3WO8axb7arIsvoa9uNAzCQx5vVTC2HURkWbbnlS170uUwjqcdZEGVkAAAAAAW3cu+TmAcOeOe1ORmyZTbePa3xmXZxaz3huPMynJXyKFiuH1PqGXntMnv5EeG10Iyb9U3F9G0LUQa0riHqbYXc/7keG0eZqkXdtvXdFrtHdNqy2+7Hr8MK6k5vsmWn1HjOHCRTNvQYKVOeVDr0dlJ+KSMNp9EiRoEWNBhsNxocOOzEixmUkhqPGjtpZYYaQXgltppBJSXyEQD6AENT4j7uvKjJuu3foDIEk681HPk/mdNOSo0MOoRJh6TgSYjqvKt5CkSclLqRkn0a9R/SnNEFJvhx+1EjYd/VdwLf8AjhuYPiFrIRxvxG4idY+WZjVSFxZu15sd4yS/RYbOaXHp0qQpMi3QuSRp9xaN4JwgAA6vm+FYnsnDso19ndBXZThea0Fri+VY3bsFIrLygu4T1fa1k1nqk1R5kOQtBmk0qT16pMlERkGsb7qvb3z7thcsjpcbm3qdU5PZu7F427Jjy5DVq3T1tqzKbopdxG9FyPnutrNbDEh1s0OOo91nJS2UlKEBNg7KPdIqu4hx/LH8+n10HlDpmtrKja9MhxiM5m1R5UwqXbdHXkslnBv1Nk1bNtJ9KBbmpPlaYkxEqDNYAANfT8Uv+sMwH+7Hgf49bMAWp9i3mqjg9zvw78P5y6HUW+q2LqPZL9o8dfW0jOSTIU/Ac9mHJ9OOiHj+SJYJ6SsyQzUz5jiTPqXUNmCRkoiUkyMjIjIyPqRkfiRkZeBkZAPIAAAAAAhm/FGc9YTrGD9v3Xtw2/Kal1G1uQS4bhn7obbPvOsMBlqT9E3XikKv5jKvFCU1bhH9JREFQvhWeI03Gtebr5n5RWLju7ImNaf1Y9KjJSt/FcVnJtM+vIDrjXqLg2uVJiV6Vtq8pvU8hB9TT4BLwAYY/iC/1SHKv/G0r/tAasAR3vhPv0s+TP8Ad2hf2lYqAnegAAAANa/8QLxAseK3cGzrMqetcg625LKkbtwWfGabjw2Mhs5SEbNoGFRkNNMzKfNVuTSaSRG1CtIhmZmrqAmhdmvnjV88uFuBZZaW8eVubV0Gs1hvCtVIQuz/AAsoq9uNW5lIY83qph7Ep4yLJDnlJr3tUphHU46yIMrwAAAAAAtw5c8m8A4d8dNqci9lSmmsd1vjMu0j1pyG48zKMjfIoeLYhU+of3y1ye/kR4bPQjJv1TcX0bQtRBrRuJWqdh90HuRYdR5kqRdXG+d02uztz2jDb7setwz65k5rsiWg3HjVDhMUbT0KChbnlS47HZI+ppIw2n8OJFr4kWBCYbiw4MZiJEjMpJDUeLGaSzHYaSXgltppBJSXyEQCwPuraLseR3bz5Xapo4fv+R2OqrfJsXhpZXIkTMk19IiZ7T18NptDjiptpMxtMVokkZmt8i+UBAw7EPL2n4g9wrXNtmVmzUa33PV2Gi86s5khMevpmMzn1UzFL+a46pMePGqs4pa0pD6zImIL0hXUi6gNmoAAAAAAACBj8VtmFLbcwOPeGwZMeRcYhx9csL1tl1C3oR5VnuRuVsSU2Redl04lMb6SM/pNvpMiL5QkndhKum1faX4iR58dcZ56l2jYtIWZGa4VrvHZtnXyC8pn9CVBltuJ+XyqLqAuG7pGi7Hkf2+uVupaSIU/I7nU15e4vCJhyQ/MyfBVxs6ooERppDjqptnY443Ga8pGZreIvlAQGuxXy9puH3cL1nf5lZM1Ottv11jo3PrOZJ92gU0LNplXIxnIZjjhlHYi0+b09YqS+50JiAuQrqXUwGzfAAAAAAABA7+K6y+ltOWvHLDIUmM/c4loOdaXbTTyFvw05Xnd19VxpTSS87K1x6FbySUf0kOkZF84SQewZXzKztI8QI05hUd5yo25YIbX06qh22/9r2te+XQzLyyoExp1Py+VZdfEBmDAAAAAAAAAAAAAAAAAAAAAAAAAAAAAAAAAAAAAAAAAAABjD7snbvx3uNcWLzWTKq6o3FhT0nNdF5fP6NMVOax4htP49by0MvSGsVzeCn3Gf5SV6LnoS/I4uKhCggDcK+X3JLtDcwbe1m4neVNrjdq9r3kJofKXZNI3llFCmGqXTzy8khmFf1Di/faO2bbfQ0tZLR68OS82+Gx04Zc6uN/PLV8LZ3H3O4N6hDEYstwexejQNha8tX2yUumzTF/eHpla6l0lJZlI9Wvmkg1xX3kEagF4IAAAKZbf3NqrQGv7/ae6M9xrW2vsYiql3WU5TYtV9fGSRH6UZhKvNJsbOWsvJHhxm3pUl0ybabWsySYa6XvK93DJu5Rs+qwLWcS8xri5rW6ec11is1pTGQbDyp1D1YrZGXV0dbxNT5ESQuNT13VxVfDecNR+8SXkpCUL8P32uLLhRpWy3/uuhKt5Jb+pa8lUc9jyWmqdUG6za1GFyyUZri5LlE1pizu2voqYNmHEWlD0R7zhIiAYXO9V3Qaft4ceHajB7KDL5P7kr7Kk1BSK9OUvE68iKHe7YuoivMhNdjBPeStbdI0z7dTaPI4wzL9MIWvaa7cmwO6BylkO5s/kjuksPu2c55IbNkzJS7S3+t7CRYlh9ffSfWflZ9sea3II5ClLcixSkzV+ZbbbbwbMvEcSxnAcVxvB8Lo63GcQxCjq8axjHaeMiHVUdBSQma6pqq6K2RIYhwIMdDbaS9iUkA7EAAACxbuJ8Fdc9wnjLmGhs4TDqr9aFZDqvPXYRy5uu9j18WQ3R5FHS2tqQ/WSCfXDs4qVp97r5DqCNLnprQGtt1lsLk72n+bZXLcCVhW7dA5pLxzNcQnvvlRZfQm40i9xe1cY8rd3hGdUS0PRZTZKS4w9HnRlE4hhxIbNzhzyz1Vzb494DyJ1BPU9jeZQPJaUkt1pd1hWWwUNtZLhGRttdEtXWOz1m2tSS9KSybchk1MPNLUFz4DX0/FL/rDMB/ux4H+PWzAHUeafb1yLOO1JwG7geraF20k4RoWDrjkJVU8LzSGcQqs1ytOD7PcjRked9qkdnOVlzIMlrRGchPKImWJDiAyqdkHvu4ZfYhhPDvmrmTGL5xjceDimn955TOajY3mNDEaiV+P4TsO7luJRTZhWtJ9CHbSlpiWcdCG5DjcxJLmhLsadafaafYdbeYebQ6y80tLjTrTiSW2604gzQ424gyNKiMyMj6kA/QAAAGCHu0d7jTXArFcg1fqW3x/a3LiyhvwKrDoMhu1xrU78lno3k205cN30WZUNLnqxaFDnv8xZIN8o0ZZPKCEjwu4kciu7DzCfx365v8gt8wyOTsTkLuy+J2c1ieO2dqcrJMquZptHGev7h5xcanr0kkpU1aG0pbjNPOMhtAtN6jwLQmq8A0xq6jZxzX+tMWqcQxSnZPzqjVVRGRHbdlyPKlc2ynOEqRLkr++yZTrjqzNa1GYVKAYY/iC/1SHKv/G0r/tAasAR3vhPv0s+TP8Ad2hf2lYqAnegAAAAMY3di7eGOdxrixe6wbVXU+38MekZrozMJ/RpinzeNFU07QW8tDL0hrFM1gkcGf5CV6KzYl+RxcVCFBAB4X8u+SnaF5g29rMxS8qLjGbV/XvILRGUuyaVnLqGFL80ymsC8khmHeVa1++0ds22+hpa0uI9eHIebfDY6cMOdnG7nlq+Fs7j7ncG8JEeMWXYLYvRYGwteWr7ZGunzTFykvS65xLpKSzLbN2vmkg1xn3kEZkF4YAAAKZ7e3LqvQWAX+09z57jWttfYxFVLuspyqyarq6MkkqNuMwSvNJsbKWpPkjxIzb0qS6ZNtNrWZJMNdN3l+7jk3cm2dVYBrOLd4zxb1rdvO68xaaybGQbEytxD1YrZGXV7C3vRmvxJC49PXdXFV8R5w1H7xJeSgJQHw/Xa4s+FWlrPkFuuhKt5Ib+pICSop7BItNVanN1i1qcOlkozXEybKprTFndNH5VRzZhxFpQ9Fe84SJQABraO+x21L3g5yhvdl4NjzqOMvIDILXLNd2VdFNNTg2W2Li7XLNVTvRL0q1VXOddl0yDSht6ndQ20bjkOV5AzndkLvsYbsXEcO4h8zsyhYntXGINbi+p90ZVZJi0G0qeIhEGoxbN7ue4lin2JXsJbYjzpLhR7xtJE4tE8v8ALAlkJUlaUrQpKkKSSkqSZKSpKi6pUlRdSNJkfgYDyAAACyHnV3AuO3b71LZ7M3flcRNy9Cl/gBq6pmxHdg7MvG21lGqcaplLN9qB7z5UzLR9Ca+vbPzPOeY223A1w2Q2vJXvD8/5M6BUKttuciM5jx4FRBOdMxvWuD17TMOKh2S4SnYWE61w6ES5MlZJU43HW6ZG+75VBs+9Bacxnj1pHU2i8NJX4Mak19imv6Z1xJJfmRcXpolV9YyyT1JU2zdjKkPq8TU86oz8TAVcAa3Hvv8AbSvOEXJ+92pgmOuI4y8gshtcrwOfXRj+qsDzOyWu0y7Vs8mvvdYmDPedmUiFJbaeqHUstG45CkmkM3XZA76+G53iOGcP+Z+ZQ8U2ZjECtxbUm68qskxqDZVNEQiDT4lnd5PcSzT5/XR0NsRbCU4Ue7aSlLriJ5Ec0JaSVJWlK0KStC0kpKkmSkqSouqVJUXUlJUR9SMvaA9gAAAWS85+f3Hbt/aks9nbxyyG1auwpf4BaxqpkR3YOzLxptZRqfF6RbnvBRDk+VMuzeSivr0K877hGaELDXBZZe8lu8Pz+k2NfSqt9uchs3iwqihr1zZmN62witZaiQ2HJTpKcg4VrfD4XrTJa0oNxEd19STeeMlBs9uPemMZ46aM1HojDvOvGtR69xXAKmQ6kkyJ7GNU8WtctJZF1I5trIYXJfPx8zzqj+UBWEAAAAAAAAAAAAAAAAAAAAAAAAAAAAAAAAAAAAAAAAAAAABh27o/Zv0H3I6P8LXH0ap5J4/SnWYluKogJks3EOMSnK/Gdl0rSmDynHmHVGmO+lbdjXEs/QdU1547oQbd48Iu5P2n9nsZ7KpNk6yfoZD6sf5A6Tt7qfgVnBjyY6zNzMcfbYRAgTlE0btZesw3HkH5XYxl1IBkF0P8ULzu1rUwKPbWGag5AxoTUaOq/vaixwTNZbUaL6Hnk2mGy42NPSpDhJcddVTGpaiP2dTMBeW38Wzfklv1eEVOpZJR6pt7zmoSpXQvObZK1is0JM+vQjNXQvnAW47Z+Kr5hZTXTK7UmjtI6nekH0YvbVeT7Hu4SPMr6UdudNx7H1Omgy8XoDySUXXy9PABixlf/FH7w+zYDkiPuvkzaNT1s16yiqp9P6/96mIZfW26hqi1VgMZg7FKXnlKjPLa6eopzykAlodqD4fLXXEK1x/fvKuZju5ORFacK2xHFK9t2bq3UNqgm5DVjDKfHju5xnNc8XRqwkMtQYDhGuKwt5DUwgkrgLZ+XvK7U/CrQOechdx27cDF8Nr1/V1Q1IjtXebZXKaeLHcGxaPIWn37IsimNem0kiNLDKXZLxojsPOIDWfZtlvKfvEc8G5TUJzKNx73yxmjxTHGH3yxbW2D13vD0GqZf9EyqME11jLT0qbKNv1HUtSJbpOSn1m4GyP4GcKdXcBeN2E8fdYx2pSqlgrfPczchsxbjY2wrJhj8JMxuTb8znWU8yliFHUtz3Gtjx4yVKSySjC8oAAAAAARs/iDu1X/ANrTUbnKvR+Mokcj9JY+8rKKaoiKVa7g1NWpemTKhuPHQpdlmeCpW7Mq/D15cM5MIvVcOE22EYXsr90O57d3IRuozewnzuMO5LCrpdvUaVvSG8RsCX7nS7ZooSCdUVnjBPeSyaZT57GpNbZpW+zENsNlfQX9FldFTZPi9zV5FjeRVcC7oL+jnxbWmu6a0itTay2qbOC6/CsK2whvodZeaWtt1tZKSZkZGAgAfFL/AKwzAf7seB/j1swBLD7M9ZW3Xag4f09xXwbaottO2NZa1VnEYn1tnWz8oyqLOr7CDKbdizIMyK6pt1pxKm3G1GlRGRmQCPb3PvhrMyr8iyjdnb1jQ8ixa1lTry641WdnFq77FnXiemS2tT3dq9GrLzH0rIyj086QzPjEaWozssjQ02GInR/c87p/bItWtN2GQ53j1Jizj1enRvI7DLO2qKmPCmtsvxKGNk7NflNDWoXEU02VXPYhklSjbSfm6gMrWF/FnbkiRFN7E4gayv53k+jKwvY2VYhENzze1UC8p84eJBI8OnvJn18evyAOdv8A4tXP3q5xGLcL8Or7czP0ZV/uC6uK5svKfQ3IFdhFHJeMldD6FJR1Lw6l7QGL3k53/u5HyoizcJpM7rdG4rkbqK4sV4/01hjuQ2KJjaYSatObS7C8z5Tkx5zp5IM2KbilkjymXgYc3wR7BvNnmdfVmY7Uornjhpmykt2t1sPadXMazrJYkqR60o8OwCe7EyG2sp5KUtMyz9wg+Jueq6ro0sJ63DLhLx94Hafgab4+4imjqPVbscpyayW3YZrsDIyZJl7Jc0v/AEWXbOwWnqllpCWocJk/RisstESAF2oAAwxfEGqSntIcqjUpKSNzSaSNRkRGpXIHViUpLr7VKUfQi+UwEd34T5SS5a8mEGpJLVx0iKSjqXmUlGy8TJaiT7TSk1pIz+TqXzgJ34AAAAAAw890bs4aD7kdF+FbzyNVcksfpVVmI7jp69Elu2hxiW5X4xsulbVHPKscYeUZMPJW3Y1xLM2HTaNcd0INe8uD/cn7UGzmM/k0mydaP0El9WPcgtJ291PwOygx5LCjN3McfbYTXQJ5k0btZesw3HkH5XYyk9SAZA9D/FCc79a1MCi21huoOQMaE1GjqyC+qLHBc1lsxo3oEuVa4ZLjY29KfcJLjrqqc1LUR+w1GYC8xv4tm/JLfq8IqdSySj1Tb3nNQlSuhec2yVrFZoSZ9ehGauhfOAty218VXzBymumV2pNG6S1O7IPpHvbZeTbHu4KPMr6UdudNx7H1PGgy8XoLySUXXymXgAxYS190fvD7NgLkMbr5MWjVgpmvUiIqn0/r/wB6mIZecQ421RarwGMx9ZJS8+s4zy2enqLc8pAJZvag+Hx13xEtce37ytmY7uTkPWHCtsRxKvbcnat1DaoJuS1Yxff47DucZzWvl0anvstQIDpGuKw48hqYQSWgAAAUe33oPUnJzVGX6T3hhlXnmuM2r1QLqjs0KSptafpwraonsKbnUl/USiS/CnRXGpMR9CXG1pUQCB73DvhyeT3HC5vc74pwrfkvo5T0mdFpapllzdWEwvP50195i0ZDKc3jxW1dET6ZCnnUoUp6FHIiNYWU8Z+8B3JeBLresafZGQT8YxR9uC/pjfuOzMmhY82x7v1pojGRFAzfEI7cdpKERYk2Iyyk+qGi6n1DL7hvxZ+34kJTewuH2t76x8heSXhuycnxKEa/MXU1V93RZq+SPJ1IiKSZ9fHr8gDmb34tXPnYCkYzwtxCDZmZ+SRe7iurWAhPlMi80OvwWmkOGS+h+D6epeHh7QFie8fiYu41tOHOqsCf1RoKumx1Rjk68wxy5yRlKyIlOsX2f2WVoiyPDwcYjMqSZ/RMgFr2ge213Nu6Jsn8oVvjey7eFkk1s8k5GcjbLJKzGI9eqS2867AusobkXuVx4KbE1sQKKNMS2RmlKGkEo0hOe7Y/ac0H21cEfTihnsPemWVkaJsrdt5XtRLW1bQtEheN4fV+rLTh2EMy0E4URt56TLcQhyW+8ptlLIZUgABSHe+htTcmNVZdpXd2GVWea4zeuXXXlDatqLooj9SHaVc5lTc6mvqmUlL8KdFcalRJCEuNLSoiMBBA7h/w43Jrjpc3uecTYdvyW0gt6ROi0FYyy5uvCIRrJSa64xmOllGdRoqF9ET6ZCpDiUKU9CjkRKWFkHGfu99yTgM8jWNLsfIZWM4q+iC/pffmOzMmgY8hn3brURIuRlBzXD47cdlKERYc2IyylRmlsjUZmGX/AAz4s/cESGpvYXD7W19YeQvJLwzZGUYlDNzzJ6mqvvKPNXyR5OpdCkmfXofX5AHN3vxaueuwFoxrhbiMGzNX0JF7uK5tYCU+VRF54cDBaeQ4ol9D8H09S6l4e0BYpvD4mTuM7ShTarAXdTaCr5kdcY5WvcNduskaSsvKbrF5sCyytqNJIvEnGIrKkn4l0AWtaE7cHc37o2yy2Fb45s27i5JMa/CLkZyLsslrMVjVy5SH3HIF5k7ci6yeJBTYqWxX0UaYTSTNKG20EZpCc12xe0voPtq4Q+vGFflG3xllXGhbH3beV7USysGULRIcxrC6n1ZacOwpqWklnGQ89KmuIQ5LfeNthDIZWAAAAAAAAAAAAAAAAAAAAAAAAAAAAAAAAAAAAAAAAAAAAAAAAfPLhxLCM/CnxY82HJbUzJiS2GpMaQ0rwU0+w8lbTrai9qVEZGAsG2t2qu3RuuxmXGxOHmkbG5sXPWsLqhxVGCXM94y6G/Nt8CfxmxlPmXh53HVK6EXj4EAt9/8AgG9pH/3QKj/0t7//APWuArBrrtAdsrVkqLOxLhhpZyZBU2uJKzGln7KkR3WjbNp9t3ZFnliyktqbI0u9fUJXUyPqZmYZC6HHqDFquNSYxR0+OUsJPkh1FDWQqiriIIiIkRoFexHiMJ6ERdEoIvABzAAA4u2pKW+jtxLyoq7qK0+mS1Gtq+JYx2pKW3WUyG2ZjTzaH0tPLSSyIlElai69DMB8NXiGJ0ck5tLi+O1Ew2lsnLq6Str5JsuGk1tG/EjNO+ks0EZp69DMi+YB2IAAAAAAAAB009c69MzM8EwwzM+pmeL0hmZn7TM/cfaA7VEiRIEWPBgRY8KFDYajRIcRluNFixmEE2zHjx2UoaYYZbSSUoSRJSkuhF0Aa/H4pf8AWGYD/djwP8etmAJaHZU/VZcL/wA1b/435OAyjAKa7N0zqHdVG5jO4NXa92ljzqDbXS7Cw7H8wrDQrr1JMO/r57KOvU/FJEfiAx45V2P+1RmU1U+34aa9hvrcW6beK5BsfBIRKX7STW4RmuPVyGy+RCWiQn5CIBwEDsN9petlNTI/D3HHHmTM0In7K3faxT6l0++wbTZsyC+X7C21EAvY0twp4i8dDQ7o/jbpjWU5JN9brFtf47CyJ02evpLk5KqC7fy3EdfBTslav2QFz4AAAAD4rCtrraI7X2sCFZwH/J68KwisTYj3puIdb9WNJbcZc9N1CVJ6pPooiMvEgHHVOLYxQvOyKLHKGlffb9F5+pqK+ueeZJRLJp1yHHZW4350kflMzLqXUBzwAAAAAAAPnlxIk+M/CnRY82HJbUzJiS2W5MaQ0suimn2HkradbUXtSojIwFg+1+1X26N2WM242Jw80jY3Nk56tjdUOKN4JdT3unQ35tvgT+M2Up8y8DW46pZkRF18CAW+f/AN7SP/ALoFR/6W9/8A/rXAVg112f8AtlaslRZ2JcMNLOzISm1xJWY0s/ZT8d1o2zafbd2RZ5YspLamiUl3r6hK6mR9TMzDIXQ49j+K1cakxijp8cpYSSRDqKGshU9XEQREkkRq+vYjxGEkSSLolBF0IBzAAAAAAAAKH7e4zcduQEI6/eGjNT7ajfQNBbBwHGMqfZU2nytrjS7itlS4rjaSLyqbWlSehdDLoQCwi+7FvagyOYc6w4c4ZHeM1n5KHNdt4tD+mZKV0r8Y2DUQCIjLw+9fRLwLoQD4a7sO9pirlNzI3DzGnXmyUSUWOyN23EU/MXQ/UgW2zJsF0/mNTZ9PkAXcal4AcItFSmLDUvFLQ2E28br6F/Wa1xh7JG+vTxLJLCvm3xmXl8Osg+nj09pgLu0pShKUISlCEJJKEJIkpSlJdEpSkuhJSki6ERewB7AAAAAACiO3uNHHjf8ACOv3ho7U+2ov0DQnYWA4xlbzJtpJDa40q5rZcqKttKS8qm1pUnoXQy6EAsGvuxd2oMkmHOsOHGGR3jNZ+ShzXbWKw/pmRn0r8X2DTwC6GXh96+iXs6APhruw72mKuW3MjcPMadea8xJRY7J3bbxD8xGk/UgW2zJsF0yI/Dztq6H4l4gLttTdv7hDouUxY6m4o6Gwq3i9fQv63WuMP5I316F1LJLGvm3pmXTw6yD6ePT2mAu9QhDaEttpShCEpQhCEklCEJIkpSlKSIkpSRdCIvAiAewAAAAAAAAAAAAAAAAAAAAAAAAAAAAAAAAAAAAAAAAAAAAAAAAAAAAAAAAAAAAAAAAAAAAAAAADX0/FL/rDMB/ux4H+PWzAEtDsqfqsuF/5q3/xvycBlGAAAAAAAAAAAAAAAAAAAAAAAAAAAAAAAAAAAAAAAAAAAAAAAAAAAAAAAAAAAAAAAAAAAAAAAAAAAAAAAAAAAAAAAAAAAAAAAAAAAAAAAAAAAAAAAAAAAAAAAAAAAAAAAAAAGvp+KX/WGYD/AHY8D/HrZgCWh2VP1WXC/wDNW/8Ajfk4DKMAAAAAAAAAAAAAAAAAAAAAAAAAAAAAAAAAAAAAAAAAAAAAAAAAAAAAAAAAAAAAAAAAAAAAAAAAAAAAAAAAAAAAAAAAAAAAAAAAAAAAAAAAAAAAAAAAAAAAAAAAAAAAAAAAAIOXxH/ELlfvjnVhWYaQ4zb83BiUPjvhVHKyjWOos9zvH491FzLYUuVUP3GMUNpAZs4sWcw44wpZOIQ8hRl0UQCTl2jMEzfWXbd4l4HsjD8nwDOMZ1s9AyPDszorPGcooZx5TkUgodxQ3EaHZ1kpUd9DhNvNIX5FpPp0MgGRsAAAAAAAAAAAAAAAAAAAAAAAAAAAAAAAAAAAAAAAAAAAAAAAAAAAAAAAAAAAAAAAAAAAAAAAAAAAAAAAAAAAAAAAAAAAAAAAAAAAAAAAAAAAAAAAAAAAAAAAAAAAAAAAAAAAAAAAAAAAAAAAAAAAAAAAAAAAAAAAAAAAAAAAAAAAAAAAAAAAAAAAAAAAAAAAAAAAAAAAAAAAAAAAAAAAAAAAAAAAAAAAAAAAAAAAAAAAAAAAAAAAAAAAAAAAAAAAAAAAAAAAAAAAAAAAAAAAAAAAAAAAAAAAAAAAAAAAAAAAAAAAAAAAAAAAAAAAAAAAAAAAAAAAAAAAAAAAAAAAAAAAAAAAAAAAAAAAAAAAAAAAAAAAAAAAAAAAAAAAAAAAAAAAAAAAAAAAAAAAAAAAAAAAAAAAAAAAAAAAAAAAAAAAAAAAAAAAAAAAAAAAAAAAAAAAAAAAAAAAAAAAAAAAAAAAAAAAAAAAAAAAAAAAAAAAAAAAAAAAAAAAAAAAAAAAAAAAAAAAAAAAAAAAAAAAAAAAAAAAAAAAAAAAAAAAAAAAAAAAAAAAAAAAAAAAAAAAAAAAAAAAAAAAAAAAAAAAAAAAAAAAAAAAAAAAAAAAAAAAAAAAAAAAAAAAAAAAAAAAAAAAAAAAAAAAAAAAAAAAAAAAAAAAAAAAAAAAAAAAAAAAAAAAAAAAAAAAAAAAAAAAAAAAAAAAAAAAAAAAAAAAAAAAAAAAAAAAAAAAAAAAAAAAAAAAAAAAAAAAAAAAAAAAAAAAAAAAAAAAAAAAAAAAAAAAAAAAAAAAAAAAAAAAAAAAAAAAAAAAAAAAAAAAAAAAAAAAAAAAAAAAAAAAAAAAAAAAAAAAAAAAAAAAAAAAAAAAAAAAAAAAAAAAAAAAAAAAAAAAAAAAAAAAAAAAAAAAAAAAAAAAAAAAAAAAAAAAAAAAAAAAAAAAAAAAAAAAAAAAAAAAAAAAAAAAAAAAAAAAAAAAAAAAAAAAAAAAAAAAAAAAAAAAAAAAAAAAAAAAAAAAAAAAAAAAAAAAAAAAAAAAAAAAAAAAAAAAAAAAAAAAAAAAAAAAAAAAAAAAAAAAAAAAAAAAAAAAAAAAAAAAAAAAAAAAAAAAAAAAAAAAAAAAAAAAAAAAAAAAAAAAAAAAAAAAAAAAAAAAAAAAAAAAAAAAAAAAAAAAAAAAAAAAAAAAAAAAAAAAAAAAAAAAAAAAAAAAAAAAAAAAAAAAAAAAAAAAAAAAAAAAAAAAAAAAAAAAAAAAAAAAAAAAAAAAAAAAAAAAAAAAAAAAAAAAAAAAAAAAAAAAAAAAAAAAAAAAAAAAAAAAAAAAAAAAAAAAAAAAAAAAAAAAAAAAAAAAAAAAAAAAAAAAAAAAAAAAAAAAAAAAAAAAAAAAAAAAAAAAAAAAAAAAAAAAAAAf/9k=;" parent="1" vertex="1">
          <mxGeometry x="650" y="360" width="184.62" height="123" as="geometry" />
        </mxCell>
        <mxCell id="efpffI7OLtBo6xo70BxB-7" value="Hostingサーバー" style="text;html=1;align=center;verticalAlign=middle;resizable=0;points=[];autosize=1;strokeColor=none;fillColor=none;fontSize=25;fontStyle=1" parent="1" vertex="1">
          <mxGeometry x="277.46" y="90" width="220" height="40" as="geometry" />
        </mxCell>
        <mxCell id="efpffI7OLtBo6xo70BxB-8" value="" style="shape=image;verticalLabelPosition=bottom;labelBackgroundColor=default;verticalAlign=top;aspect=fixed;imageAspect=0;image=data:image/png,iVBORw0KGgoAAAANSUhEUgAAAZAAAADNCAYAAACW2CZRAAAABHNCSVQICAgIfAhkiAAAAF96VFh0UmF3IHByb2ZpbGUgdHlwZSBBUFAxAAAImeNKT81LLcpMVigoyk/LzEnlUgADYxMuE0sTS6NEAwMDCwMIMDQwMDYEkkZAtjlUKNEABZiYm6UBoblZspkpiM8FAE+6FWgbLdiMAAAgAElEQVR4nO3deZhkdX3v8fep6u7pZfYZIOybLLPPABoYWWZAwIEBvKiJGpV7NWYxJsaIBvdc9N5oksf7kNV7IzFIeFCjTwIiCMqiAuJKLoHhDsMiDMOwTi8zXb3UOed3//ieM3Xq1Knqqu6qqabr83qenumurnN+v1NV/fue3w4iIiIiIiIiIiIiIiIiIiIiIiIiIiIiIiIiIiIiIiIiIiIiIiIiIiIiIiIiIiIiIiIiIiIiIiIiIiIiIiIiIiIiIiIiIiIiIiIiIiIiIiIiIiIiIiIiIiIiIiIiIiIiIiIiIiIiIiIiIiIiIiIiIiIiIiIiIiIiIiIiIiIiIiIiIiIiIiIiIiIiIiIiIiIiIiIiIiIiIiIiIiIiIiIiIiIiIiIiIiIiIiIiIiIiIiIiIiIiIiIiIiIiIiIiIiIye7m7Lvyf7rtn3uvuvfy8dudFRGS26mp3BmYbd/vG97Fn28cIxvD3vfR9cAPgFdqdLxGR2SbX7gzMOqPPnUVQBLrpCvbgbjn1q+3OkojIbKQAkubc2ugbIEc4tufN7sWPHNHWPImIzEIKIClFn5NKP3nkwlH4ye1fb1+ORERmJwWQMq4nT7E38TOQg/HBje6BN29oW7ZERGYhBZAEd/fZa3JeGP8U/ecgGIPd225sW8ZERGYhBZCkkd1rLXAkggcAOfCHTnJ3n3dhu7ImIjLbKIAkBX6pmWp/8ABwEBRh8JnrDnymRERmJwWQMm6FVUBSwQMAD/zhQ9ztG9/ZhoyJiMw6CiBJLlxTChhQ/j0QBIzvef7LBzRPIiKzlAJIQrEYHlKKGang4Rzg0esNz3O3nvLhes7n7tnyDnfv1jc2NZMiIrOEAkjEd184utsrRj9lBY/S92NDe/5qqvO5W065lRcfuoHnH7nNffeMP21iVkVEZgUFkEj+5n96rX1XI3hgtZA+bxj37XVfqHYut+OKNex7dgv+CEy+yOTgrs+D85qfaxGR9lEAibnJVeXBgiqd6WZy356PguvJPNfD919LOIa9vF30uFdw3177t03Nr4hImymAxEJ/VdnPVYOH1UJ6GMHdvOb/pE/j7rtgIxNDr4VEhcPlmBx+6f3getPPFxF5tVIAiblwZen7OGAkJhXu/zn+1iMoDF6Bu3F52XleePxawnH2B5Co873H24v7t5P/cUZZHP7seli6cCbnEBFpFgWQyNi4WwUuFTySyjvSwSMf7sXdfPUN+x++66wtTA6dvP9lLavF5PALg+/kVHfwdPLntl32fZ6588HJX64fdo//1jnTOYeISDMpgADglvd1Fak6hLcieMRyMD54gXvwrSsAGNx1LWEx43mmyxvFfeL4axvO3SOX3cP40+cxsYdu9zLsffzjjZ5DRKTZFEAA9+01q3Fhtd8mvs1ozgoK8NRDX3V3nH2xG9tzqAtzGcEjXlvLIxgf2epeef8xdeft4UvvYeLpcwjB3i4P8FfUe7yISKsogACEhXXZtY8pggeA83Dje04rPrf7m5PjjsBPx4/kDx75sAB333Z9Pdlyj1x6D5PPRMEjOpeDvaPuyHqOFxFpJe2JDuAXE7sQxuoIHjgcUBycJBh6vjdc2gWeI5cDL5/ugI/P40Fx5Ez34JY13obb/rNalty2N93F+K/Kg0dkQb8Dnj4Ujt5d7yU2yUHArwNBi87fBdwLDCYeOxT4LeAoYAL4OTBXN/g6DTiYsgXYGALub1uORGpQAAEI3Qnx8FxTX/AACEOPYNBB6BEWHIEH+Tzkcq5sJG/pPJ7tL/L4I18FMjepctsuu5PxpzdnBQ/7McQ9fMV6bzXtCCAXA+MtOn8v8AilAHIE8LEovXho2xnAscDnW5SHdjoFWE0pQOeAZ1AAkVlKTVjA+KR/emPBo/RrfwgILFjkxxy+7xEUIXSpJ6YVR9a7O19/esU5t116J+PPnFs6QcaxzoEbb8cOiSFQbPFX8oLfCYxRKlAdMAkcDryuNZfYVgGVr0eransiM6YAgsv15ILu6PvEw7WCh/VFBIFHOBjufxW90OGNhwS+R+h7OOcygkdU0wknYM/OG8p+s+2yuxjbOXXwACgW5/oWux7WfJU1uqEInHBgsyMiaR0fQNx9Z0Xb2NbbbBU1XTkIBlNlm+fIj4X4Pvg+qYFd6T4RD4qDx7k7fv2NAG7bZfcw/vTm6vNQUvnyvDX1XN8Bkm/iV7IqGFLeEJhUrPK4iBwg6gN5adf6Rvo84m9DH8IhEiHYfu85yI07gjwEeQ+vx+FVmVfi/CLec4//ndt++TZGn8zsMM/OF+wbLZ5Y1/W1Xh7YQXZNoVE9QCHx8yPAKiqDxTzgZ01IT0RmQAHEn1y///t6ggcQOoc/SOLeOFkzgNxYQDAvT+BDPu/wcpXPDUPwR8fpWrvxuNzok8c1EjxwML8PD9wS8AYrDzigeoEvA34Lzn0d8GfA/Oj8XpTe94GnWpCeiDRAASQMTqi+jW36eyB0hEUPN+Ki2kf5763fAxhzBF0Q5MHrBs8rPdeF4I8WyK85l1zfIA0Fj/h5LsQ9euEabwU/rPtaW6eH1gSQIvAJ4AJs5NUEcB9W4xGRNlMA8dhQd/BwNu8j2ENUo8gIHnZO8uMBfm+eIO+Ry0PeC8GzeFAsWPDI9w9SV4d5+YPRfx4EI+thVgSQVruj3RkQkUod34leGHOHlQrv2sEDB8GkR7jPWWdH2a8rC/vcWIgfeISBs8PjmsfqzTMLHmABrDh5yhSXJyLSMh0eQNyR/d1FrDTOKrDjp0X9FoC/p57gYfNCchOOcNLhFz0CH4qjBXKrNpHvH5pZ8Cg9NteH8orILNbRAcT923HrK4fXUv5zVJg7B8G4h9tXPsM8M3gkvs8VQvxJj4nhqOYxMNys4EFhLNCiiiLSNp3dB1KcWDtls1X0sAOCV8LEVh+1AkfpWG/cMT65l0Xnnkt+/qDNWs96fjK9WudNZKivx+sGBoDRjCdJ63VjI8QGsOHHBVq3zEs1XcACSp+DvbRmQEPSPKA/SnM8SnesxekNRGmORl+TLUyvD3tfe4B92PuqeUcZOjuAkLyDrxI8ot8EBXBj2KyHCtnHhiEEIwUWXXoe3Qv2NC94RDx83PaLT/JO+s4vs3I1R5xAeRtjDngZeCXjuUdghUzyua9Ez09aCmwCVgJLovNPAi8CjwG3Un1eyypsQckTsUItzltcL50EdgL/F/gRrSl4DovyvwpYmMqDwxZgfAS4G3ihSWmega3VdSxWoKevuwg8CzwE/ICZF/AbsbXistJzWKG+A3gAeHiGaQGchV3f0VjgICO9x4FfAr9oQnpzQmcHEJdfZUVN9eBhPzr8V9gfPFzVUVuUBQ9/uMDApefSvaT5wcN+9CDYswH7UM9Vv4/d6ccX3w18B7gl47lvAlZQWj+qG7gd+Pfo5x7gPcAabEhwGH057N09AgsoWedeDbwdu9svRsdl3XV72FpdRwP/BVsI8cZ6LrTKuZIBaAHw28BrovwHVfLQi60Vdhbw/4BrKZ+g2YiNwFuw18en+nWDLT1zJHAZ8GPghirPq+VCYAvRxjc10sth7/VarJbwdSxoN+qN0RfY6xmQ/VrlgJOxz87bsc/IPdNIb07p6AAyUphYu3BeHcGj4MGkzfuoJ3i4/cHjvNYFD7DO/ImJ07ACYq6KC8r4BQio3kRTxJpUgoznHgt8KPo5q8nPYYXE7Rm/ey92NzzG1E1UcadafAf+OmyZ9muwlXUb4WFNUkTpvxd7PaZqsnTYdfrAMcAXgH8CHmww/fdjhfQ49TWLhdh1T2LXvAG77p11HDsPW3l5SXR8jVEtEP0+LvC7gfcB/4FNaq1HL3BVlN5EHc9PpucBlwNnYq9txzZvdXAnuls4MC8sv/6Mfg3nPIJXXDSHo47g4cAfKTBwSQtrHsnHPLcu45dSEmCFxJVYQVGrIMxh+5EkfRS76yyQ/UbkEl9Z63bFtZWrsCazRo1E6b8vykN6dV5vivTjWsr7gDc0kO4nsObDMbKve6p045WVr8Lu3GvpBf4c63eYyEgvR/Z6abG4iWk18MdTpAWwGNsOIE4vLXltWWWkw4LqkkS+O1LHBhB3+7rVeS/RzJ0ZPMDfB64Iro5hvs5ZzaN/62a6lzaxw7yG4kSoAFJdfCf+B5QXhB5W++7GmrW6sTvgH6eO/yDWLJNuz89hhV431seyi1I/S1/0eDof+4APYBtjNZL/ZcB/jY5Ppz8PCzC7gJeix/vI7qnbhzWpnVFHun8ILKfyztrDXq9erMDehfWxuCjddIuGw2pLH4iuo5oPR89N9zt1R+fdgzXFPQQ8gRXe/VRe5yRwHLZnTTU9wKcoNY8ldUXpOeD56PqGE/lIpxcH80/VSG9O69wmrNF9q/f3kWWNqHIQ7q991DfMtxQ8hlocPEqjw/J51499wNtZjZ6tVfgA6/BeQumPvQfL78+B57A70PnA8Vinc+yy6LF0k1Uv8CvgZqxTNW0x1rTxBioLqVEsKF3J1E00cf5XUl7r6MOawm4BHs045nCsTT9uckumMwq8Kzp+V5U0T8cGCKT7Hbqj478J/CTjuOXA+VifyXgq3XGsOeyzGcetBn4tI71erDnxNrIHNCzGmpHi60ymdTFWkxzOOO4j0f/Jc8ZrrD0QpZkedAHWt3M+1tGefF1D7LX5Q+BvMo6b0zo3gASF1VWDR/SvP+JwvkvV02oEj4s20b10+MAEj0jOC3Db33SCd9K/b6tyQKtNAL/BzIaOdmGdzU81JUclDlhEqQDuxwre72Y893uJ7w/F1t9K9zX0A1+jspkraShK4w7gT7GCLrkhVg7bovdf6ryGdPC4ASvoqtmF9YkdCfxRlF46iP0B8PEqx7+V0jL68YdtHhZwr6+R7svYYIG7KBXSyUL2YGA91k+RtJHKGl4f1neSFaBjQ1i/zkasU3sMu9ZuLIgcT+XgkguifCSbreK/7v+B1Tqq2RmldxfWTJbc/MwHTsKaGqtuUz0XdW4ACXMrCNPbTZTu7IMQq32klmsvPbXUYV4cLjCwdRPdy0fAD7Ofnzgm9eAMHiP6U3/xVKBdAcTH7sqq7dtRjx5sSGazAwiUXrhe4C+oryP73VTeEfdjBXO9HdGTwOewgik5iqyI1Ypuxpqf6tUH/CX1d8TvxPoxrsaaXpJ3NQPAecCdGcddCWyOfr8QC2CPUDt4JL0QpflZygvqSeBsKgPIkZQHuBwWOGoFj6T7sRrT6Vjz1p1kj0rsxmomyTzFfR2foTRYYSq/Ar6I9Y0lR2uNA2+mwwJIx/aBhMHYqdESuRFX9l0wRPVVctOjrbae257gEStMtHtNrHi000y+mrGfSDV9wD9SX+F7HJWFWjc2p6PRUUwO+BIWvJJ84JwGztOL1TwaHcU1CfwVVoNIP35hlWMcdpf9CeDvsWa+emtLsREsQCb7ggKyd5FM38R6WO2iEf+KLfv/l1Qf0v5GKj9jvVitot7gEXsGq8Umry/E+nmObfBcr2odG0CKvrekVC6XF9BBAMFgXPuoHTz6t26me/lg+4KHB7iw3QFkNstjHbD13hmeRfbInG9MM/1novSTHbA+9e/pnsNqE7WarWp5GbsrTxZ2Dis8V09x7KNYrW06c0h+QHYLx9Gpn8cor72GWHNQI0ap3fwE8HrKm1lzWI13upMQs+YKxbXLjtGZAWTigRPmdSWbpUucc/j7739qDNUdLtB/ybl0Lx8Cv8VDdacQBEG7F1WMRzTN5KtVn8Vusvs8qllPeb9DF1YY1vdmZPsR5YWpw/pGFtdxbA82cXImbqXy9fWxa52OZdiky2Oj/w/KeI6PjVBLBocA62xPeiKVtzi4fZCZNYsmHYYNlEi+h93Y6zITv6T8xiBg6iHLc0pH9oG42962JrPFxDlC3yMcdJCbInhs3Uz3ssG2Bw97mreAKZcUbplurICdSSd6HtjdnOxU8LFCqh6Hkz2iLQRey/SCnMNmkKc/cCHWVFaruSaeiT7T/q0i1sd0LOWTLLOalLIcht3Br8RGTAVUjmLqwq7lMeCnWL/JMJUFd3/q3HdF504OU/ax4c7XYIX0f2I1hXom/GVZQeV7GmB9PK9jeoEqPR8H7DrTAXJO68gAQnG8cu5EtFlUsWyr2tLv4v/84QL9F29qcc2jMfmcj9v21hO8lf/62IxP1rj4Dnk2DuXNYXMI6nUElYHQx9admkkNyZEdlKYqbDwa7/eo5lFsZFKy6r0IC95ZhSHY6/Gu6P94RYBa/QVdWLPYBiyYJEcqVbMbq6GdQfmQ6XjW9xqsptQTnXMHsB0LqvX2lRxFZQD3gXfUeXw1cR6T4iCSNRR4zunMABKmlkGPCvug6BEOp2ofWcFj2UiLg0eDQSVw0L1rHXb31w7tnodSSyMdpAvJfvFbsbqtwxZ1rCXH1G379XqRyiCYw2pHWQXxb2Id/QXqX+3ZUSpU+yhNypvKjdhn6HVUzl2JzzcZPWc1sC76voDVdH4IPFnj/Euq5KMVK/p2VADpzD4QEp3OcYAgY7OorHkey0ZsjO/+o1IOdPCI0xsdP62xAztGI80TfS3LRbb06Kg0j+kvgpg2RPZrkXXNH8DmV+yj8s49nmsxD+ur6KM0Kz7Zl+Vo7MP8VeArlPrTsvIaB6hJSkFtDfAnwCex+TtZ0s1mrRT34XSEjqyBjI57xw10ueS0D/wJCEdcqUssc7RV+zvMM9PzgPZ3pM8FyfkSMQ8rgJrVoRvror6/v2b1a9U7TPptWN9Iur/Bw4LFbmxJkZ3YcN2A0p4kh2JzMl6D1Ugbrbn9Ivrais1F6YnOke5zicUBpYANSPgkVptJT/TMeu+6aE1BP9VNwZzSgQHELR7oWuylJ5T7e1zi3ikVPC45d3Z0mNdMz53a+EkkZZTywibeJ+SjlPaIaKZqfQ+xZt7NLmLqZpxDsGHM6SarPNY/8TfU7pP5D2zpkTy2BPzpTK9p85bo63is4/5EbPhvvMR7VkAJo3y/A2u2TC7tng6GeSwIXkfz31cvI705q+MCiLtlwzqGfeJywjlHMOHh9hHdf2YEj6WzPHg4mJhwU7Wny9TScxIcpQ2q2lEoOGzpjWZYSuWHzVE+G/5CKq8zhzVlfaaBtAJsf47DsRFc050k+gTlI+iOwgLKSVgtx6cyQI0C/w1r1orTHcKCY8xR6u/qmMK+FTqvD6Swe12pjHA4PPx4yZJEn0dxqED/JdFQ3VYvyd6IzPRgXk+Ic/9wTOMnlIQXqPyb6MJGIbVDPNS3GU6kvMbjYYVtsgBOL9wI1iRzzTTTzApaMxHPAL8GW7zwVir7cOK+l+SKvM9T/r6GdNiM8VbpvADigjXRNzgHwRi4gv0MUXPWUIH+rZvoXjZL+zyq/e7hf17b+Ekl4Ukq28t9bNRPOzhsHkUjS8BXs5LKNaeSI5d6Kd8OGEqz+BsZCh0bwPolWjk36XvYhk7pZr4AG0oc20HlUux5rBYjM9CBASS/qhQs4tpH+WirvovOoeegVg/VbVCt4BGnE4TqSJ8ZH7vLzaUe2zTD8y7CmnKmY5LSlqvT9XrKF3QEq1kll3fpozJ4zmQeyhYaGyZ7CPC71Dc7P+lZrO8lGSDSc2y2U/mHWMRW552JY+iwTvO0zgsgTKzCRZtFFcCNp4LHlnPoOXhvC9e2qvV4tafX+fzA15pYM/cjKteN6sL2W5+uN2F9CFdhW702IsD2/Z5uk0sXtm9GVmH+s1Q61Y5v1BIs6NYzCuu12Fa2n8ZqSZdPI71nyS7L4vcxxOaLpJcdWcnMaiG/D/wv4HeoXOOrI3RcAAl8txA8q328HEb7nL/ag0f8HAWQJngAuztN3o0XsQ2iprN21AlY0BjG7orfhRU6r2/gHGPYHh7TGZF1ZfR/8oPUjU2+SzZp7aMyiITAqgbT68ECQno5/CwfBK7A1tYaxTq0T8GWHmnEIWQPEEj273ybytrCGBYEFjaYHti+KT3Y63YStgfK57CBAx2jowKI+9nFq/K5YrRVrYNiqc+j76JNLQ4ejc6rqpZe9bT2jQbt6uyda75JZWFdAH6bxpqzjsYK/niJjhArJHuwu+Z6xW/y1ZSPJqolj9V4Dqay8xzgptTzQ0rb4iYfOwhrjqrHr2H7n+So78P+jSg/yUBWwAr1egcPLABOpXKl3fSOi7ux9bTSi1qGWO2wkb+dC7BZ+nGAived781Id07rqADC0w+uI4TQgf9KtPbVUIG+izdHfR5tWpI9Sz19HmWTWWB+nwe4arNxpX4PYEt9p5tvClgTy4ep3WTRj03Iu5LK9aC6saajp+vMS/w3Gu9+9ilsjkWttvfN2N4YB1HZjNSP7e+R1bz0AJXXPIEFkN/BOvSz9GHX+8lUXqeafLk7SjO9h/wENvfmkimOPxlr+koP5Y1f47QvZ+QrDiJXAe/EAlI1R2C7EW6lcoWAPhrfN+VVr7PmgYTBOoi2qp2E4t4C/Rdvpueg4VdZ8KgmxD189mpvdctWtu0k12B3012U3yGPYzOur8SaL56kNEppIVbIHIL1OaSbcfLRMf9cZx7iO+mjKAWiArbMyDlYAbwzOmcP1lF/DKXmm/QHqRfr4/lFlfTuBC6icmXncayZ5vNRfp6J8jEQ5e2w6HrjQjVeRXgvUw/lvR5r5hugfKHHMeBcrOlwe3Sdo9j7sQTrv1hK5f7rXvTY3Rlp+dj7+hHKJ0vGr+sp2OTHF7AAvw97D5Zhr+v86DqTiz6CBfOfUbnb4pzXWQHEhSvDEPyXoThSYOCSWbw8Se0n1fhdcT3l+3vL9ARYm/anqVyxNsQKuC7sLrg0sahUGKXlsQLssw3kIY/NqH4MG4kVB6R4F8ellI82ipvIsvRio66+NkWaXwI+RPny6lBaMmQZ5ft/hFRe73xseO0l0fOn+lB/LvpKv85xzeJ4ypeed5SajZI8LBB9rkZavwL+N/B7WBBJ5i1+XRdhQ7eT72v8nqfNw4YJX1cjzTmrs5qwnL+2OAjFPbN8bavaT6r964mCOtKbZx+2tesespuM4oIsLniqrdk0DxgEPk7jK8D2Ycvl/wArHNO79021LXBcqP4Q29Z3KjuwGtJ8spugaqXpYU1AX8EK6nTTVDWT2Ou8l+ylRQIsmMRfPpV/CHnsdf4itg1vLQ9hOy1WW48spPJ9TacXv64/B/52ivTmrI4KIIWCO2riqQL9l2yKmq1eTfM86kyrtdvbxiuxpr+avdBgUiO7F6Z3Ruxh5rXsItaUdQtWQPXUSD8pfq36gNuxu+Kp1r7KU3mt8dDTb2J7lLsoH1PlIRc9LwD+Ojq+Xj/FrnkSq7nUm5bDmrl+Gj2etVNlekJfrIjta34fVjDX+7nKY/06L2FB6PE6jgELcH+CBZNG0kte65ewJriO1co//NnF/fmhY3/xsefyGzbRfXArO8xrPV7t6U0KHh6MFAgXnfNotT/SmVqOjdtPFoTdwB20bj+QN1BegOWwQiKroDiN8iYTD1vr6cdNzM8mbN/rwymNIEqml4v+fxFrF7+DqQNH7BSseSg+XzxbPL3Py9nAmZTWmUrPMM9ho7x+CNxfZ9rVnIH1txxRI60Xsb6VdL/DGZTvsZLDNraaagDBALYu1ynYxMJ0uh4WOIrYTPm7sJrTdM3HPmenYM2C8Xuafl/DKO/3AT+ZQXpzRscEEPf3uUvdiWfe5C3fNzeDB0TjSzy80049BK5/sbGMyDQcjgWsgejncWzhvp20ZhOqtC6sc3cxpU29hrARZPUGrXrlsMmMiyktsz6C3cm3ckHCPmxI74Io3XjV3RewWkez9UTpLaJU0yhEaWlwSkrnBJDb33MifQ9+j153lI2rmSN9HrEcBOMh+TF3r3f+9gvBa9ZGRCIimTomgMTct9a8Y98C95X5S/M9ZYMVZ13wqD9w4DsohE/z0PhveH/8zE+nPEZEpAk6LoDE3HdW//dCr/fp/iU5q41UlNezvOYRBb/CnmCif69/hffWJ7/eeEZERKavYwNIJO9uX31Dsc/7ze4BL9FNN4uDRzSPdvSVkIGJ8NPepTsamVcgItI0nR5AAHAfPvEYLp53k+vz1no9LmM0/SwIHlHgmNzr6Blz/+JdtP3d08uEiEhzKIAkuOtPOt8/rOvGrgW5ZeSJAsksGG2Vg3DckSu4+70Ltr8FjQYRkVlAASSDu2nF7w128Q9LDommU9TVP1LrhNMMHjlssORouJOHJ9/uffCp+xpLWESkdRRAanC3rbym0MMf9S/OJaYVHYDgEXWQ7305mFgwErzXe9sTNzSWqIhI6ymATG2hu2PF1/y+3JaufrJXG6qm0eAR9XPsfTlgwaT7jHfpjqsby6qIyIGjAFInd8nhK/nQwm/RnzuZbqYOJI3M84gCx8RIyLwJrvO2bH9PHSmIiLSVAkiD3I0nXDqxvOuGeYtz8yt2Tdj/pAZqHnEH+Zj7kXf+9rdg6wqJiMx6CiDT5G5a8dHRPveFgWX58mXX6g0ecQd5wT3LjuLl3u8+kbWDmojIrKUAMkPuuydfN9mbe3fPQg+CrBntKZ49Z+RlP1xY4ArvLTs6bhtMEZkbFECawLHhUL439q2wzzsj1+tV39bHc9ZBPuGu9i7b8ZkDnU8RkWZSAGki98XXbGRD19fpyx2R3sZoYiRg3kR4g7dlxxU0f6ltEZEDTgGkBdw3XvM2lnW9f6wYruqblxtlPPyBt+Wxq4Bd7c6biIiIiIiIiIiIiIiIiIiIiIiIiIiIiIiIiIiIiIiIiIiIiIiIiIiIiIiIiIiIiIiIiIiIiIiIiIiIiIiIiIiIiIiIiIiIiIiIiIiIiIiIiIiIiIiIiIiIiIiIiIiIiIiIiIiIiIiIiIiIiIiIiIiIiIiIiIiIiIiIiIiIiIiIiIiIiIiIiIiIiIiIiIiIiIiIiIiIiIiIiIiIiIiIiIiIiIiIiIiIiIiIiIiIiIiIiIiIiIiIiIiIiIiIiIiIiIiIiIiIiIhM2/8HDGrtqEAAAAADSURBVEooC05IMZYAAAAASUVORK5CYII=;" parent="1" vertex="1">
          <mxGeometry x="250" y="120" width="258.53" height="132.5" as="geometry" />
        </mxCell>
        <mxCell id="efpffI7OLtBo6xo70BxB-9" value="" style="shape=image;verticalLabelPosition=bottom;labelBackgroundColor=default;verticalAlign=top;aspect=fixed;imageAspect=0;image=data:image/png,iVBORw0KGgoAAAANSUhEUgAAAZ4AAAB6CAMAAAC4AMUdAAAAwFBMVEX///8BKjUA3IKA7sAAJzMAABgABBsA3IDe4uMACh719vY94JQAABkxRk4AGigADyDEycoUMz0AABTo6+uYoaQAIy+S8MifpagAGykAHyx07bvX2tsAABMAFCRTYWcA2nk8UVkAAABteX6NlppGWWCutbe6wML0/fnb+uzo/PPI9+J2gYalrK+Kk5eW7MDP09UmP0if8s6u9NW+9t1n5acAAAon3ox156628tNS453T9+Vbam9ue4Di+/CI78SJ6rgYg0IlAAAND0lEQVR4nO2dbX+aShOHMUGjFEFRoiQSTYimqbGxTe2Tyen3/1Y3KOzMsrMsGFqT+7f/Vz0BYeFiducJjmFoaWlpaWlpaWlpaWlpaWlpaWlpaWlpaWlpaWlpaWlpaWlpab093b/cH3sIWhLdfb1IdP7x2APRIvT74nSviy/HHoqWoE8ZnVjnxx6MVk73iM7pxdOxh6PF6/wU6+Lu2OPRwvp9weE51cvPm9JpThcvxx6RFujpIs/nv2MPSYvpTqBzevHp2IPSyvRFoBPzOfagtFK9iMYT6+uxh6W1138UndMLnX57E/pEGo/OHbwR0XBi8yFyo3c///z4rHOm/1A/ZXhOT4V9P0+nZ2fT6Qc975WXNRgMrIN/TTjVzHzyqbdv05OdzqYHRq3RkCkayHayYK/o8Ov6B3qAq2lT263F6rZhN23b9tz+Nuodcg7KqWZ8+NTbl5ROzOfkkFMZxrXD1LmV7WTBXtdvGs86zMa5IW79fOa5Y7+RygycTmtbmdBHufGc5lJvd4zOycn080EX1GmA7IVkJ6vJ9mm+aTxdMxunK9z3oRv6jbyCVl920RLRTjUzHzyJ/Tg7QXwOWn4wnoYj2en/AE/PDwU2eyNqzaSTOiEx2cYLpd4+IuOJp7dfh1wQh2e8pHc6Gp5tN9Ws3P5SPKuJ2ZDJ98obUIFfIJjPB2w8sfkckpTj8DQml+ROR8NzG5g7+f1y+8vw3PCXmddkWHZAXxV0UGj6kzOe2Hy+lz0JEj9uc03udDw86Wphvg7P0i2kE/N5KHf8e6XxwApzxhtPbD4HlOxyj1VIPkfvHM+82VBp81jq+OcKOigt+idPJ+ZTveKdt3qPWiffNx6Lp+M7oeu6YcAtRua4zOHzFWzReNiu91OBzsnZj2pXb4h4gitip/eNZzlG1xfat9G811s8LButAP3dkXhFnFS2g0pyv0Tjic2ncvJNWDOp4Odd47EmyHLcIYz/covNaqJ2r59UeMCrfiKMJzafDxWufSfRpSHM/F3jeYCAx+/yo+91YIZzVqqDV3GqTyjjic3nZ9krT0XgEc38XePZsjnMbOT3b6PL91UHL0q27QSe2WfSeGLzOSt3HUxEQCAGP0fDMzNfjwcyOa44by9sttWmYz4muoKNjYc5ZncSOrH5/Cl55akIPGLwczQ82bz0CjwWAHCJX1wxeuGo+NjFybZYUE34Rk9tOz7VUm9UOO3mg59j4Ymc1+MZsLGbM+IXPRaxBjeFh5ZVsEFs199S46mceiOzHc2cF0PjSapaqYgD5zcO1rNM3XwtZtBl29aX7LePKBXTRycrcLGq4zFaZqqA3MyknNp+s12/y40nNp9K3fJ4bYR/5YIfGs/w2t7La4rHbWcb7et0Tp9P/FRB3ha6Qbaps/OfNknBzO7guMRm2szkV0NNbjB2cvG/7ZZKu1ZItn0pMJ6qhTnA4zzAv3PBD41nlE09DVM8bruVbWxltgIuVC4GjNgE43d3fwjk6WXx2cGiXAO4qpZi8S9QhWTb3bTIeCoW5tDgBzfwuAbcTvXgMSB6n+CE5SXEjWlKqVY8a/Y3f1bhxvCqkGz7UUynWuoN4WlbIbsS/vmuCc8jcAiRh9FnZ23N93+pFc8zPHRh8eovV3EF+xQn2z4WTm276e1b+RNjPMYc/osLfmrCY6xYAI9Se8/sMME2/VOteBaomuAIXkk5qWwHJds+qIwnNp/fBafixeExZtAogYOfuvAYa3b8TlZh6YFJsRm1VjyGjX/sVW/+UFewkVOdL8KR5lO+MMfjGcC9wsFPbXjaHjtQusxYkBGbsJpLvXhWDv550BkvF9WCN3WyDTLRQhGONJ/ShTkejxHB3ULBT214DPAO/b15XrGVIYScZCvcC1x9M2RqSfu9ZPUel6dtBm5zvVyUbwCpkGz7U8J4kq7Est5BDg9ap9FTWh+ePI4HtpuPZtN5qm3Gx+wv5kwFjRt0tXSBSgrZAcdh07yZl0JUIdlGFeFIPmULc3k8yLuC4KdGPGgy2zwaA5js8pmKRMMakjqJIrqaHYReP1L7CspkG1QJyCIcOb2VLMzl8RjPEJ2wKLtGPMgVMH2jy6avFtWMURceI5L1UZljbz0vPmaFZNunksZTvjAn4LFgIWXBT514jCX8DPJIzKfmVBseY8FliHhC4biwT0cFByXbJEU40nzKFeYEPMac3VgW/NSKBy1voID0perDY1g3EymghruWT3EFr4vsBck2WRGONJ9yhTkRDytRQvBTL562uFJP6D6mGvHEp72ZODKH3Z/I/A21U42SbeXplC3MEXhw8LMvUdWLxxjmuwJDSZ2/VjzxZYzWHtEGv9NGsgIpnWpIthUU4Ug+ZQpzBB5jCN7VPnisGY9xy88zvlCezQZSL55kWKPbZmdMGdGGTGerk23MqS4qwlEqVZij8AjBT914rA53g8jWx0T140nUW3WbroDIJC6ihF8AxbXCIhxpPiV64kk8l7ngp248xgLiHYlPvdPfwZNcUG/Vb+ZWIqp/uYJT/bWi8ZQrzJF4UGOlmQQ/tePBWX7ap97pr+HZjTBq8Nke8e2m2pNtOfNRF+ZoPKhylgQ/9eO5BO8glN/Iv4on1qKPs6Vin5Wygg3JNmURjuSjTL1J8KD+rzj4qR8Pjn3k/X9/G088TUCQ1wjy/ZfqCja7vS+Vp7ZE6sKcBA9KXcbBT+14nvFTK5/d/j4eVCEU+/uUFWyI/EsU4UjzURXmZHig/ygJfmrG08OeQex+yLJeNeBZ3mSSvIIAP2nY/Bbl6yLgF9Ad7yXMR1WYk+HBsWMLtSLXgcfKv4VrSzzrGvB0nSAV0e2VaE5WuBKp4KBk2wF+QWo+is9YSfHgDpdbeMJIPMQb3dB9KeK5yme/0v4pQTXgge4jcg3kuuD5p6TC6yLlinCk+ShSb3I8KPhB6ziJJzcrJILXNoTbgvrp2M2MyMHVgCeCZ4juoQYz5/FUSLaVLcKRfIoLc3I8KPOPhPHICRjG1pdtRCU41PhGplRe0WPdSZOsYMWSY1yiiRvjqVDBLl2Eo1T8tZ0CPIZP5KYQHjAQ8cFE7wUIkyZ06wwV9+4V1tPJaiHwMHTIrDR6OwtPAhUq2OWLcKT5FBbmivAsiBowwrMouLmrsey44Mk6N8aInd55JgY3OvwFEjZRQW9YY0wVlWCJ5RxrVQX7Ncm2nPkUFeaK8IhrOIenjd6cybnGqGEqd1zoZdjdcshde9Q3iuDJLrgEJJiOvexP3LuL4i9G4KDisLRCsq1KEY40n6LUWyEeC3fwCXjw2w0dzumxsDPBH9dkWybJ35GPHYrP9iM7g8z15gU4kSWgUQbd/Dnm6DnqoAdEBQeSbdWKcKT5FBTmCvHgZ4vAc4X60ALcbNjANS/uuFs26aVtjtAZEhD9a+zmmWv12wUWdGVhS4iQh+N3uFWyvUU5HfzOs7LMAxXsikU4ko+8MFeMB83MBB409zTMySrdMsh9XggfF1YzBgP8w45YWEB19Y6XCr3fs7r2kJpoODinwwXBobtctJORDh5HMw8/RrigoIp5wKk+LNnGqyD1psAj9AVwLy9ytuV4t6vRaNn1xvwv0HEtdjbTZceB7Kj4aYE58TEc1B4ZUa7/Hg86yIJPIQWh7U0mnt1xuLq2iTOzqlQ1GA/xbZbqmh6KRwh+ODwRn53xx46TVSHBgNBxwYtC3+iCJ4AoahOdARjPWNy8E/+RgmfJp9w4ca8cqfCA2/aqmIfhkTYlqvCgtVzEI+9VN8HFRT0MzBY4Nxq8a7ElZC46J2XwdHgXYCbbD9Ti8hYqx03xcZbKeKSJayWeHh/88Hh6G8nVuo9izq3N+9Qg8K7FhqqtMH+VwNPMp8Bn0lkwlc3ns1UZHcBzUBlOwCP1DZR40CuhIh5jSHcvbxYDMWMNi8yGPxV410Q/Rjd/Z9V4XDHE3YpWiGRu8n0GipQO5JkPLSVgFZQV1Hgs7HwK3zWIxJ7C+PaPiIICrGLCdxOg/jMWS3NXLX4GVeJpUgmIuSdvEg1NwWgV5oO+GPrKnMHOeOTv0qvxGA/YfRI+O7Gw89cdtBZEvQcCHF8McABdU0yMPYQhBqTA47To4p51MyFhmqFNpcuLC9moBeRF8SJ2CToFSWs7++qC2ZT2GXcDtpPpCbF9ct1w+8zxZJvs0m7yx7U2dmevlk2kvvrNbOs1kR8Y9b1w7Gefh0B4QpNT4LSCFZVY26m9dN2cL+M7zf6I/sHdeSEg2PHl+/TsFZoW9uuM+5kcKZ427NQnUi9xINr33OQD36Hr9Vf729t2+OMOLpnI7y3CZnIY7fnyqrveHxDmv8jsI61nN0PFNycXy/6kE4bOeOyEodt0r4YFyYj7py/nUuEq59OPDwfr1+d/8b9XGPQehtHwoVflk9DHkfW4GEWrVTSav4PBamlpaWlpaWlpaWlpaWlpaWlpaWlpaWlpaWlpaWlpaWlpaWlpaWlx+h+nlTND3tve0AAAAABJRU5ErkJggg==;" parent="1" vertex="1">
          <mxGeometry x="277.46000000000004" y="236.25" width="203.61" height="60" as="geometry" />
        </mxCell>
        <mxCell id="efpffI7OLtBo6xo70BxB-10" value="" style="shape=image;verticalLabelPosition=bottom;labelBackgroundColor=default;verticalAlign=top;aspect=fixed;imageAspect=0;image=data:image/png,iVBORw0KGgoAAAANSUhEUgAABVAAAAKUCAIAAABtwoQzAABtCUlEQVR42uzd6Zcc533Y+/wx9819kxexYlsRRUoiKVGkKO6rKNlabEm2ksh2IsWO7WMpThzHyfUSS6ZW7vuGme6eDYOFAAEQJCCAC0ASALERC7HvOyDep6ema2q6uqqrl5npnvl8TrvOEASBmeouHX/7V8/T/+ojAAAAYN75V04BAAAACH4AAABA8AMAAACCHwAAABD8AAAAgOAHAAAAwQ8AAAAIfgAAAEDwAwAAAIIfAAAAEPwAAAAg+AEAAADBDwAAAAh+AAAAQPADAAAAgh8AAAAQ/AAAACD4AQAAAMEPAAAACH4AAABA8AMAAACCHwAAAAQ/AAAAIPgBAAAAwQ8AAAAIfgAAAEDwAwAAAIIfAAAABD8AAAAg+AEAAADBDwAAAAh+AAAAQPADAACA4AcAAAAEPwAAACD4AQAAAMEPAAAACH4AAABA8AMAAIDgBwAAAAQ/AAAAIPgBAAAAwQ8AAAAIfgAAABD8AAAAgOAHAAAABD8AAAAg+AEAAADBDwAAAAh+AAAAEPwAAACA4AcAAAAEPwAAACD4AQAAAMEPAAAAgh8AAAAQ/AAAAIDgBwAAAAQ/AAAAIPgBAAAAwQ8AAACCHwAAABD8AAAAgOAHAAAABD8AAAAg+AEAAEDwAwAAAIIfAAAAEPwAAACA4AcAAAAEPwAAACD4AQAAQPADAAAAgh8AAAAQ/AAAAIDgBwAAAAQ/AAAACH4AAABA8AMAAACCHwAAABD8AEABv54xzi0ACH4AoP963jsCACD4AQCRL/4BQPADAAsj8sU/AAh+AGAehr03AgBA8AOAyJ8zVzKIfwAQ/ABAz0X+lVkk/gFA8AMAH/Vp1c/5ewFeOQAg+AFg3nb+lT6n/AFA8AOAyO807y/Pirl9C8BrDAAEPwD0R+f3bNjPwhsByh8ABD8AzLfUn4W8vzTdLPyHbb8FIPsBQPADQL92/kwUfl2Q18Vz13/Yum+v1bcDZrT/vSYBQPADQM91fqttH1dxj5yT5E9R/F0A5Q8Agh8A+iz1O4/85O30cff217mKfsaC6wK6Hv9esQAg+AFg9lK/4Ay/7wq/1f7vJP5lPwAIfgCYvdRvu/PrIn+BnNWC8d+t8vdKBgDBDwCz0fkLMPI7jH/lDwCCHwDmuPMLrsl3ttMKrvlX/gAg+AFg7lM/zlfD/JaejnC68stf9gOA4AeALqS+zp/H5e88AyD4AUDqF+388LWS7O6T1fRuf9kPAIIfAPXY5dS3Pn/WNF3nL/sBQPADoPa7mfpu3Z/lJzH/Vv9Ost/pBUDwA8BCSX237vfyc9rGwF/2AyD4AWChpH57d+/Lwr7O/iLl79wCIPgBYAGlvrv3e/a5nqH7/J1bAAQ/AMyH2s9PfWe197WR/ZofAMEPAAsx9e2936fZn3wGZT8ACH4ApL6P2Zuf2Z8uf9kPgOAHgPmQ+g1rPyv13cA/z7I/+cw2zX7b+AMg+AGgb2pf6tP17HdKARD8ANDTtS/1Zb/mB0DwA8C8Tf3wj/pt4bxs0s++7AdA8ANAf9S+nfnI1+p+fpofAMEPAD1X+5brk5P9xRf2a34ABD8A9Erqu4efIq+oLt7h73wCIPgBoMu1bx9+OtHFPfydTAAEPwB0J/VbHew7mWQx6gdA8ANA79Z+zmBfhlHkxWZVPwCCHwDmuPYN9pkh3Rr1O5MACH4A6LT2s1L/4sWLVuzThvCyCS+egtmv+QEQ/ADQhdQvWPuh1gz26VB4CSWz3+39AAh+AJip2i+4Yt9gn26pG/W3varfmQRA8AOg9ju9jd/+fHT9NVn3AtP8AAh+AJjV2ncbPzOnK7f3O40ACH4A1H6h3fjtz8dsytnJr/ju/U4jAIIfALXfwmDfbfzM2gs1fsm1Pep3GgEQ/ACofbWP5gcAwQ/APEr9nNqvu43fon3mRN2S/pzb+y3pB0DwA6D2G9d+1mDfon3mVrSkv8ioX/MDIPgBUPtqH80PAIIfgAVc+zKJ3nkxa34ABD8A5NW+Lfro35e0bfwAEPwASKM2t+iLh6jOIb0p+Sptbxs/5xAAwQ/AAq19G/LT46Kt+zU/AIIfALWv9tH8mh8AwQ+A2gfNDwCCH4D+qv2cDfnVPvOp+Qtu3e8cAiD4AejX4DfbZ8E2f5E5vxMIgOAHQO2D5gcAwQ9Aj9W+O/lZsM1f5N5+JxAAwQ+A2gfNDwCCH4AeqP2cO/nDF04g80nyte3efgAEPwBqHzS/5gdA8APQP7Wfcye/2mdhNr97+wEQ/AD0fe3nzPYDJ5D5LX6pm/MDIPgB6Pvazxrvp2tfz7AQrpGCzZ91NTmHAAh+APqp9i9cuKBkWDhXSnjBa34ABD8AC6L2w791Dlk4wgte8wMg+AFQ+6D5NT8Agh+Angn+grUfftEJZGEKL/5Omt8JBEDwA9ArtR8Hf1z7PoSPBS5cAnXN74P6ABD8APRH7afH+3Ht+xA++Gjig/qymt8H9QEg+AHov9q3LT/E11F0RWh+AAQ/AL1b+zbqgzbYwA8AwQ9Arwe/jfqgPTbwA0DwA9D3tW+jPmgovYGf5gdA8APQN7Vv6T7kXFnpxfyaHwDBD0DvBn+y9i3dhxzRYv4iG/gJfgAEPwA9VPtu5oemohv7NT8Agh+Anq79ZPCHoxMIRcSXjBv7ARD8AMxZ7SeDP3/pvpv5oaCGN/Y3bH6f0geA4AdgpoK/4M38PocPWhJ9Sp8b+wEQ/AD0dO27mR/akLyCND8Agh+A2Qt+n8MHM33RdfIpfU4gAIIfgHZq3838MAvc2A+A4AegR2vfzfzQITf2AyD4AZi94C9Y++fPn9cb0PkFGC6ltpvfCQRA8ANQtPYbBn/DpfvhH51A6Fy4lHIW8xvyAyD4AZip2m843g+cQOiW+LJyYz8Agh+AGQn+4jfzh9/gBEK3hAvKjf0ACH4AZqr2k8Gf8zl8IUvs1QddFy6rqPmbfkqfIT8Agh+A1oLfXn0wt5ekIT8Agh+A7td+zni/rvbt1QczJFxcBZvfkB8AwQ9A0eAvuDO/vfpgRjXcva/gjv3OHgCCH0Dtt38zf/h1JxBmTrjE3NgPgOAHoPvB33Cvvrj27dUHsyDevS9q/pZ273P2ABD8AGrfR/FBj/IRfQAIfgC6HPz5tW+8D7Ombsjf0u59zh4Agh9A7Rcd75+fYLwPsyYa8kfNb8gPgOAHoOXaN96HntXJkF/zAwh+ABZ68Od/FF9c+8b7MPuSQ/6Gu/cZ8gMg+AFoXPvG+9DjDPkBEPwAtBP8xvvQ4wz5ARD8ALQc/MU/is94H+ZQ8SF/uvmdPQDBD8CCq/3iN/Mb7/eyC5evHDt7Yf+ps7uOn3r/6Mn3Dh9/+8DRdXsPLdu+r/Le7uff3vHohq0/W/fug6+984v17z355rYXN+8YfHfX4vf3vrxj/8pdH27cf2THsZOHzpw7cf7iudCPV/RhL0oP+X1EHwCCH4DM4C/+UXzhC2ev15w8f3HDviNPvfH+90dfv+nR0Wt+XvntBwf/7b8MfOxfFv3bBwfCFxPHRb/5YPWL3/zJwG9Gx58M/FZ0/Gn1i+rxpwO//dOB6x4Zuve5pd8bW/vTde8Obdn97qHjZy9ddpJ7SvJ6NOQHQPADkFn7xvt95+Dpc6/s/PCX67eEwr/zySXX/Gyi8H888LHqY9Fk6k8F/8TxwSj4F00E/6JE8C+qC/7q8WfVLz7+s4FP/HzwUw+VP//48O+XVv7DmreW7dj34emzzv+cM+QHQPAD0FrtG+/3uGPnLoxu3fNnY+u+8tzL1/1yOMr7qcj/8UBqqj8wOdV/sMlUP4r8ieNgtfYnHh//+eDHo+PPB/7dxPH6R4e+uujlv1m5cWjr7lD+l6Xj3OlkyK/5AQQ/AAs3+BuO98+dOxf+lRM4J3YeO/V/12y66ZHR3/jRwG/8aNFv/Lh6rA/+9FT/X2pT/Qfrpvo5wT+QCP6Bj0fHEPy/mMj+X0x+Hb647tHKXy1f/9reg2HjAE/Q7AsXY7gkc4b8gh8AwQ+g9ouO9wMncJYdOXN+4J1dX31hRbhjP0r9kPe/UYv8j/3LtNSvX6tfbMV+KvIHE6k/mEj9auRHx0/8snb8ZfV4zcOlH7y8fsP+w1dk5OyKL0xDfgAEPwDtj/eD8ItO4KzZe/JMGOnf9eSSj1U7f2KqP/HIDf76qX5txX4U/Im1+nnBX5vt/zye7Q8kgn8gHfyfCMeHBm94Yuh742u3HDmuJGdNuCTzV/ILfgAEP8DCDf7i4/1w87BCmB2nLlwMu/F95hdDE4XfeKofp356rX7hqf5gaqo/tWI/nu1nTfWrj4eqqX/VQ9UvrooeDw9+5tHy37/61p6Tpz2Ps3M5R3f1264fAMEPIA/aX70f/tEJnAXj2/Z+6meVf/PPi/Kn+h8rPtUvdBt//Yr9j0+b6g9mTfVrwT8wEfwDIfivenjgkw8Phsc/v77p+HlbPM64cGFayQ+A4AegnU/ji8f7tuubabuPn/7bFW9OW6ufeQP/QCL1U1P9B2tT/Tj1a4/ow/YmI/9ng4nUnzbVz0r9T9RSP57qfyKK/InZ/lUTnV99PFI9Xv3I4B8MvfLK7v0W9s+oeOu+IkN+wQ8g+AFYcLXfdLxvu76ZtmTb3tseH49H+s2CPzHbnzbVnzwmgn9RdvBnrdif3I2/+vhlTvAPJII/OdsfmAj+gRD84YvrHi//ZP3mMxft/jCD4ovUkB8AwQ8g+IuO9+Pgt13fzDl76fIfD62t+7C9olP9BwtN9ROpPzhtxX7nU/2HqsP8abP9Rwaj1L/60eoX1eOjg/e9tORX+w95rmdIuDzzg9+QHwDBD7BAa79uvB8Ff3Jzftv1zZw9J878/qJXpgb7Baf6/5Jaqz9tqp95G/9vF5nq/6KNqX50G/9AVvBf8+jgF54ZfuytLaeN+mfm6k7e1R81f3w5G/IDIPgBFm7wNx3vhy+cwJmwcd+Rzz88Wjfb/1gt9ePI/1htqp9I/YL78E9N9ePd+ON9+OOpfoPZfua2fBlT/cRs/+pa6l9TS/3q8bHSNY+F4+APVqzbd+qMp77rwkVqyA+A4AdQ+42DP2e8b7u+mbD0/X3X/KwSf/BeGOk3C/6MFfvJtfqNg3/abD8x1U8eJ4L/lwOF9uF/aOCTdSv2Jx8DU1P9+uCfetz2/OiGDw97AXRX3dZ9+UP+hv+D4BwCCH4A5knwF9+uL3ACu25s657rHxpuPNX/8UBqqp9asZ871f+tnKn+zwtO9QdzpvpXtTjVD49PPV6Kjp+aOH7midLz72yXmN0VXa227gNA8AMI/qKfxud+/q57Y/+Ra385XOw2/ukr9h+sm+rnBP/0qf7P6tfqt3Ibf3KqPzg52y8U/IOJ4J88TjxK4fjpJwbDkn4vhi6K7+r3+XwACH4AtV9ovO9+/u7afvTk5x4ayd2Wb/pa/ZZW7Cem+onUb7IPf6PUH5xK/fRU/+HatnyPTNuWbzLya6n/qcdK02b7U6k/eQzN//+99qbS7Jborn5DfgAEP4DgLzTeD0cnsIv2njzzpWeXt7YPf91u/Mm1+nnBn7Vif7C2FX9e8F+VnO0/PJCa6g803Ic/Ffzp2f5gnPqTjydL/3PNhvPeVOqS+LI15AdA8AMsxOBPj/eTwV+3XV/4FSewi0/EtwdWJSM/Tv30Wv3CU/3B1FR/asV+PNvPnuoPpqb6mfvwp6f6V8dr9VuZ6kfHzzw5eQyPv3/9Ta3ZFeGCzdq6Lx386eZ3AgEEPwB9XPvu55+zJ+Kjj/5ifH3dVP9jxaf6hW7jr1+x//GGa/WLrNhPT/UfHsgO/qypfik51Z8K/ifrgr96/M7YynOXvNg65a5+AAQ/gOAvdD+//fm76P+u2ZS6gX8gkfqpqf6Dtal+nPq1R/LD9j7+s8FE6k+b6mel/idqqR9P9T8xuS3f4FXZU/3cG/hLidRvMNVPp34U+eF47VPVCX/1+NTg95e9evDMWS+VDsXB765+AAQ/wMKq/XTw54z37c/fLaNb9/y7n5TyVuxPm+pPHhPBvyg7+LNW7E/uxl99/DIn+AcSwT812//k5Gx/oFjwT5vtp6b6g596Ij/4B6PgD8f/svzVw2e9zdSRaK/+gkP+hv8T4RwCCH4A+jL4i9/Pf/bsWffzd8WZi5dufmwsb6r/YKGpfiL1B6et2O98qp9esd848kupqX5trf5j2VP9eMX+xHL9aupPTfWrx+rj6erxuqerX3xz9OWj52wV2b5w2YaL1139AAh+gIUb/E3v5w/N4P/174q/XfFGk334p27jX1TkNv7fLjLV/0UbU/3Jtfqf7MJUP+82/s9Mn+pfG47V4B+Mgj8cvza0bPPho145bV/1cfC7qx8AwQ+w4Gq/yP38PpCvKzbsOxxtwv+x2lQ/kfoF9+GfmurHu/HH+/DHU/0Gs/3Mbfky9+H/ZN22fI/UIj/ejf+xWuq3tg//5G78cerHjzjyq8dnql9Uj8+UvjGy/M2DR/r0ST9z6dL2EyfmsJuTV7EhPwCCH2BhBX+R8X74deewQyfOX/zGSyujqX4t+DNW7CfX6jcO/mmz/cRUP3mcCP5fDhTah/+h2j78D09N9SceA1NT/frgH0wEf3K2X1urnxP8T02b7V9bm+1PpH7tmAj+658p3Tu4eOvR4/34vL/4/vtPbdkyh99AuHgN+QEQ/ACCPzP4w29zDjv0+MZtv/XgYG2qn1qxnzvV/62cqf7PC071B3Om+ld1MtV/rPlU/9OtTvWfrkZ+lPrVx7Pl658tfbmy5L2jx/rrSX/p/ff/6rW1ofnn8HsIF6/gB0DwAyyg4G/pfn4fyNe58Knytz2xeGqqH6/Yf7Buqt84+D/76NDtTy++//mlvze48j8Or/52+ZWvD6z48ovL7nxm/MYnRj4xUfit3MafnOoPTs72CwV/m1P9T6dW7E+f6pfqp/px8D8bBX/18dlnS98ZX7nj+Ml+edLfPnLkzuHh765csf7gwTl++dW0d1e/6xdA8APQN7VfJPiT430fyNe5h3+1ZWqtfpEV+9XIH/7GwIr/9vKGRzZuGdu2Z+P+I4fOnLtwOcTYR+H/whfHzl1448Mji9/f89Rb2/5u1Rv/cWT1nc+Of3JimN8o9QenUj891X948Oq61G+8LV+p+Yr9Jxuu2B/M2of/uqcbTPVTqV+d8H/2uWrz//slrxzph3373zl69HfHx2+pVL63atWZuV4REy7hpkN+y/gBBD8A8y34LeCfBaHMr3toKDnVn7Ybf2Ktfhjpf+n5ZT95/Z2tR05cvHyl9Sf6o+PnLoxv3/v98bXXP1ZJBv9Vydn+wwOpqf5AS/vwp3fjn5jqDzYO/rx9+AcTwT+YGfwTqR8fvz6ybOeJnp7zbz1+/P6x0Vsq5RD8j7337px/P5bxAyD4ARZ68De8n98C/s499eb7Taf6n3mo8v3Fr23Yf/jE+S7cT3H+8uXdJ07/ZP07dz8/nrMPf3qqf3W8Vr+lqX79tnylrKl+PNtvaar/2efK4YvPRcfny597vvSH4yt69rP6dp869aWxsVuHKqH27xgeCqP+Of+W4mX8De/qF/wAgh+A+RP8xRfwR5HgBHZi38kzdz+9pMFUPxH83x1es3r3gZmIqr0nz/zj2rc+81i5wVT/4YHs4M+a6peSU/1it/Enp/oTwT9tqp8T/NNn+9XgL8XBHx5fH1m6/fiJXnu6d548+a3ly8Jsvxr8Q+Xvr14V3nzphW8svpwt4wdA8AMsiOAvcj9/+MIJ7MSzb2//zdps/7fqZvsTN/Cv+eDAjL/pcOrMXyx7vW6qn3sDfymR+g2m+unUnxb5T5YSqZ+xYj8d+c/UIn8y9csTnV+b6tdS/4bo+EL1eNvAyIoP9vXOc/3esWOTs/2havCHR3nnjh753sKF3Mld/S5kAMEPQB/Ufn7wp+/nt4C/EyGbHnh++eQ+/A8uSgT/ohseHXls49YjZ2fp/ZSwyd+qDz789tDKYsE/bbafmuoPfuqJ/ODPWrEfBf9gk+B/rjbbrz2qI/3oOBX8pSj7bxsYfvKdLXPeo+EbWLV/332jo/FsPxwfWDx6vGc2vIyX8dcN+S3jBxD8AMyf4G/pfn4L+Ds0+O6u3/7pYN1UPzweeGHZWwfmYGl32D7wb1ZtSER+KTXVr63Vfyx7qh+v2K+t1f/M1FS/6D78icgvZ031EzfwT031wzHUfnT8/IvhWL7ppco/bXhzDnfCv3D58rPbtkYj/fhx23Dlf/5qXQ+99zSxjN9d/QAIfoB5W/utfiDfmTNnnMMOTv5H9z27NH0b/4/Wbr50ZS7zae3eA9c/UWlxqp93G/9nCk71n256G39yql+Op/q5wV89fv7F0h8sefnQ2TnYbyJs0fdfVq+e2KIvuo2/fOtw9Xjv2Mi6gwd66gUZLmcfzgeA4AdYEMFf5H5+O/Z1Iny0XnIf/vC4/pGhFzfv6IVwWr3nw3tfHI+m+tfU1uq3sg9/bTf+WurHjzjyr61N9a9rsi1fObEtX/2K/Tj105FfS/3y51+qBv+NL5W/PDy+eNcH5y7N0iZ5x86f/+mmt28fHqpN9cu3DU/O9sPj+2tWnbvcW8th4ovaXf0ACH6ABRH8l2oaBv+FnlmB3I8e+tWW6m78teC/+YnR0W17eufbe33fwQcGliaCPznbr63Vzwn+p6bN9q+tzfavq+3Df21tqn9dy/vwlxLBX8oM/hcnZ/tx8H/+pdIXFlX+bNWr6w4cvDKTdXrxypWNhw6Fwf7UVD8O/uHyRPCXB3Zs77UXZLicc4I/PeQX/ACCH4B+Cv6W7ue3Y18njp49/3sDK0Pn//bEbP8LT4y+c+hYr32Te06e/mppecMV++nI/3SrU/36Ffvl1FS/nJzqp1fs3/B89lR/4jER+dVj9bGoerxpUfWLcAzZv+HgoZk4aR+cOvWXa19NrtWfPA5PzvZvG6l86+VlJ3rvzbJo375O7up3XQMIfgD6IPiLfCBfWPFrx762rd1z8JO/KEXBf8uTY+8dPt6b3+fx8xd+uHJ9kan+p1Mr9qdP9Uv1U/2nW5vqf7bIVL+2Yj86RlP9ieAvJYK/dNNE8980UP7DpS8PvL99z6nTnZ+ocAP/mv37//GNN+4aGa6f6k+b7VeDv3c+jS8pXM5FlvH7cD4AwQ9A/9V+qwv47djXiX9euyma7YfaX7Fzfy9/q2HR+0NvvNtwW74GH7lXeB/+VOqXE6k/bbZfbFu+8lTk5872o9QPjy9MHG8erPze+NKHNr+z6ciRI+fOh838L10ptGVi+G2nLl48dO5s+A9/vmnTf161Kl6rf+vwtNl+/Lh9pFr7X1kydrZXb42Jg98yfgAEP8CCCP70B/LZsa/TM//RR1996eUQ/Ff9ovRyb9d+7CcbNk9M9QcbB3/ePvyDieAfzAz+eKqfXrGfmOrn7MOfCP70bL821a8+Ssng/8Jg9YvqcbD8pZGxP121+mdvbxrZtStk/N7Tp8NbAOH9jssTIRs+Xe/4hQvhFzcfPbp0z56HNm8Ot+4/MDZ2S6VSt1b/1kZT/bBuPwR/eDz3/tbefXMnY9++qPkFP4DgB6Bfg7/VBfx27Gtb2J//nmeXfPqhypLte/vo23787S2JyC9lTfXj2X6Xp/qp1G95qr8oFfkTE/7wRTjeHI6lys2l6vGLpcrtlaE7h4bvHh65d2T0gbHFv7N4/P6xsXtGRu4eGbl9aCj+mL1Q+4nUz5zqR6l/+2jlD1csP9HDF060b59l/AAIfoB5G/wFF/CHX3QO2/PC5h3fG1v749c299e3HTaf/z9r32h0G39yqj8R/NOm+jnBn7Viv5wz1b+h+VS/HE/1G97GPz34q19UOz861h5fLIfsD8fq45bwdThWJo8h9eOp/i3pqf5QORH85brg783V+1NP8cWLlvEDIPgB5lvtt7GAP/wGp7GtM//Rj17bPLL1g8t9WEfh/vbvL3u1GvlPlhKpn7FiPx35z9QiP96N/7nabD9Efi31b2i+Yj/6sL1ynPrxI478G2tT/Tj1U1P9KPWnZvtfjI6TqV9Jpv60yJ+Y6tdSv3Jrw6l+arYfjn+9/vXzvX3VhIvaMn4ABD/AQgn+rAX8tujvxLId+y5e7tezd+nKr3/4yrrsFftR8A82Cf7narP92qM6z6+t2K8Ff6Pd+F9MBn8pEfyTx0Twl7KDv5wI/qnZfmj76Ngs+BvP9m+bXLFfTgR/OQ7+excP7+/5fS6TG/Vbxg8g+AGYt8Ffdz9/HPzREl9b9C9kR8+dD83fdB/+ROSXs6b6xfbhLydu4C/HK/abTPXrV+x3Y6pfqU314xX78WA/Y6p/x2j1i3B8ZtuWvnhyo+CP7+qvC/70Mn7BDyD4Aej14G91xz5b9C9wx85f+O6SVQ2m+k83vY0/OdUvf25qH/5yq/vwN5rqZ97G/4Wsqf5k8Beb6lfSU/3Jtfr5wf+na1f3ywqO5DVu3z4AwQ/AvAr+gjv2ha+dwwUufJj895atiSL/uibb8pUT2/LVr9iPUz8d+VO78U9ty1dsH/506k9O9aup/8W62X65lvqVzNSvPcrpffjj1I8f8VS/ehyrfGP5+J7Tp/rlaQ2Xtn37ABD8APOn9tvYsc9n8hEcPnvuB6vWFQj+9D78pc+lduNvEPzpFfu1qX4i+Et5wT8YB385EfzJFftR8JebBX95Kvhra/Wj1J84lrOC/67FQ+sPHeij5zRc2vbtA0DwA8zn4L9UkxX8PpOPSFjP//3la2or9supqX45OdVPr9i/4fnsqX68Yr/wVP+maK3+1A38tbX6LUz1M9bqZ6zYz5jqD90xMdsPj1+8u6m/ntDkJ/M1DH7L+AEEPwDzIfhzduwL/9ZpZDIRr1z585WvFZnqf7bIVD+9Yr/wVP+m+tv4y6nb+Mut3MafmOpPm+03v40/Cv6/WvfqxX77MItwadu3DwDBD7Cgg/9yb3+cOLPszMVL/7juzcnd+CdTf9psv9i2fOXEtnwFZvvpyK9+5F4lkfpN9uFvkPq1tfq3Dk+b7cePnH3476il/p1hwj9W+d6rr/TR0v1YuLQFPwCCH2D+BH9LW/SfmeD/p6fO+cuXf7zh7c9mrdhPTPWL78M/fbZfm+pXH6Wbsqb6DfbhLyeCv5wf/PFU/9bGU/1yseCv/M6ysa0njvfp/zhE17iN+gEEPwALMfhPnz7tHNLQQ2+9mzfVT6V+y1P9RdlT/XjFfqk22y841a9UEqlfaKp/+2TkD9VN9aPjA0tHt/Vn7UfCBS74ARD8APMt+Atu0R84h2RZvnvvLS8N163Vr5vq39B8ql+Op/oFbuOvn+rf3MpU/5b0VH+onAj+cnbwT5vqTwR/5StLx9b11bb8ackJf3sb9bsKAAQ/AP0a/OHoHJJj7b4Dd5fGmt/AH0/1X6xF/kvTpvo31qb6N9V92N7UVD9K/UqRFfvpqX4t9Su3NpzqN1+xH031J1J/8VD44p7x4TUH9vf70xdf5oIfQPAD0N+138aOfeFrp5F8Jy5c+OGa10PbNwj+F5PBX0oE/+QxEfyl7ODPWLFfnjw2C/7Gs/3bJlfslxPBX85bsT8V/JU/f3318Qvn58FzFy5w+/YBIPgBFkTwJxfwR8Ef/tFppKkLl6+U3995d2l0YqpfTtzAX45X7DeZ6tev2O/GVL9Sm+rHK/bjwX7Bqf7otKl+ON61eOiRLe+cunhxfjxx4QKvC/6my/gFP4DgB6Dvgz9a3Cv4KW7LseN/uvLVG18sN1yx32iqn3kbf/Y+/JUWpvqV9FR/cq1+seCfNtUPX3xt+fiyvR9c+vWVefOURcHf0r59gh9A8APQi8HfxmfyhV90GmnJkt17vjI8XtuWr9g+/OnUn5zqV1P/i3Wz/XIt9SuZqV97lNP78MepHz/iyL+9ti1fLfWHkrP9P1mzcvvJE/PsyQoXuE/mA0DwA/R97efv2Jf1mXwX58uty8ymc5cuP/HOlnsqo7V9+EuJ4C/lBf9gHPzlRPAnV+xHwV9uFvzlqeCvrdWPUn/iWC4W/JOz/d9dNvbYlndOz8drIVzgBT+Zz5AfQPAD0PfBn9yiX/DTiXeOHP2b19bfWR7JmurfFK3Vn7qBv7ZWv4WpfsZa/YwV+xmRP5T4yL1pU/37l4z8aNMbu06dnK9NWxf88b59gh9A8AMwf4K/4WfyCX46t/7Awe8sXZEd/Mnb+Mup2/jLrdzGn5jqT5vtt3Qb/+RU/67Flf+x4fW3jx6e389OVvC39Ml8gh9A8APQo8Gf/ky+ZPCH3+BM0qEQiCH7/9va18MMf1rkVz9yr5JI/Sb78DdI/dpa/VuHp83240fzbfniqX5tN/57xof/1xvrd546uRCemnCB5wR/1PyCH0DwAzB/gj/+TD7BTxedv3x505Ejj2x+549efuX28nD2Pvzl+uCPUz8V/M2m+uViwV/9InT+769Y8uNNb249fuzilSsL5ElJBn+8jF/wAwh+APo++OsW8At+Zse5y5dX7N33w7Wv31Yeiqb6N9dN9Uv5N/BXEqmfN9W/rRb5cepPPRJT/d9ZNvaDdWuHd+/cvTCm+q0Gv0/mAxD8APR98Ce36I+DP/w2Z5KZK/8tx469uO39P1/z6q3Vwo9Sv9zeiv3barvxNw7+6VP9cPzWiqW/fHfThsMHF848Py1c4Ongb/rJfIIfQPAD0MfBH300t+BnNl6oH3105tKl3adOrdi795/eeOOv1r72RytXfmPp0vtHR1ub6g83nOoPxan/1WWL/2j1iv+5Yd0z27ZsOnrk6Pnzlxd8qcbBX+ST+QQ/gOAHQPBDR8KHQ2w4dGj8g91PvPfe/9mw4furV31r+bLfXTL+pbHR+8ZG7xkdvnt0+M6RofCoJv3I0B0jlTtHh+4aHbp7bPieseH7Fo/cPz7y5SVjX1ky9jtLF39j+XiI/Off37r+0IH9Z047vYIfAMEPMN+C/0pCkeA/PUHwFxQa6MLlK6cuXDx45tyu46c2Hzr62t6Dy3fte3nXvtUffLhu/6E3Dx55/9iJvafOhN9w8sLFSwv4NvK2hSUAh8+d23ny5BuHD6/av29k966ntr73xJb3nt22dWjXzpf37Vl38MDmo0fDbzh07my4ayDcq69EiwR/cqP+IsGfbn5nEkDwAyD4+96xcxfeOXRsfPuen294569X/uo/LV7zh8Ov/H5lxddKy788sPT+l5bc/cLiO54fu+XZ0ZufGbnp6eEvPjty87Mj4XjLcyN3vDB214uL73lp/EsDS75WXv4HIyv/85I1/2vNxic3bR3b/sGGA4f3nDx93glH8AMg+AFoL/iTn8lXF/zRB3EL/qQwij9x/uK+U2fCrP5Hr2/647E197wwfs2jpU8+Mnj1o4NX147XPFr94prHomMpfBEdP/V46VPR8fHJ46efmDx++onJ42eerB5veKbyh6Mr/27txtLWnVuOHj9z8ZKOYvaDP96oPx38OXf1O5MAgh+AOav99oL/1KlTCzn4dxw7+fAb731neNUNTw5f9fDgJ6uPgdD51dSPjnHwP1oX/FOPaudHx6ngH2wQ/E9Wj58Jx6eqx2ufKt310thfr16/eMeeY+fOez0zc8EfLvPOg1/zAwh+APov+MNvWGinLqzAH3hv53dHV1/7WDlUfTX1H5mo/SapX7rm0Tjy62f7n3688VQ/kfqlOPXDF9dGj6dL1z9dvvn54T99+dXK+7vC+n8vbLorXOCCHwDBDzCfg//ChAUe/Jeu/Pr1vQf/bvUb97245OqJef5VYZ4fHaeCfyBntp+c6tfN9j/9+GCz4B9MBP/gRPAPhuAPx+vC8enBzz5b/vrwsn9c9+a6Dxf058Yza8EfNb/gBxD8AAj+vk79K2ETvj8cemUi7wcnj61O9Wsr9q9JrdhvEPlP5E31w3Ei8qvH6uOZ6vH6Z6pfRMevjyxftWe/wELwAyD4AQR/+8Ef/u08Pkvhg/TKW3bd9dziqx4avOqhgYypft6K/UTwJ6f6pdqi/fam+lHwDzYM/urj2erjO+MrV+3db9pPJ8IFLvgBEPwAgn++WbvnwH8YWXXNI6VQ+/Fs/5O12f7Vdalfe0xF/qPxPvyD1xTbh38y8p+sRf6TpcnUf3rabP+65Gy/NtWvRn4t9cPt/dXjc6UvvDD0Zyte/dWBQ17wCH4ABD+A4G8t+MOvz8vz89ibW6Kpfuj85Gy/FvwDzYM/vWI/MdWPduNvEvxPDSaCf2rFfm2qP5gd/KUo+D8bHZ8rPbl5i9c8bQgXuOAHQPADLNDgD784z87M6/sOfXvolUJT/fgG/sdKV9dN9R8rtTLVL6Wm+rkr9nOn+hORXw5ffC46Pl/+3MTxT5avfuPgYa98WhIucMEPgOAHWKDBH/5x3pyT4+cu/I+VGz77eKWNqX7Giv1Saqrf9Db+xlP9AsFfP9X/XHScDP7q4/aBkX/e8NbZhfdJirQtXOCCHwDBD7BAgz98PT9OyMEz574++PJE6qdm+7nb8l1dm+pfE0d+LfU/nTPbn7YtXylO/fRU/9ratnzX1W3L90wt8idTvxx1fhT5ydl+SP0bouML5RteKP2Xla8eO3/BJUAR4QIX/AAIfoAFGvzhi3lwNjZ+ePjWZ8YardgfSAT/QP4+/NdM24d/2lr9ZsGf3oc/OdUfLBb8pUTwTx4nHlHql+LgD8f7KmOjO3e7CmgqXOCCHwDBD7BAgz8c+/1UvHngyE1PjTSf6j/ScKpfqpvqF9qHf2qqX1ur/1TRqf710Vr9eKqfsWK/bqofHT//YjiWq8cXS18cGHrwjU3H5t0WDHRXfJkLfgDBD4Dg7zNbj5z47ONDtan+YGqqn3Mbf+Opfi34i031n2w81b82e6p/fdOpfpPgL0XBH46ff7H0X1et3XvqtMsBwQ+A4AcQ/PXBH/TvSXjr4NEvPF2b7T9SZMV+aWpbvsdLWSv201P9WuqXEjfw5+7D/3RtW75n0pFfTmzLV562Yn/qBv7M1K89Sje+VP78S+Vw/MrI+K6Tp1wRNBRd44IfQPADsECDP/wn/XgG9p86e9uzY9Fa/auiqf5k8A/kzPaTU/36FfuPDzYL/vwV+4mp/tOD2cGf3oe/lAj+UrPgLyWCv3q88aXSPZXRjQcPuSioEy5twQ+A4AdY0MEffmff/fiHz56794Xxlqf6tRX716RW7DeI/Cfan+pfV4v86+vW6j9bm+o/1+5U/8Xy5Gx/UfWL6HjTovJ9Q2OvfXjAdUFSuLQFPwCCH2CeB3/U/FnBH/5tf/3spy9e+r3yiulT/bwV+4ngT071S7VF++1N9Wtr9XNv479+xqb6ieAvheAPjy8MlMd3f+DSIBYu7Zzgj/6XQfADCH4A5nPwh3/VTz/4Rx/95fJ1UepfXZf6tcdU5D8a78M/eE1L+/A/GW/LV5pM/aenzfavS872k1P9qRv4y4nUb7IPfzr148j/fHKq/9K0qf6NE51ffQxMBn94jOzc5eogEi5twQ+A4AeYD83fRvBHzR9+pY9q/8m3t01O9R8eaB786RX7ial+tBt/k+B/ajAR/FMr9uO1+tnBnznbT031S82CPz3bLyWCvxQHf/jiC4PlYc3PhHBpR7XfefA7mQCCH4CeCP64+dPBHzV/XfCHf+yXH3npjr1XZ93A/1jp6rqp/mOlVqb6pdRUP3fF/gxM9W+ordWfmuq/2Hyqf9PA5Gw/pH443jxYCV9Udux0gRAu7XTwR/870DD4k/8bIvgBBD8A8yH4w7Evft49J09/ZWBZzlQ/Y8V+KTXVb3obf+OpfoHgz5rqR8Ffahb8WVP9cmqqnxP81S/C8cVt77tGFrj4Ahf8AIIfgAUa/CdPnuyLn/dvVm3I2pbv6tpU/5o48mup/+mc2f60bflKceqnp/rX1rblu65uW75napEf78b/XC31n8+c7ae35aulfjlO/fhxU3K2P5Cd+oO11C9Vbo6OpfLz27b1+4v8XB9+hETvCJe24AdA8APMh+BPL+PPD/54375QBeE/6fEfdv3+Q6HqP/nIQP4+/NdM24d/2lr9ZsGf3oc/OdUfLBb8pUTwJ1fsZ67Vz1qxf2NtxX481b+xtla/WfCXb46OpfIXS+V/2Lixf1vt7OVLQx/scKW3J1zUcfBH13vx4LdjH4DgB2D+BH/4bb38k544f+G+l5ZEqd9oql+qm+oX2od/aqpfW6v/VNGp/vXRWv14ql9gxf70yC+npvrl5FS/2Ir9SoOp/mCI/Ops/4vlyeMXy+UfvfnmlT4MttOXLj6/Y+uag/td6e0JF7XgB0DwAwj+k+HXe/knff6d7Rm38Tee6teCv9hU/8nGU/1rs6f61zed6rdwG3+DqX4i+NuY6kepX46DPxyf3rKl717ej2zd/N1Xl+85c8qV3p5wUQt+AAQ/wEIJ/viT+c5OSAZ/L2/U/8HJ03e9MJ5I/dLUtnyPl7JW7Ccj//qnyl98buSul8a+Vln+O+Wld740dvNzw9c/XW6yD//TtW35nklHfjmxLV952or9qRv4y9k38E/uxj+xLV9qqv9S46n+TbVt+WqpX0mkfiWR+pORH463VCaPt5TLj777bh+9tp/e/t59y4ceeHnk8q+vuNLbEy7qZPBHV338mXyCH0DwA9DfwR81f5Hg7+WN+v9h7Vv1K/YTU/36FfuPD974zNBfrnj94TffW7xjz6ZDR4+eO3/ywsXTFy+dvTT1CP946sLFw2fPrdqz/ycbNv3xktV3vjRaP9V/ejA7+NP78JcSwV9qFvylRPAnp/qlyal+oeBvsGI/EfzluuAPx+e2bu2LF3blgx33Lhu6d1nlv7/xmsu8beGiLhj88f9cCH4AwQ9AnwV/1PzJ4E9u1B8Ff89u1H/wzLnbnxubNtWvrdi/ZvqK/VueH/mTJWuG39/9/rETIeYvt5IoR86ef+fIsRfe2/4XK1+7Z3Dx9cmP3Ks9ptbqP1ub6j/X7lR/YsX+52tT/RuTU/1F6civpKb6lQZT/Vrq31I32598lG8dqoTHwI7tPf6qHt6z80vLh8N4/ysrRpbt/8Bl3rbouk4Gf3TtJ4M/Od4X/ACCH4B5GPxR81/uyc8/+6fX3qrbh/9T01bsV1P/pmeGf7ph847j3XnPIqwgeHLz1q9UllxfH/wzNNUvx7P9jqb6pQa38Uepnwj+6vG5bb0751+8d9f9y4fvXT4Ugv8vfrX6xMULLvP2hMs5qn3BD4DgB5j/wR/v25cV/OE39NoPGMb71z9ZuebReB/+wbqp/ueeroRb98NN+13/qy9d+fWSXXt+f3R5IvWb7MOfTv3pH7ZXbrxiP28f/urx5rrd+Eu12X4c+enUT0R++CJO/fC4bbh6fOy9XlzPP75vd5T61cfLQz99703XeNvC5Zwf/OkF/IIfQPAD0NPNXyT4kxv1n54QBX/4xV776R5/a2vjFfuPD372qcp/WrLmvSPHZ/QbOHHhwotbtt81OJqe7aem+qVmwZ+1Yj8K/tK04B9MBv/02X7tUUv9coMt+qYFfzkR/OWJ4K8eQ/Nf6Jl7OkJNLtq1LZ7tR8G/8chBF3jbwuUc38+fDP6cLfpzgt/5BBD8AMx98HfyyXy9tm/fvlNnHhhYGq/YT3zYXumr5eUrds/ex7PvPHHyB6tfv/GFSpGp/g21tfpTU/0XuznVz1qx33SqH47x4/aR6vGH61472hsfx/jYtneiyA/H+18eDl/8YOOr53pyjUm/qNuxz2fyAQh+ABZ08J84caKnfrRnNr+fWLEfBX/18X/XvX1lLgrkjYOHv7345cmpfl7wZ031y6mpfk7wZ071b46m+qV2pvq1R7ka/CPV7P/q0sW/OjSXg/QD58783Vvr4qn+RPBXv1i6f7eruxPhchb8AAh+gIUV/DmfzBcKoXf27Qt77H97eGW8Ld+nJ45ffG4kvAswh99V+Hi/v1z1Wta2fLXUL8epHz9uSs72B7JTPznVT+3Dn/jIvfpt+W6tT/3KVOrHnT9Sm+1PpH71MVo93rN4+Ceb3rpwZbaf+vA3ju7Z+UdrX44jf/K4Yvibq8dn//uZT8KFXBf8OZ/JJ/gBBD8A/R386Y3608EfhH/bIz/Xqg8+DNv1faq2Yj/cxn/3S4s3Hjg8599YiKG/fnVd/j78ieCfPMZT/Rtra/WbBX96H/6pqX70mBb8Q9mz/eFotl9OBH85Gfx3jFa/+JtfvX5yFndtPHbh/N9v+tX9tRX704N/6Jdb33Zpd/RmyoUL6c/kSwd//D8Ogh9A8APQl8Hf0ifzhV/pkZ/rhyvXxyv2w/G7i1cfPnu+R7630EP/vOGtUPupqX45OdUvtmK/0mCqP1hoqj9xrKSm+pXGU/3h2lR/ZCryJ49jQ3dUj5WvLVtc3rXjwpUrM3r2Tl688OT2d3935WjyBv6wbv/+idl+OH5zzfi2k8dc2p0IF7LP5ANA8AMI/mnBH/TCD3XqwsUbnq7Ugn/wByvXHT7bW58gEJLowTfevnnR0A3ZU/1E8Lcx1Z9cq98s+LOm+pXUVL+SnurXgr8SBX943Ll46FsrlpZ2bj94rvtv/Ry/cL7ywfavv7J4asV+Yqp/f+34o3c3uq47fVelNt4X/AAIfoB51fxXElr9ZL4eWcb/6t4D0Ww/1P5/Xvrq0XPne/PMD+3YdWdpZGJbvtRU/6XGU/1pH7k3WNuNfzL1p63Yb/Bhe6kV+9PW6mfN9humfhz5o5U7w4Q/pH70WDx05+LKXYuH/njNikU73z987tzlX3c68A/5ePT8ucoHO/5s/apGU/3qP34pzPZXVI9fXjm88ahP4+tI3QL+gp/Jl/zfDbUPIPgBmCfBX7dv35wv47905crfvboxCv7vjL5y7lJPb962+cjRB4YXf37aVL80OdUvFPxZK/anrdXPWrGf3oe/tmI/Cv5yffCPNgz+SiL4KxPBP3EcHwpf/IfVyx/f+u77J49faPGdoPBSPHTu7NjeXT/c+OqXwiftpfbhv//loUTwD00E/9A/bF5/cYbXFMx74RLuZIt+wQ8g+AHo3eBv6ZP50hv1z/ky/g9Onv5aZXmY7f/JkjV7Tp7u/fO/48TJ7yxdcWNyqr8oHfmV1FS/wT78Ux+2V/+Re5VbKo3W6rc01R8dSk31h+6oTfUnZ/sTkR8d7w7H8crdS6rHLy8f/ebKJd9bu/J/v7n+oS2bXty5bfHeXSv273390IdvHz385tFD4Yvl+/eM7Nn57I4tP37njf+6ftV31iz96sqxOPJrqT98fy3146l+9bhyONT+V14Z2XHqhCu6Q+ESztmi32fyAQh+AOZz8Odv1D/ny/iX79p783PDXysve+dw3+zctunwkd9bvCya7Xc01S9l3safCP4Wp/qJFfsZU/0o+CvTgn98WvCH491LJo/3LJ083rO0erx/2fB9y6pf37tsKH6Etr+3tgP/9OBvMNWPg//vN693OXcuvpB9Jh8Agh9gHjZ/J/v2zfky/p9u2HzDM0Pr9x/qr6fgnSNHby8NN96Wb6A21Y934y/VZvtx5KdTf9q2fJVE6k/N9uNHHPm31SI/Tv2pR22t/uRUP7FiPyv17x5PRv5QIvUnH8nID4XfMPWn38A/nEj9auRHqf/AyuFvrB7bbrzfseQC/q7s2OeUAgh+AHo0+NND/qzgT97VH/7tHP4sL+/eN7RtVz8+C786eOiBkcVTwT+YDP7ps/3ao5b65QZb9FWar9i/bXK2X24c/NOn+nfUpvp3RGv1p1bsR8FfaRD8qan+1Gy/fqpfKRb8yan+0JdqxxD85Q+2u5A7Fy7erB37coLfAn4AwQ/AfAj+Ivv2ha/n7AcJxXL5cv8+Ecv37L1/eKzpVD9rxX7LU/3hhlP9odvrp/pD7Uz1l8RT/aG6qf49zaf6w6mp/nB6qh9qPzr+97fWnrp00YXcuXDx2rEPAMEPsKCDP2cZ/4kJ/h/9tq3et//W0lD+VP/maKpfam+qX8mb6qdX7Lc61R/PnuovnZzq39PqVL/+Nv6hZPB/5ZXhbSePeeV05X8Houu37QX8gh9A8APQ68Hf4b59vfDhfH3ttQ8P3DM00nAf/sRH7qU+bK8+9StTqV90H/7oI/eGEqlfm+qP1SI/nu2P11J/SV3qN16rnzXbjx9x5N9Xm+rXUn/6bL821X/gleEHJo6Ldm/zmumK+AP57NgHgOAHmM/N3+G+feFXnNJOLN79wZdGx1L78E9N9aPHtOAfyp7t19bqJ4K/nL8P/x3T9uGvTAR/NNuvZAZ/xj78k1P9yRX7lUTwV7KDPzXbn1yxHwX/UBz8/3vTOq+WbgmXrR37ABD8AAs6+Bsu46/bty9wSjv0yr59t1eG8qf6E8dKaqpfaTzVH65N9UeKTvUzV+ynp/pL2pnqT7+BfzhzxX5qqv/AK0NffmX4j9ct//Cct5a6pu5+/mTw5yzgF/wAgh+Afg3+9vbtC8Jvc1Y79PqBA/eNjDYL/qypfiU11c+5jb/xVL8W/JVmt/FnTfWj4K/kBX/OVH9F46l+FPxfWTXy5rFDXiTdEi7Y9AJ+O/YBIPgB5mHwd76MP/yis9q5lXv3fXV8fGpbvtSK/Wlr9bNm+w1Tf2zqBv7JffjHKkX24W90A/9QIvWnZvvxI3tbvgZr9e+v7cOfM9sPj+d2bRGUXRQuWAv4ARD8AAs0+KPmTwd/1jJ+d/V3y7oDBx4YG8tasZ/eh7+2Yj8K/nJ98I82DP7ps/3kVD/ajb9J8Ndm+8vqVuxP7sbfyj78yRX7Q4ngH0oG/99vXn9ZT3ZVcryfv4A/Cv6m9/MLfgDBD0CfBX/dvn05y/iPHz/urv5u2X3q1DeXLbul0mitfktT/dGh1FR/4jgxz7+zbqq/OB35Q6mp/lDTqf69tcivpf7w/bXUb2mqXz2uqs72//6d9WcuXfKq6KJwqYYLtukC/pZ27BP8AIIfgL4M/oLL+O3V30XbT5z4szVr2pzqN9qHf/pUPwr+Siu38Wftw595G38828+Y6g+npvoNgv/PN75y9MI5r4fuivbnb2MBv+AHEPwA9GXzN923r+ky/jAz9P/0d9GBs2d/8Nrautl+/Igj/7Za5MepP/WordW/o+k+/OMNt+UbSqT+1Gz/3tQ+/Lk38A8nUr821V9Ri/w49V+ppX51qj9xXDX0719feui8vSG6f+HH4/22F/DbsQ9A8APQT8GftW9f3V39Ocv4Q0WE3+PEdlGIql9s3pyc7d82OdsvNw7+6VP9eB/+O6b24a8kgr/SIPhTU/30iv14rX6x4G+0Vn8q+Ieygv9H7208fckike4LF2nyfv78Bfzx/wgY7wMIfgDmVfA3XcZfd1d/qIjwj05s1728d+/Xly2ZnOoPN5zqD91eP9UfameqvySe6qdW7Def6g+npvrDxaf64Ys49b+2ZvTF3VvPX77sqZ8J4SKtW8Df8H5+C/gBBD8A8zP4s+7qTwZ/1l394b91brtuy/Fjf7xqZc5t/NNm+61O9cezp/rxiv1Wp/r1t/EPNQv+ydv4//C1JeP7d8nHGRIuz6b382ct4M+5n1/wAwh+APqp+Vtaxp8c8od/68TOhDDxfmbblnvHhusi//Zoqj+V+rWp/lgt8uPZ/ngt9ZfUpX7jtfpZs/34EUf+fbWpfi31p8/2c7flq6V+9fGnG1buPnPScz1zwuWZdT9/8QX8ah9A8AMwH4K/4V39dcv46+7qD184sTPn4Nmzf7th3V0ThZ+1Yv/O2mz/rsnZfiUz+Avtw19JBH8lO/hTs/3JFfvT1+o3+OC96vF3V4/8Yttb56+4jX9mhcsz5wP5Gi7gdz8/gOAHYP4Hf8EP5ws5EX6ncztzLl25MvbBrj9avaLhVD9zxX56qr+knan+9Bv4hzNX7Bee6ofHf1r/8tIPd3tmZ1q4MKPa94F8AAh+gAUd/J3c1W/rvllw7vLlp7dtuTM11a8Ff6XZbfxZU/0o+Ct5wZ8z1V9RaKofr9j/6pqR8p73DfZnR912fd36QD7BDyD4Aei/5k8O+dPBn3NXv637Zs3uU6d+8e6mr788nr8Pf6Mb+IcSqT81248f2dvyNVirf39tH/6ms/0Q+dExTPVf2L3l8PmznsTZEW3XV/x+/ij4jfcBBD8A8z/4W72rP/wr53aWnsGPPtpx8sRf/+q1B5aOJoK/0iz4a7P9ZXUr9id3429lH/7kiv2hRPAPNQz+b61d/PNtbx04d8ZzN5vCJel+fgAEP4Dgb/PD+eqG/M7tLNt56uTD723+g1eWTY/8odRUf6jpVP/eWuTXUn/4/lrqtzPVf2U4/si9p3e+e/zieU/W7Ksb7/tAPgAEP8BCDP7iH86Xf1d/+D1O7xw8oR99tOf0qSe2vfsfVy8vvA9/5m388Ww/Y6o/nJrqNwj+P1g7/uP3Nr5x9OC5y5c8QXMiXIxt3M9f5AP5BD+A4Aegz5q/K3f1+3y+uX1OPzx7Zu3BD5/c9u6fr1v9+yvH7182nJzt35vahz/3Bv7hROrXpvorapEfp/4rtdRfNfzNVxeHVfr/7c01g3ve33n6xEV7Osyp+NP43M8PgOAHEPwtBH/WXf3Hjh3z+Xw9Yt+Z06Xd2//2jXVfW7m4bq1+seBvtFZ/KviH4uD/zmtL/uGd9S/t3vrmsUMnL15w5ntBuAzDxdj2/fyCH0DwAzCvgr/zu/qj5g//6PT2lFBspy9d3Hby+KoD+17YufVH72z84ca131w1Hq/VT031h9NT/fD42uqxb706/v31K//PpnUPv79pfP+ubaeOn7186YoC7D3hMkyP993PD4DgB1i4zd/JXf2G/P3izKWLh8+f23HqxJtHD204cnDtof0vf7hn6f4PRvfurHywfWD3+y/t2rZo97bwj8v2f7Dq4N7XDn+48ejBd44f2X7q+AdnToad9o9dOH/hymVnsmfVjffdzw+A4AcQ/M336o+H/Pl79YdfdHphroQLsMj+/E3H+4IfQPADMD+bPxn8UfM3vKu/4dZ9YboY/hOnF2ZfuPTi8X7Wdn11wR9f5sb7AIIfgAUU/G1v3WfID3MiXHq26wNA8APQ0V39WVv3RfcSG/LD7IvH+8ngb2+7PsEPIPgBmM/N3+HWfYb8MMvqxvu26wNA8AMI/taCv+DWfbbrh9kUb87f9nZ9gh9A8AMwz5u/jbv6s4b84WunF2ZHuNyajvfbvp/f6QUQ/ADMh+Dv1tZ9UfOH3+wMw0wLF1rB8b77+QEQ/ACCv/0hf/Lz+cIXzjDMtHChtfppfLbrA0DwAyz05k8P+ePgL/L5fEH4bc4wzJxwiUXXWsHxfhT8xvsACH4AwX+5vc/nSza/ZoCZu3iTtd/ep/EJfgAEP8BCDP66u/qLDPnrtu4Lwr91kmEmhIurbryfvJ8/f7zvfn4ABD/AQm/+zof8R48eDf+5kwzdFS6rcHEZ7wMg+AFoM/jzt+6Lh/w5n88XhF90kqG7wmWVM96Pg79uvG+7PgAEP4Dmb+Hz+YoM+X1EH3RRuKCKj/d9Gh8Agh9A8M/gkD984SRDtySvLON9AAQ/AO03f9Mhf3Lrvqwhv937oCvCpdR0vF8X/Mb7AAh+AMHf6dZ9DYf8cfOH/9Z5hk6Eiyiu/fzxvu36ABD8ADQP/q4M+YPwK84zdCJcRMmb+Tsf7wt+AAQ/wEIM/i6u5I+H/OG3OdXQnnD5FBzvd7J6X/ADCH4AFkTztzTkb7pdvxv7oW3xzfxd3JzfeB8AwQ+wcIO/+Er+hkP+uPmTQ3439kMbwoWTHu9HV1lL4/381fuCH0DwA7CAmr/zIX/dR/TZsR9aFe/M3/Cj+Iz3ARD8AHTa/AWH/HHzJ4f8yY/oC8J/6FRDEeFiia6a9M388Xg/vVefzfkBEPwAtBD8XfyIvvCPTjUUES6Wrn8Un+AHQPADaP42t+svsntf+FdONeQLl0mRvfo635zfqQYQ/AAs0OAvfmN/wyF/w937gvD7nW3IEi6Q5M38+Xv1FR/v26sPAMEPoPkLDfmj5i8y5E/v3nfkyJHw5zjbkBYujXCBFNmrr+F4P748jfcBEPwANAn+Nob8+bv3WcwPOeKl+0X26jPeB0DwA9BR87f3EX35u/cF4Tc425AULoqGN/Pn7NXno/gAEPwAdKf5W/2Ivpzd+8J9yxbzQyxcDumb+dveq89H8QEg+AFoLfg73L0v3fzhT3DCIVwIObXvo/gAEPwAzEbz1wV/w937it/YH74If6YTzkIWLoHkFdHSzfwN9+oz3gdA8APQTvB3cmN/esf+IPyiE85CFi6BuPbb2JnfeB8AwQ9A95s/OeTv5MZ+G/ixYIUXf1du5vdRfAAIfgDaD/6mu/e1vWN/CJ7wm51zFprwso9qv+2d+X0UHwCCH4DuNH93b+yva36b9rOgxNvy59S+m/kBEPwAzFLwz+iN/UH4z512FoLwUo9e87N2M7/gB0DwA9Ck+Vsd8rfU/OGL8Kc57cxv4UUeXupt1L7xPgCCH4AZDP6ZvrE//KMP6mMeCy/v8CKf5Zv5BT8Agh+Alpu/Lvhzbuwv3vzhF5125qvw8m619pvezG+vPgAEPwBdC/7Od+zPurE/av7wr5x55p/wwk7Wfqs387e3M7/gB0DwA9Ba88/oYv4g/FtnnvkkvKTb26jPzfwACH4A5qz5Lyd0uJhf87Nwar/zpftu5gdA8AMwI82fM+TvymL+IPweZ55+F17Gce3P0NJ9O/MDIPgB6Gbwd35jv+ZH7Sdr3838AAh+AOZP86cX82t+FkLtW7oPgOAHoJ+av+mN/XWL+Qtu2m89P/0ouW6/4EZ9+Uv3fQ4fAIIfgDkL/k4W82t+Fmbtd33pvuAHQPADMEvNH394ePrG/qwN/LKaP/xb55/eF16o+bWfv1FfFPzxhaP2ARD8APR687e0gV/D5j98+HD4dUlDL18a4SUaXqjFa9/SfQAEPwC9Hvwzt2l/XfOHXwx/vmeBXhNeluHF2bD2Z2dbfsEPgOAHYKaav6XF/Pmb9jds/ug26RBU4R/DH+hZoHeEF2R4WUa1HwV/Vu23tC2/8T4Agh+APm7+rE378+f84Rj+EM8CvSC8FOOXZf5sv/Nt+dU+AIIfgF5s/uQGfh02f9RX4b/1LDC3woswOdjvvPYt3QdA8AMwT5q/btP+Vps//H7PAnMlvPw6qf30h/CpfQAEPwB90/yXE5ou5m+v+cNv8yww+8ILr/Paz9+oLxn8ah8AwQ9AbwV/qxv4tdf84dfDn++5YHaEF1u8IX/Xa994HwDBD4Dmn9b84Rj+EM8FMy28zOKXnNoHQPADoPlno/kt6WemRYv21T4Agh8AzT8HzR9+T/i7PB10V3hRhZeW2gdA8AMg+BsEfxebP8r+rOYP/xj+NM8I3RJeTuFFlVP70Wuy67Uv+AEQ/AAs3OaPsj/Z/G7vp7vqbuNP1n482Ff7AAh+ADT/TDV/w1F/+A1276dt4cUTXkJNb+NX+wAIfgAWbvB3sfmj7C/e/EH4QzwvtCq8bOKXUMHaj16fM1f7gh8AwQ/Agmj+KPsLNr+d/CguuT9fkdqPB/tqHwDBD4Dm72bz52/dH2d/+CL8aZ4a8oUXSfI1U3xDfrUPgOAHQPM3CP6uNH96636jforLGew33ZC/7dov8iF8ah8AwQ/AfG7+dPbnNH/+7f1W9ZOWXLHf6hZ9Ue2nU1/tAyD4AdD8TZq/W1v3x9l/6NCh8NvC3+IJIrwMwoshvCSK3Mbf6ob8ah8AwQ+A5u+o+fO38csa9YfGC/+hJ2ghCy+AOPUbDvY72aJP7QMg+AHQ/E328OtkSX/TUb/N/BamaHO+tgf7BRft26UPAMEPgOafveZvOOoPvyf8FZ6mhSA80eHpzhrsq30ABD8A9FDz5y/pLzjqD8J/Ev5ez9R8FZ7c8BRHz3XBwX7+on21D4DgB4AZaf6ZGPVHC/t9dN88E57QaLn+DA321T4Agh8AWm7+zrfxq2v+/FF/lP3hGP4c9TU/Xm/hqYyf1qaD/bZv4y++RZ/aB0DwA6D522n+Tkb9dXf4hy/CnybD+vdlFp6+5LOZTv02BvtqHwDBDwAz2/wNl/R3MurPusM//Ippf9+9usJTFm3CX/Ae/pYG+8UX7at9AAQ/AJq/C83f9Pb+nFF//h3+8U3+1vb3uPAExTfwN72HP2ew35VF+2ofAMEPgOZvZxu//Nv7C476C97hHwdkEP6E8Fd77npNeFLCUxM/TVmpX3Ar/iKD/fRt/G1s0af2ARD8AGj+7oz627jDv2H2h98c/jpPXy8IT0R4OlpN/Zx7+GdtsK/2ARD8AGj+Fpq/1Z388u/wz8/+8Nvs6jeHL5tw8sNTUDz1G97D3/b+fGofAMEPADPe/G3c3l/kDv+C2R+EPyH87Z7H2RFOdTjhyfPfauoXH+y3dBu/2gdA8ANAa83fxdv7i2/m10b2h99gY7+ZE23IF05ye6lffHO+mb6NX+0DIPgBkP1du72/4ar+Inf4t5H90Qr/8Hfpum69JMLJTK7S7zD1G97Dn79i3238AAh+AJj75m866i9yh3972Z8u//AnhL/Xc9qecOrCCczq/M5TP/8e/pzBvtoHQPADwIw3f4ej/i5mf5Hyl3xFnvrind+t1O/WYF/tAyD4AaDL2V9w1J+/mV/+wv6uZP/BgwfDfx7+xvB9en6TwgkJpyWcnHCKupX6+cv1C27OZ7APgOAHgDlu/rZH/V3M/qz7/BuWf/g94Q8P38aC3eQv/ODhxw8nIZyK/M5vePd+11PfYB8AwQ8Afdb8bdzhn5X96Zv8Wxr4p8s/iv/wnyyQ+I8jP/zI6cjP6fz8kX7WDfxZqd/SPfxqHwDBDwBz0Pz5t/fnj/qz7vAvnv3FB/5Fyj+e/Ic/P3wP4XueH09f+EHCjxN+qIaT/OKdX2SkXzz10/fwNx3s++w9AAQ/AMx29ndx1N90P7/87G+j/LPG/pHw30b9H77nvpj/h28yfKtR4Udj/EjTyG+p84ukftbOfAb7AAh+AOin5i8+6m8v+3N28s8f+OeUf8H4T/Z/+A3hDwx/Y/h+wncbfpY5zMvwV4dvIHwb4ZsJ31L4xsK3l1P4TSM/q/PzR/pZO/B3K/UN9gEQ/ADQc81fZNTfYfYXH/jnl3/x+K97CyBK6/AHhr8rfA/hGwvfbfgRooKN6rTtUx3+8+hchT8w/LHhDw9/RfiLwl+X/h6yNI38Ip3f0ki/1dTv1mBf7QMg+AFgPmd/q+VfMP7z+z/9LkCdKLzTdZ3+NqK/KP+Pytfwm8+P/JY6X+oDgOAHQPO3dod/29mfP/DPKf+247/gWwDF7xFoW86311LkZ3V+/kh/JlJf7QMg+AFgIWZ/wYF/kfLPH/s3jP/8/u/KGwFthH1O4Te8oSAr8pt2fsGRvtQHAMEPwEJs/pw7/LuV/UXKP3/sX7z/W3ojoFvyv5P8ws8f5jft/C6mftN7+NU+AIIfAPov+3NG/U2zv+F9/i2Vf/7Yv2D/F3kXYKZlfVf5hZ8zzG+p8xvevd9G6hvsAyD4AWCeZ3+Rm/ybDvxbLf824j//LYCuvxfQ9C/K+g6LR37bnd9wpF/8Bn6pD4DgB4B50vwzkf1Nb/XPKf+csX9W/+e8BVDwjYC25f+9Db/V9E+UFflZnd/01v1ZS321D4DgB4D+a/72bvIvkv055Z8/9i/e/wXfCOiW/O8hv/Dzh/lZnd9h6he5gV/tAyD4AUD2d6f88+O/YP8XfCNgJuR8M/mFnx/5HXa+1AcAwQ+A7G8h+4sP/AuWf6vx37D/m74L0PabAsX/zKzvKv39F4/8gp3f0khf6gOA4AdA9reZ/cXLv9X4b9j/+e8CtPeOQPGez2/7hoXfUuQX73ypDwCCHwDN/+sZyv7it/o3Lf90/Dfs/5y3AFp6L6C4pn9dw28y/bOkf96czm/p1v0upr7aB0DwA8A8bP6s7G9j4J8/8y8S/w37P+stgOLvBbQt/+9t+K02/KGKR36689se6RdMfbUPgOAHANlfdOCfLv+m8Z/V/1lvATR9F6C7sr6HrO85/dPlR36Rzpf6ACD4AaD72V+w/Juu80+Xf1b/t/EWwEwrnvfpwi/Y+Q1PafHOl/oAIPgBkP1dy/6C5V88/rP6P+ctgA7fF2jpj8363rJ+lvaG+Q07X+oDgOAHgC5k/8yVf8P4b6P/O3xHoKWe76TwG0b+LHe+1AdA8AOA7O9C+bcU/1n9n/MWQHtvB7SqyN+e9Z1n/aTFI79bnS/1ARD8ACD+28/+nPJvNf5z+r/4uwAzIf+7yvlxWor8/M536z4ACH4AmJHmn4nyz4//Im8BdPi+QBt/eNNvOOsnnenOV/sAIPgBYGazP7/8c+K/4FsAHb4d0HnSF8n7ppHftPOlPgAIfgDo3fJvGv9N+7+9NwK6ruA32fSHLXLGdD4ACH4A6Ins72L8t/QWQBffEWjvbyz443Q98qU+AAh+AJjt7C9Y/i31fyfvAnRLS99q8TPQ3hn2ygQAwQ8Ac5b9rcZ/q/3f3XcEOvyrW/oxOzmfXo0AIPgBoL/jv4tvBHRR2z+CyAcAwQ8ACyL+O+n/GX07oFvfVYcnx6sLAAQ/APR39ne9/+dKt86DVxQACH4AmIfZ3y9vAczEz+tVBACCHwAW6FsAs/9GwMz9FF4hACD4AUD2zyteFQAg+AFA/It8AEDwA4D4F/kAgOAHAG8ECHsAEPwAwEJ/I8CzAACCHwDogzcInCUAEPwAAACA4AcAAAAEPwAAACD4AQAAAMEPAAAAgh8AAAAQ/AAAAIDgBwAAAAQ/AAAAIPgBAAAAwQ8AAACCHwAAABD8AAAAgOAHAAAABD8AAAAg+AEAAEDwAwAAAIIfAAAAEPwAAACA4AcAAAAEPwAAACD4AQAAQPADAAAAgh8AAAAQ/AAAAIDgBwAAAAQ/AAAACH4AAABA8AMAAACCHwAAABD8AAAAgOAHAAAABD8AAAAIfgAAAEDwAwAAAIIfAGBe2vzOu2tfe/2f/vlfwuPb3/nul37na8nH9/7sL6J/FX7Pnj17e+o7D9/S4iVLs77znv3mw3cSvp+HH308fGN//Tf/K/1th0f0bb/w0kD4nV6igOAHAKCFyA89GcLy3/zmJ/6f//dfF3+E3x/SOoTonPTziZMnQ+GHSL75trta+rbjR/iRQ2mHH3/2Iz/8veHUtXrCo8c1190Q3rwIP3s4A169gOAHmHGvrn29vf93czYf/397d8wry5GWAfg3kRCQbLAr7QYEJCQEBERYWFpHlrBwhIWFMywLh3iNU6/XKYs3t/2jDq8ZazjMnOn+qrq6p2f6edRCu8u9Mz01PX37rfqq6m/+9u922HT/9tm/F88/jTzkpfbZDnu7UGdbm9cetFUTFxM7u9PyxZH4mgi6zZnnjfJ2A2+PidBpirXzc3J+OlbyXgPPPMnfrxUQ+AEEfoFf4Bf4Bf7/i/pJnn3Dy7PJOQP+6515XnxsYL4oWEizrBH7E/WTzNe7vadUwW8WEPgBBH6BX+AX+I8e+DOUvUbUv8ifw4v803rrRf2L2J8mGtu3ss1Nfo1mBxD4AQR+gV/gF/gfoFUzWX1UAX8lNv/Xf3836swzUX/jG2amDCwf6k+Db9NJ8brZv/79H/wkAYEfQOAX+F2oAv+BAn9y4NoD+9fH8vCZ1J2B67vcM9M5siTz36XBRzU7gMAPIPAL/AI/jxH4N6sqHxs+k7c3K0kYm/nzqe97w5f5AYEfQOAX+F2oAv/zB/5Vl4tb9YPfa2z/IvO3nnYq+fdwz5f5AYEfQOAX+F2oAv8zB/5//pd/vfvNJ5XtHXvd128Oax9pw/pppyLgXpX8181uDT9A4AcQ+AV+F6rA/5yB/+6F5a8XkG868yTVXd0/69/d+//4T/s57dZmBxD4AQR+gV/g5wEC/04Ky8/Hf/zuP+snP6SY/xe//HV+7zn+8q/+epvkPOrfgtNp5/izP/+Le82nABD4AQR+gV/gZ4+Bf/lyd/mlZLA6P6scyeqn//D3//Db7gharzDvG97PieWEsxfgrekDaZN8BanPT0fASsm5b3g//RFp4bz+rQUC84lSrJHGN8gPCPwAAr/AL/AL/EcP/N0T4JMqky2nl6ZP/uxLtvlblZNvffEE+NYF6tIv0Br7Z08+jdbRIE3T7PMWHS1vJj8g8AMscho46j7q5aZ51Ot+l45Fsx6LwI/Af9I3Qp4A3HSGeZfWUvkM8ld2ufvFr37TlJn7ds7L32o6/5z89As2rZiQeoR0OvR9v61LMzRNpgAQ+AEGSwQtPrcl02ougR+Bf1rHBPgUunfE5vyV1jrz2aH4pqUHFv6cWzP/dERvGnvvTvsdmb9jZ0EAgR9A4Bf4YXeBv2OG0ZIbS2tmnp1SniS85Yp0TdUQ01X99Tv5kLtQU/+Cqn5A4AcQ+AV+ePjA3zrkXpxXP6F1O4Dp8FlffSBzELa8dcwOlQ8scyh2tdQXUFxYUAAg8AM8T+DPc+T3P/x4Pv743Z/O/3nPCwEI/A/qfL29vtL6ZmUvlyv84mQqQ6P7Cfyts/dH/RyaRpun72P1+D3q5JsabUjgH3Ul1JtdZzEg8AMcN/AnXH39zbcfffxJqm2zMNX8wNqvfvPOu+998eVXuyoTFfgfSxL1+x98OHG95TLLH8iVuXb4T8jPxT+9iV1+Grngb3V47SfwZyr+XTZpb8rM07/B+kcY+Fuul0VMdHpu3+z12gr3PUDgBzhi4E+a6ljf66LGdUkkywNrTqByrBf4k1WK55CjtcYhT/affvb59NHUevnDxVNNcFqvtfPifc2V889HrvQrvV4dvbWV6td/04Lwp26I/K3dBv7W9e0HvnXTVIK9Bf6sYz/7dlmqIO+4q8Afs1X9+QM57eu7AYDAD/DMgb8j6rSmoGIeXp4QFgb+ykNz9+Tb6XHjjtest9j1XlwDW7t40V4Em0wkbor6F7F/yMznc1Msuf4v+jJ2EvjHzqVv1bTY3kRsrpf0Vy7UjqbL0gC5vNMbkjPJJZdvrdhQ26ySONHPktPOkRfPcdqN1T+vgMAPcLjAn0fbSgrtOFLn3zoMu5PAX58K2zRQltYYPtBaj0PXmeqOgT9Nkfr85ddYhvqX/wRSwL/8TNIBcV4IbSeBvykqJygOP4EhO8M3fYqBa9HVg/3yjz9wn7ycs2APCPwAAv/PlgyxFh9kmzL/TgJ/fVPrpif14stmqLn+msXC6TcXML9X4M8lMbCPaeEecmN7u05FBzsJ/E0fbWC5RPGqeD1yPtEUler6+iZ/W8oHvEtVP4DADyDw/5z214v6fZl/J4G/OBTfWkU8ZCWwC8X+mjerBu4S+Idn7KbmWjXtn5PzHjJe0zWcY401EU6/wdOk8Vz8+a9J7/nUTd9X/Sr9+VL/4MOHu5OfKkT2vOkJgMAP8GCBP5Wfq47tX9T2P1bgb/oW6rGt3uATFc4XX+KSUue7BP4hlfxLaiLOVprJspNB3aacvEY9/6nTYfuei9M4/x52DGmajHDK/Nn6wb+AAAI/IPAPCPwbp53i3Nr9BP56IXExnDcFsOJ64/UajbVbu3jRNm3PvsYFdta6X93DBf6mSvid78qe9fA7mjddS9nr8Y6n3VdCld6rvW1xCiDwAzxY4K9XHW88BrufwF9f4by4xl5rwqy8ZvEz3hq/3T7wr3c0Td5urRJ/xMDf1LcycK27u3deXA+bp8IoEfr7H+4wSb6+38ebk6GynGT6LIR/QOAHEPjbtA7vZ4TtNAX3dCS7dgS8yqpg+wn8L+U1t4p9Ga1tXslgxW/hVg3CMwX+pl3lBu5AudvA3/SN7DxS1qeuVFJ0Rv43y/+jSlrSbZEurexJIf8DAj+AwD8sVGd4Km9x6/kyc2vz/60PYVXmCe8q8Ncf1mfnKncklsqGfwvj3K4C/2nN9tPRtLx56zrzfcPFOaV8I7mo0hGTNzp1e/WVmm8T+Js6NfZ/V1xpMkjy/2n8f6UF8wZ2VVzn/9P4/xqrLQII/AAPHPiLteUJM5WH4Dxu1mPPYwX++hTc2eTWETJnCweKkw7e3JBvP4E/p5f8fN0lkf+lNeNVukhe2of3c4YT32/Os3s5gFUD//AFI+4r7bykPL5pFH1s+N9gtYhc0ilb+Pqbb4V/QOAHEPhLteV5tq4/9eYpszgkO5twdhX466lp9ouob8hXL7QuLsQwEYPvG/hzjc2OyecM6zGvElxbV68oLtDQdJ4Cf5/WRe8XRugk/yHF8/Xb46gtUZL8/TMKCPwABw38xT2uWl+5mKNmF7TfW+AvBvXZ2QrdO7pPvGZxAHwiVd4x8KcqpJimmoojZl8tQ7jD0/5JOshaM/96gX+NLSH2oK/jbGHN//IVDesrgA6sVsiYv9n+gMAPcMTAf5qBnCNPz3mvNwvyW58Ui/0Iswlqb4G/mDbzeD3xIn27c832IxQrNbZp7abAn7NqusDqA6TTr9M0oTq/i9YfV2v5gMDfcftauG5C9x4QC7+s7TdGOd2XUqegzh8Q+AEOFPin41AeanMUFz+7UHkQn40Wewv89Yg4kWC71xub7kdY3mVwr8Dfmp3qs6CnX6epWKBvIveq7bBS4B97G9kg828/zn+O/UvCc9+8jyGxv++WDiDwAzxV4N/gtB8u8L+Uh5cn6n6XbAJ3KxMWG2r6Qf8ugb9jPHnU6on1oFjZUeJNTQO5An+3pv1BxobnJUv6pVvwXhtYpsLfv62AwA8g8K972tND1vsM/MXh5Vtr4y2cvnvrKy4OVk9Xzt8l8HfMiK6f53SEzuW33km29hAJ/AvdMTwvHDDPX79Lb0UmASnvBwR+AIF/3dN+uMBfPKVbrzOdzGfHnPOM/ubLVgarZ2ehbx/4p9cUuKXeaTK9f159iYElP4R6HcFOAn93OcMe5JN2T5lZciz87hK8c2fYcvX+6fsJgMAPIPAfNPBHcTiuo1kykjz70P/moFxlmsDs5bF94O9eH255DKvPC1i4iF199ziL9o2S3pzk5y3n9i+s7X/9TaU4aMvkr7YfEPgBBP7/9yT9/Q8/fvHlV1ntOUeWrToffY+bjxj4i0HiOgDMbl6QPzA7PnldP1zcE2E2kBwq8Ndz+MKf1agJCEs0TSR5gsD/+qeR30t+UxtE6LGj5fnKcuFtM0nBGn6AwA9w3MCf586vv/k2o0BLlpp7ssBfXInt+jF6+i+e3np25Pl6L8NKK1Xq0gX+4RP4dxL46y32ZIH/Ivznqzyl6JXmzK+UnHMTTsFCfvgr7UGYe7t/ZwGBH+BYgT+PmB99/El9VbNDBf7i9O/rZD49en/6+maH669XOqx8tOuTOXjgr/+sFubw+mIBOwn8s0tpPk3+T4PntzMwSG+TnH/qhP39H8b2XBjkBwR+gKME/oznpzZ1sxmkjxj4o5IQrkt8pztQziX3sy9+UZxfuUIqD/QC/0o5fA+BvynTHnPx9tNAeibsLEnRC+tB+nou8qaZ+b+k28IgPyDwAzx/4P9pxbh16vafL/AXN+e7iBPFkvvZF08sqfcj1COcwL9S+t1D4G+aDb7qmTyEdJD15edb+3FuI+UkOYG+DovpPTsBBH6Axw78KeC/yxbWDxr4i6ugvQ5O0zH+9V5os5/69UlWKsaLH0rg7/uwDxH462sW7G2/jztKz1preN7DRne5J3TsUKCqHxD4AZ4z8P+0MvwHH94l7T9u4H+pbc73eih+eqLExdN2fdi5sr3cRUWAwH/AwF9cabK+4sNBpGuvNfPvZELE7H4fvnRA4Ac4ROB/59337pX2HzrwV56nz+P2s+PwF/W0swN056nClckFxR3CBf4nDvz1L3e9dfvS6fB6I8/p47618a+lv6zpnraTCRHpd2ialfCsuzMAAj/AoQN/U6HvxJPi+UhSzWvmKG58/biBvzJkel4Ka/oP57m8NWOc49Ds5ZEvYngmfILAX695fo5F+15aFupfafG5pjHnNwec8zv69LPPK8fYxizezW4V1KQ7r3jaOe7VyzOkbwtA4AfYUeCvbxh2MWqdJ9o8Sk4v8lQ87ccN/LP7572u752Ol9eDmbNrBJy7EgZW6h4q8Ne7uhZGx+JyDxsE/qZ1+9Yo8G46gTfvZvVXGFsg0DTIf33mTcF77OJ5TV0V/rUFBH6Apwr8TQs75cExw2v16alPH/hfaludnVJcx2jq7JN6gkElTNaHagX+NRYzq7fq2oG/qZwnVf1j56IXO8imr9v6zXBsgXpTYl8Y+MdeBk2dLP61BQR+gOcJ/E3P38VV344W+Cvjfnnf2XX13nzx2frnvHvlBNZINYcK/AuXrK+vlrd24K/XGqyxVn/TqoG3lr4rboc5fGP5pmKo63Zb+2Y7qpfHznyAwA/wPIG/XqTa99z/9Iv2FRNUXnA6pdx6x9mAlAKN2U6B17v9Cfx9H3bhWHE9o26w2FtTgffYBNhaT7TwrlVfq3LsT+PWDbO+1P/Yjf2amt2/toDAD/A8gb+YQ+pLvh0w8FcSVEqjM9jYMaA3OyqYV57e6q91tPBQgb9pzHZJcfvsd7Rl4G9dcD6r5Q9539blQm7NwG8K3gOn8Vc2vxy1+sDYjf2U9AMCP8BBA3/xZfvW7qo/Hz964G/d7LppHLJpV63lI7SHCvwvLYOu3dP4m6roNwj8Het0LlzCoO9ncmvhiaba+IHLENTLNG71sjW9wqiuitZ1E/xrCwj8AM8T+IsDj331/PU60kcP/E1Df9dHMueomLG8OuNogb/+y+oe6G4Kutvs397RRbXZsoWVH0VTL9iQvQYSm9N3sPB7bG2EIZMpmgo6xi5zCCDwA9w58K+3HXfTqOajB/7WMbSmQLKwN6F1nPBogb9pPbOONN66SN42gb81eS7M/K1pefa6bfrWhlQotL7jrbKCekXJaSb/wvKE1pYfu5EhgMAP8BiBv3WEP0+Z9UnLTxD4XxqXxWpNI0sCf2uAPFrgbwrkrau+54cwvXbDvQL/S+O87vPx0ceftEbQtHBrI8wObnfMSvjiy6+626p1c4EUINx6qdbaitxIu8f5W+/DfX27AAI/wH4Df3G4qWmZ9zxlpvh54KzRhwj8rQuhNRXu9mWz2bpogf+kadX69z/4sP5DeOfd99buoOnWkZnPvR5//O5PxRb49LPPW8f2i0X4HWtb5L7UGp77vsSJZTI7aivSgGnG1u830b215XO7GLhSIIDAD3D/wF9/2WIOyfN065jScwT+7vg0MRi4vDehqafmsIG/dZWEJMDZXJQ37fghbBn4X9rL1C9SaPo+vv/hx+sInf/l62++zf+3I+qfYmcllndPdcn3ktOb3a4vnRr5CGt04fX1350bfPray1unlqGjpGLUYgcAAj/AjgJ/vb40j5vTUSQPmhmG6ns+foLA/9K+vXl90mzrPPAlU5cPGPg7mvc06HodGhPGEhRbK1zuFfhztsv3gKhvDzn8DtZd+fJ6zD9HenDybebIf8h/XfhBZmNz3wIKF0UWpzPPDIucdv7v6b/29bCMXSMQQOAH2FHgb52bmmfKDB9llOl8JN7kiXPhI/JzBP6+5fSLk2ab1vpa8gR/wMC/JDomYp2y1vKguH3gP3V29F1aKx2VgpeByXn4USxPWN5VMfwwvA8I/ABPGPi7C9HHHs8R+PtqjIsv3rGPWlN2Onjg766hGH5sHPg7ev3unpaX97Ktd0zM3n8ttRW76mcxex8Q+AGeM/C/LFteXuC/0PoQX3+jjlTWeiUcOfD3dak8R+DfSebPb2d2Xv2bRs1KWH40XckLt9sce1icHxD4AZ428K86yF98Fn+awN/ae1IcD+z7mvri02ED/6qDrvkhFH8Ldwn8e8j8HetNnL+4PWT+nEPrIPlOaiu6Wx5A4Ad4gMD/smyx7unnyOIrP03gb32Cb8rkTammY0O+gwf+9QLYaey62Br3Cvynj3+XOvO86cIR5rtn/o60/+j9LAACP8DDBP7hj8t5gj/llqMF/qZx+NZM3jRduXsJriMH/jU6v86V6vsP/C//u5ZB32YT/QvO//LXfaUo1zexe81Oyje7ZAJ8Ojvu1c8i7QMCP8AhAv/YzP/6Cf5ogf+lZRy+NZM3TfrtfpQ/eOCPzLNYY176QwT+061gs5Xw8kZj14rbvkih73573eYbr9s/qp8FQOAHeIzA/zJoiCwh9vUT/AEDfz0stWbyNGz9i+jOUQL/y6BB13T9vM5UjxL4z5fBqhE0L77SJ82Vv836i/kIYzNzrroNyityYQ/ppAAQ+AEeLPAvfOjM37qeiHvAwF/f4K0jk68doQX+s8zOWJIbc6VdfL+PFfjXi/3rRf2Lry9dbyuN9q/6EdIPuFJXyynq234PEPgB9ui0AF7lGPIkmuheH+3PSOatweqcTOWcZ5/di5+9EmAqr7NwamvlLerr83ec/5JrYGBrFy/a7tYunmfr1u4XDZ7YX8+N+ZPJmW++Y7E1lpzteuE5J7Zw8Dl3iVsts6rcypq+wemPkJ/tNh8h75L3GjLNKp89LWDjPUDgB+DtwJPnzjypZ9Dp9ZEnyGSAPEQaL+IgP4Rc8Lnyr3NvAlX+9/xGnj5TJYXmM57uBrP5/9ws6enYQy9GzuHU51I5+XPVUv7w3W90p2svt9z6yP/pFp1bt4n6gMAPAECP5MnE0Ytjh0UKTee/q1kVb0rvw5un/UAtDyDwAwAAAAI/AAAACPwAAACAwA8AAAAI/AAAAIDADwAAAAj8AAAAIPADAAAAAj8AAAAg8AMAAAACPwAAACDwAwAAAAI/AAAACPwAAACAwA8AAAAI/AAAAIDADwAAAAj8AAAAIPADAAAAAj8AAAAg8AMAAAACPwAAACDwAwAAAAI/AAAACPwAAACAwA8AAAAI/AAAAIDADwAAAAj8AAAAIPADAAAAAj8AAAAg8AMAAAACPwAAACDwAwAAAAI/AAAACPwAAACAwA8AAAAI/AAAAIDADwAAAAj8AAAAIPADAAAAAj8AAAAg8AMAAAACPwAAACDwAwAAAAI/AAAACPwAAACAwA8AAAAI/AAAAIDADwAAAAj8AAAAIPADAAAAAj8AAAAg8AMAAAACPwAAACDwAwAAAAI/AAAACPwAAACAwA8AAAAI/AAAAIDADwAAAAj8AAAAIPADAAAAAj8AAAAg8AMAAAACPwAAACDwAwAAAAI/AAAACPwAAACAwA8AAAAI/AAAAIDADwAAAAj8AAAAIPADAAAAAj8AAAAg8AMAAAACPwAAACDwAwAAAAI/AAAACPwAAACAwA8AAAAI/AAAAIDADwAAAAj8AAAAIPADAAAAAj8AAAAg8AMAAAACPwAAACDwAwAAAAI/AAAACPwAAACAwA8AAAAI/AAAAMBA/wNWZ8LKgzvHFwAAAABJRU5ErkJggg==;" parent="1" vertex="1">
          <mxGeometry x="275.01" y="310" width="206.06" height="100" as="geometry" />
        </mxCell>
        <mxCell id="efpffI7OLtBo6xo70BxB-13" value="" style="endArrow=classic;html=1;rounded=0;fontSize=25;" parent="1" edge="1">
          <mxGeometry width="50" height="50" relative="1" as="geometry">
            <mxPoint x="508.53" y="190" as="sourcePoint" />
            <mxPoint x="628.53" y="140" as="targetPoint" />
            <Array as="points" />
          </mxGeometry>
        </mxCell>
        <mxCell id="efpffI7OLtBo6xo70BxB-14" value="" style="endArrow=classic;html=1;rounded=0;fontSize=25;" parent="1" edge="1">
          <mxGeometry width="50" height="50" relative="1" as="geometry">
            <mxPoint x="630" y="170" as="sourcePoint" />
            <mxPoint x="508.53" y="220" as="targetPoint" />
          </mxGeometry>
        </mxCell>
        <mxCell id="efpffI7OLtBo6xo70BxB-15" value="" style="endArrow=classic;html=1;rounded=0;fontSize=25;" parent="1" edge="1">
          <mxGeometry width="50" height="50" relative="1" as="geometry">
            <mxPoint x="510" y="330" as="sourcePoint" />
            <mxPoint x="630" y="390" as="targetPoint" />
          </mxGeometry>
        </mxCell>
        <mxCell id="efpffI7OLtBo6xo70BxB-16" value="" style="endArrow=classic;html=1;rounded=0;fontSize=25;" parent="1" edge="1">
          <mxGeometry width="50" height="50" relative="1" as="geometry">
            <mxPoint x="630" y="420" as="sourcePoint" />
            <mxPoint x="508.53" y="360" as="targetPoint" />
            <Array as="points" />
          </mxGeometry>
        </mxCell>
        <mxCell id="efpffI7OLtBo6xo70BxB-18" value="" style="shape=actor;whiteSpace=wrap;html=1;fontSize=25;" parent="1" vertex="1">
          <mxGeometry x="50" y="200" width="60" height="80" as="geometry" />
        </mxCell>
        <mxCell id="efpffI7OLtBo6xo70BxB-19" value="" style="endArrow=classic;html=1;rounded=0;fontSize=25;" parent="1" edge="1">
          <mxGeometry width="50" height="50" relative="1" as="geometry">
            <mxPoint x="140" y="210" as="sourcePoint" />
            <mxPoint x="250" y="210" as="targetPoint" />
            <Array as="points">
              <mxPoint x="210" y="210" />
            </Array>
          </mxGeometry>
        </mxCell>
        <mxCell id="efpffI7OLtBo6xo70BxB-20" value="" style="endArrow=classic;html=1;rounded=0;fontSize=25;" parent="1" edge="1">
          <mxGeometry width="50" height="50" relative="1" as="geometry">
            <mxPoint x="250" y="296" as="sourcePoint" />
            <mxPoint x="140" y="296.25" as="targetPoint" />
          </mxGeometry>
        </mxCell>
        <mxCell id="efpffI7OLtBo6xo70BxB-22" value="キャッシュ配信" style="text;html=1;align=center;verticalAlign=middle;resizable=0;points=[];autosize=1;strokeColor=none;fillColor=none;fontSize=16;" parent="1" vertex="1">
          <mxGeometry x="120" y="241.25" width="140" height="30" as="geometry" />
        </mxCell>
        <mxCell id="efpffI7OLtBo6xo70BxB-24" value="データ配信" style="text;html=1;align=center;verticalAlign=middle;resizable=0;points=[];autosize=1;strokeColor=none;fillColor=none;fontSize=16;" parent="1" vertex="1">
          <mxGeometry x="540" y="320" width="100" height="30" as="geometry" />
        </mxCell>
        <mxCell id="efpffI7OLtBo6xo70BxB-25" value="一般ユーザー" style="text;html=1;align=center;verticalAlign=middle;resizable=0;points=[];autosize=1;strokeColor=none;fillColor=none;fontSize=16;" parent="1" vertex="1">
          <mxGeometry x="20" y="296.25" width="120" height="30" as="geometry" />
        </mxCell>
        <mxCell id="efpffI7OLtBo6xo70BxB-26" value="" style="shape=actor;whiteSpace=wrap;html=1;fontSize=25;" parent="1" vertex="1">
          <mxGeometry x="1000" y="200" width="60" height="80" as="geometry" />
        </mxCell>
        <mxCell id="efpffI7OLtBo6xo70BxB-27" value="管理者ユーザー" style="text;html=1;align=center;verticalAlign=middle;resizable=0;points=[];autosize=1;strokeColor=none;fillColor=none;fontSize=16;" parent="1" vertex="1">
          <mxGeometry x="970" y="290" width="140" height="30" as="geometry" />
        </mxCell>
        <mxCell id="efpffI7OLtBo6xo70BxB-28" value="" style="endArrow=classic;html=1;rounded=0;fontSize=16;" parent="1" edge="1">
          <mxGeometry width="50" height="50" relative="1" as="geometry">
            <mxPoint x="860" y="400" as="sourcePoint" />
            <mxPoint x="960" y="320" as="targetPoint" />
            <Array as="points" />
          </mxGeometry>
        </mxCell>
        <mxCell id="efpffI7OLtBo6xo70BxB-29" value="" style="endArrow=classic;html=1;rounded=0;fontSize=16;" parent="1" edge="1">
          <mxGeometry width="50" height="50" relative="1" as="geometry">
            <mxPoint x="970" y="350" as="sourcePoint" />
            <mxPoint x="870" y="430" as="targetPoint" />
            <Array as="points" />
          </mxGeometry>
        </mxCell>
        <mxCell id="efpffI7OLtBo6xo70BxB-30" value="" style="endArrow=classic;html=1;rounded=0;fontSize=16;" parent="1" edge="1">
          <mxGeometry width="50" height="50" relative="1" as="geometry">
            <mxPoint x="980" y="190" as="sourcePoint" />
            <mxPoint x="870" y="120" as="targetPoint" />
          </mxGeometry>
        </mxCell>
        <mxCell id="efpffI7OLtBo6xo70BxB-23" value="データ配信" style="text;html=1;align=center;verticalAlign=middle;resizable=0;points=[];autosize=1;strokeColor=none;fillColor=none;fontSize=16;" parent="1" vertex="1">
          <mxGeometry x="550" y="200" width="100" height="30" as="geometry" />
        </mxCell>
        <mxCell id="efpffI7OLtBo6xo70BxB-33" value="" style="endArrow=classic;html=1;rounded=0;fontSize=16;" parent="1" edge="1">
          <mxGeometry width="50" height="50" relative="1" as="geometry">
            <mxPoint x="850" y="151.25" as="sourcePoint" />
            <mxPoint x="970" y="221.25" as="targetPoint" />
          </mxGeometry>
        </mxCell>
        <mxCell id="efpffI7OLtBo6xo70BxB-34" value="コンテンツ作成" style="text;html=1;align=center;verticalAlign=middle;resizable=0;points=[];autosize=1;strokeColor=none;fillColor=none;fontSize=16;" parent="1" vertex="1">
          <mxGeometry x="834.62" y="250" width="140" height="30" as="geometry" />
        </mxCell>
        <mxCell id="efpffI7OLtBo6xo70BxB-37" value="基盤開発構成図" style="text;html=1;align=center;verticalAlign=middle;resizable=0;points=[];autosize=1;strokeColor=none;fillColor=none;fontSize=28;fontStyle=1" parent="1" vertex="1">
          <mxGeometry x="20" y="20" width="220" height="50" as="geometry" />
        </mxCell>
      </root>
    </mxGraphModel>
  </diagram>
</mxfile>
